<?xml version="1.0" standalone="no"?>
<!DOCTYPE svg PUBLIC "-//W3C//DTD SVG 1.1//EN" "http://www.w3.org/Graphics/SVG/1.1/DTD/svg11.dtd">
<svg xmlns="http://www.w3.org/2000/svg">
<metadata>Generated by Fontastic.me</metadata>
<defs>
<font id="oz" horiz-adv-x="512">
<font-face font-family="oz" units-per-em="512" ascent="480" descent="-32"/>
<missing-glyph horiz-adv-x="512" />

<glyph unicode="&#97;" d="M512 217l-256 198-256-198 0 81 256 199 256-199z m-64 7l0-192-128 0 0 128-128 0 0-128-128 0 0 192 192 144z"/>
<glyph unicode="&#98;" d="M384 192l0 64-160 0 0 64 160 0 0 64 96-96z m-32 32l0-128-160 0 0-96-192 96 0 416 352 0 0-160-32 0 0 128-256 0 128-64 0-288 128 0 0 96z"/>
<glyph unicode="&#99;" d="M432 512c44 0 80-36 80-80 0-18-6-35-16-48l-32-32-112 112 32 32c13 10 30 16 48 16z m-400-368l-32-144 144 32 296 296-112 112z m326 186l-224-224-28 28 224 224z"/>
<glyph unicode="&#100;" d="M160 320l64 0 0-64-64 0z m96 0l64 0 0-64-64 0z m96 0l64 0 0-64-64 0z m-288-192l64 0 0-64-64 0z m96 0l64 0 0-64-64 0z m96 0l64 0 0-64-64 0z m-96 96l64 0 0-64-64 0z m96 0l64 0 0-64-64 0z m96 0l64 0 0-64-64 0z m-288 0l64 0 0-64-64 0z m352 288l0-32-64 0 0 32-224 0 0-32-64 0 0 32-64 0 0-512 480 0 0 512z m32-480l-416 0 0 352 416 0z"/>
<glyph unicode="&#101;" d="M488 0l-336 0c-13 0-24 11-24 24 0 34 15 76 39 111 20 30 45 52 72 65-12 11-22 24-30 39-13 24-20 52-20 81 0 40 13 77 37 106 25 30 58 46 94 46 36 0 69-16 94-46 24-29 37-66 37-106 0-29-7-57-20-81-8-15-18-28-30-39 27-13 52-35 72-65 24-35 39-77 39-111 0-13-11-24-24-24z m-309 48l282 0c-5 20-14 41-27 60-21 30-47 50-73 56-11 2-19 12-19 23l0 17c0 9 4 17 12 21 30 17 49 54 49 95 0 57-37 104-83 104-46 0-83-47-83-104 0-41 19-78 49-95 8-4 12-12 12-21l0-17c0-11-8-21-19-23-26-6-52-26-73-56-13-19-22-40-27-60z m-80 32l-48 0c5 20 14 41 27 60 21 30 47 50 73 56 11 2 19 12 19 23l0 17c0 9-4 17-12 21-30 17-49 54-49 95 0 57 37 104 83 104 3 0 6 0 9-1 13 15 28 27 45 36-17 8-35 13-54 13-36 0-69-16-94-46-24-29-37-66-37-106 0-29 7-57 20-81 8-15 18-28 30-39-27-13-52-35-72-65-24-35-39-77-39-111 0-13 11-24 24-24l66 0c1 16 4 32 9 48z"/>
<glyph unicode="&#102;" d="M367 109c-9 2-9 28-9 28 0 0 28 27 34 64 16 0 26 39 10 53 0 14 21 113-82 113-103 0-82-99-82-113-16-14-6-53 10-53 6-37 34-64 34-64 0 0 0-26-9-28-31-5-145-54-145-109l384 0c0 55-114 104-145 109z m-195-8c22 13 49 26 71 33-8 12-17 27-22 45-8 6-14 15-18 26-4 11-6 24-5 35 1 8 4 16 7 23-2 23-4 69 26 102 12 13 27 22 44 28-3 32-19 70-83 70-103 0-82-99-82-113-16-14-6-53 10-53 6-37 34-64 34-64 0 0 0-26-9-28-31-5-145-54-145-109l165 0c2 2 5 3 7 5z"/>
<glyph unicode="&#103;" d="M311 161c-11 1-11 32-11 32 0 0 33 32 40 75 19 0 30 46 11 62 1 17 25 134-95 134-120 0-96-117-95-134-19-16-8-62 11-62 7-43 40-75 40-75 0 0 0-31-11-32-36-6-169-65-169-129l448 0c0 64-133 123-169 129z"/>
<glyph unicode="&#104;" d="M424 0l-336 0c-13 0-24 11-24 24 0 34 15 76 39 111 20 30 45 52 72 65-12 11-22 24-30 39-13 24-20 52-20 81 0 40 13 77 37 106 25 30 58 46 94 46 36 0 69-16 94-46 24-29 37-66 37-106 0-29-7-57-20-81-8-15-18-28-30-39 27-13 52-35 72-65 24-35 39-77 39-111 0-13-11-24-24-24z m-309 48l282 0c-5 20-14 41-27 60-21 30-47 50-73 56-11 2-19 12-19 23l0 17c0 9 4 17 12 21 30 17 49 54 49 95 0 57-37 104-83 104-46 0-83-47-83-104 0-41 19-78 49-95 8-4 12-12 12-21l0-17c0-11-8-21-19-23-26-6-52-26-73-56-13-19-22-40-27-60z"/>
<glyph unicode="&#105;" d="M128 352c0-71 57-128 128-128 71 0 128 57 128 128 0 71-57 128-128 128-71 0-128-57-128-128z m256-160l-256 0c-71 0-128-57-128-128l0-32 512 0 0 32c0 71-57 128-128 128z"/>
<glyph unicode="&#106;" d="M364 256c69 44 116 128 116 224 0 11-1 22-2 32l-444 0c-1-10-2-21-2-32 0-96 47-180 116-224-69-44-116-128-116-224 0-11 1-22 2-32l444 0c1 10 2 21 2 32 0 96-47 180-116 224z m-284-224c0 93 40 173 112 199l0 50c-72 26-112 106-112 199l352 0c0-93-40-173-112-199l0-50c72-26 112-106 112-199z m230 145c-36 21-38 47-38 63l0 32c0 16 2 42 38 63 19 11 36 28 48 49l-204 0c12-21 29-38 48-49 36-21 38-47 38-63l0-32c0-16-2-42-38-63-36-21-63-63-71-113l250 0c-8 50-35 92-71 113z"/>
<glyph unicode="&#107;" d="M192 448c0-35 29-64 64-64 35 0 64 29 64 64 0 35-29 64-64 64-35 0-64-29-64-64z m136-56c0-36 28-64 64-64 35 0 64 28 64 64 0 35-29 64-64 64-36 0-64-29-64-64z m88-136c0-18 14-32 32-32 18 0 32 14 32 32 0 18-14 32-32 32-18 0-32-14-32-32z m-56-136c0-17 14-32 32-32 17 0 32 15 32 32 0 18-15 32-32 32-18 0-32-14-32-32z m-136-56c0-18 14-32 32-32 18 0 32 14 32 32 0 18-14 32-32 32-18 0-32-14-32-32z m-136 56c0-17 15-32 32-32 18 0 32 15 32 32 0 18-14 32-32 32-17 0-32-14-32-32z m-16 272c0-27 22-48 48-48 27 0 48 21 48 48 0 26-21 48-48 48-26 0-48-22-48-48z m-44-136c0-20 16-36 36-36 20 0 36 16 36 36 0 20-16 36-36 36-20 0-36-16-36-36z"/>
<glyph unicode="&#108;" d="M256 512c-139 0-253-111-256-250 3 121 95 218 208 218 115 0 208-100 208-224 0-27 21-48 48-48 27 0 48 21 48 48 0 141-115 256-256 256z m0-512c139 0 253 111 256 250-3-121-95-218-208-218-115 0-208 100-208 224 0 27-21 48-48 48-27 0-48-21-48-48 0-141 115-256 256-256z"/>
<glyph unicode="&#109;" d="M512 256c-1 33-8 67-21 97-14 31-33 58-57 81-24 23-52 41-82 53-31 12-64 18-96 17-32-1-65-8-94-21-30-13-56-31-79-54-22-24-39-51-51-80-11-30-17-62-16-93 1-31 7-63 20-91 13-29 31-55 53-76 22-21 49-38 77-49 29-11 60-17 90-16 30 1 60 7 88 19 28 13 53 30 73 52 21 21 37 47 48 74 6 17 11 35 13 52 1 0 1 0 2 0 18 0 32 15 32 32 0 1 0 2 0 3z m-51-85c-12-27-29-51-49-71-21-19-46-35-73-45-26-11-55-16-83-15-28 1-56 7-82 18-26 12-49 28-68 48-19 20-34 44-44 70-10 25-15 53-14 80 1 27 7 54 18 79 11 24 26 47 46 65 19 19 42 33 67 43 24 9 51 14 77 13 26-1 52-6 76-17 23-11 45-26 63-44 17-19 31-41 40-65 9-23 14-49 13-74l0 0c0-1 0-2 0-3 0-16 12-30 29-31-4-18-9-35-16-51z"/>
<glyph unicode="&#110;" d="M96 256c0 6 0 12 1 18l-92 30c-3-16-5-32-5-48 0-74 31-140 81-187l57 79c-26 28-42 66-42 108z m320 0c0-42-16-80-42-108l57-79c50 47 81 113 81 187 0 16-2 32-5 48l-92-30c1-6 1-12 1-18z m-128 157c46-10 85-39 107-78l93 30c-37 78-111 134-200 145z m-171-78c22 39 61 68 107 78l0 97c-89-11-163-67-200-145z m205-225c-20-9-42-14-66-14-24 0-46 5-66 14l-57-78c36-21 78-32 123-32 45 0 87 11 123 32z"/>
<glyph unicode="&#111;" d="M256 512c-141 0-256-115-256-256 0-141 115-256 256-256 141 0 256 115 256 256 0 141-115 256-256 256z m0-128c71 0 128-57 128-128 0-71-57-128-128-128-71 0-128 57-128 128 0 71 57 128 128 128z m153-281c-41-41-95-63-153-63-58 0-112 22-153 63-41 41-63 95-63 153 0 58 22 112 63 153l34-34c-65-66-65-172 0-238 32-32 74-49 119-49 45 0 87 17 119 49 65 66 65 172 0 238l34 34c41-41 63-95 63-153 0-58-22-112-63-153z"/>
<glyph unicode="&#112;" d="M512 320l-192 0 72 72c-36 36-85 56-136 56-51 0-99-20-136-56-36-37-56-85-56-136 0-51 20-100 56-136 37-36 85-56 136-56 51 0 100 20 136 56 3 3 6 6 8 10l49-43c-47-53-116-87-193-87-141 0-256 115-256 256 0 141 115 256 256 256 71 0 135-29 181-75l75 75z"/>
<glyph unicode="&#113;" d="M32 512l192 0 0-32-192 0z m256 0l192 0 0-32-192 0z m188-160l-28 0 0 128-128 0 0-128-128 0 0 128-128 0 0-128-28 0c-20 0-36-16-36-36l0-280c0-20 16-36 36-36l152 0c20 0 36 16 36 36l0 188 64 0 0-188c0-20 16-36 36-36l152 0c20 0 36 16 36 36l0 280c0 20-16 36-36 36z m-302-320l-124 0c-10 0-18 7-18 16 0 9 8 16 18 16l124 0c10 0 18-7 18-16 0-9-8-16-18-16z m98 224l-32 0c-9 0-16 7-16 16 0 9 7 16 16 16l32 0c9 0 16-7 16-16 0-9-7-16-16-16z m190-224l-124 0c-10 0-18 7-18 16 0 9 8 16 18 16l124 0c10 0 18-7 18-16 0-9-8-16-18-16z"/>
<glyph unicode="&#114;" d="M496 76l-121 103c-13 12-26 17-37 16 29 34 46 77 46 125 0 106-86 192-192 192-106 0-192-86-192-192 0-106 86-192 192-192 48 0 91 17 125 46-1-11 4-24 16-37l103-121c17-20 46-21 64-4 17 18 16 47-4 64z m-304 116c-71 0-128 57-128 128 0 71 57 128 128 128 71 0 128-57 128-128 0-71-57-128-128-128z"/>
<glyph unicode="&#115;" d="M496 76l-121 103c-13 12-26 17-37 16 29 34 46 77 46 125 0 106-86 192-192 192-106 0-192-86-192-192 0-106 86-192 192-192 48 0 91 17 125 46-1-11 4-24 16-37l103-121c17-20 46-21 64-4 17 18 16 47-4 64z m-304 116c-71 0-128 57-128 128 0 71 57 128 128 128 71 0 128-57 128-128 0-71-57-128-128-128z m32 224l-64 0 0-64-64 0 0-64 64 0 0-64 64 0 0 64 64 0 0 64-64 0z"/>
<glyph unicode="&#116;" d="M496 76l-121 103c-13 12-26 17-37 16 29 34 46 77 46 125 0 106-86 192-192 192-106 0-192-86-192-192 0-106 86-192 192-192 48 0 91 17 125 46-1-11 4-24 16-37l103-121c17-20 46-21 64-4 17 18 16 47-4 64z m-304 116c-71 0-128 57-128 128 0 71 57 128 128 128 71 0 128-57 128-128 0-71-57-128-128-128z m-96 160l192 0 0-64-192 0z"/>
<glyph unicode="&#117;" d="M182 151l21 29-23 23-29-21c-5 3-11 5-17 7l-6 35-32 0-6-35c-6-2-12-4-17-7l-29 21-23-23 21-29c-3-5-5-11-7-17l-35-6 0-32 35-6c2-6 4-12 7-17l-21-29 23-23 29 21c5-3 11-5 17-7l6-35 32 0 6 35c6 2 12 4 17 7l29-21 23 23-21 29c3 5 5 11 7 17l35 6 0 32-35 6c-2 6-4 12-7 17z m-70-71c-18 0-32 14-32 32 0 18 14 32 32 32 18 0 32-14 32-32 0-18-14-32-32-32z m400 240l0 32-34 6c0 4-1 8-2 12l29 19-13 29-33-7c-2 3-4 7-7 10l20 28-23 23-28-20c-3 3-7 5-10 7l7 33-29 13-19-29c-4 1-8 2-12 2l-6 34-32 0-6-34c-4 0-8-1-12-2l-19 29-29-13 7-33c-3-2-7-4-10-7l-28 20-23-23 20-28c-3-3-5-7-7-10l-33 7-13-29 29-19c-1-4-2-8-2-12l-34-6 0-32 34-6c0-4 1-8 2-12l-29-19 13-29 33 7c2-3 4-7 7-10l-20-28 23-23 28 20c3-3 7-5 10-7l-7-33 29-13 19 29c4-1 8-2 12-2l6-34 32 0 6 34c4 0 8 1 12 2l19-29 29 13-7 33c3 2 7 4 10 7l28-20 23 23-20 28c3 3 5 7 7 10l33-7 13 29-29 19c1 4 2 8 2 12z m-176-54c-38 0-70 32-70 70 0 38 32 70 70 70 38 0 70-32 70-70 0-38-32-70-70-70z"/>
<glyph unicode="&#118;" d="M512 208l0 96-73 12c-3 9-7 18-11 27l43 60-68 68-60-43c-9 4-18 8-27 11l-12 73-96 0-12-73c-9-3-18-7-27-11l-60 43-68-68 43-60c-4-9-8-18-11-27l-73-12 0-96 74-12c3-9 6-18 10-26l-43-61 68-68 61 43c8-4 17-7 26-10l12-74 96 0 12 74c9 3 18 6 26 10l61-43 68 68-43 61c4 8 7 17 10 26z m-256-16c-35 0-64 29-64 64 0 35 29 64 64 64 35 0 64-29 64-64 0-35-29-64-64-64z"/>
<glyph unicode="&#119;" d="M64 64l448 0 0-64-512 0 0 512 64 0z m80 32c-27 0-48 21-48 48 0 27 21 48 48 48 1 0 3 0 4 0l52 86c-5 7-8 16-8 26 0 27 21 48 48 48 27 0 48-21 48-48 0-10-3-19-8-26l52-86c1 0 3 0 4 0 1 0 2 0 3 0l85 149c-5 8-8 17-8 27 0 27 21 48 48 48 27 0 48-21 48-48 0-27-21-48-48-48-1 0-2 0-3 0l-85-149c5-8 8-17 8-27 0-27-21-48-48-48-27 0-48 21-48 48 0 10 3 19 8 26l-52 86c-1 0-3 0-4 0-1 0-3 0-4 0l-52-86c5-7 8-16 8-26 0-27-21-48-48-48z"/>
<glyph unicode="&#120;" d="M0 96l512 0 0-64-512 0z m64 128l64 0 0-96-64 0z m96 128l64 0 0-224-64 0z m96-96l64 0 0-128-64 0z m96 192l64 0 0-320-64 0z"/>
<glyph unicode="&#121;" d="M144 320l-96 0c-9 0-16-7-16-16l0-288c0-9 7-16 16-16l96 0c9 0 16 7 16 16l0 288c0 9-7 16-16 16z m0-288l-96 0 0 128 96 0z m160 352l-96 0c-9 0-16-7-16-16l0-352c0-9 7-16 16-16l96 0c9 0 16 7 16 16l0 352c0 9-7 16-16 16z m0-352l-96 0 0 160 96 0z m160 416l-96 0c-9 0-16-7-16-16l0-416c0-9 7-16 16-16l96 0c9 0 16 7 16 16l0 416c0 9-7 16-16 16z m0-416l-96 0 0 192 96 0z"/>
<glyph unicode="&#122;" d="M501 355l-50 50c-13 13-33 33-46 46l-50 50c-13 12-35 15-49 5l-138-92c-15-10-21-31-13-46l36-71c1-2 2-4 3-7l-178-178-16-112 96 0 0 32 64 0 0 64 64 0 0 64 64 0 0 36c3-2 6-4 9-5l71-36c15-8 36-2 46 13l92 138c10 14 7 36-5 49z m-426-270l-22 22 155 156 23-23z m384 215l-23-23c-6-6-17-6-23 0l-136 136c-6 6-6 17 0 23l23 23c6 6 17 6 23 0l136-136c6-6 6-17 0-23z"/>
<glyph unicode="&#65;" d="M352 512c-88 0-160-72-160-160 0-10 1-20 3-29l-195-195 0-96c0-18 14-32 32-32l32 0 0 32 64 0 0 64 64 0 0 64 64 0 42 42c17-7 35-10 54-10 88 0 160 72 160 160 0 88-72 160-160 160z m48-160c-27 0-48 21-48 48 0 26 21 48 48 48 26 0 48-22 48-48 0-27-22-48-48-48z"/>
<glyph unicode="&#66;" d="M192 256l-160 0 0 64 160 0 0 64 96-96-96-96z m320 256l0-416-192-96 0 96-192 0 0 128 32 0 0-96 160 0 0 288 128 64-288 0 0-128-32 0 0 160z"/>
<glyph unicode="&#67;" d="M467 207c-27 46-11 106 36 133l-50 87c-15-8-31-13-49-13-54 0-98 44-98 98l-100 0c0-17-4-34-13-49-27-47-87-62-134-36l-50-87c15-8 27-20 36-35 27-47 11-106-36-134l50-87c15 9 31 13 49 13 54 0 97-43 97-97l101 0c0 17 4 33 13 49 27 46 86 62 133 35l51 87c-15 8-27 21-36 36z m-211-55c-57 0-104 47-104 104 0 57 47 104 104 104 57 0 104-47 104-104 0-57-47-104-104-104z"/>
<glyph unicode="&#68;" d="M96 0l320 0 32 352-384 0z m224 448l0 64-128 0 0-64-160 0 0-96 32 32 384 0 32-32 0 96z m-32 0l-64 0 0 32 64 0z"/>
<glyph unicode="&#69;" d="M400 448l-288 0c-27 0-48-21-48-48l0-16 384 0 0 16c0 27-21 48-48 48z m-84 32l7-51-134 0 7 51 120 0m4 32l-128 0c-13 0-25-11-27-24l-10-67c-2-13 8-24 21-24l160 0c13 0 23 11 21 24l-10 67c-2 13-14 24-27 24z m88-160l-304 0c-18 0-31-14-29-32l26-288c2-18 17-32 35-32l240 0c18 0 33 14 35 32l26 288c2 18-11 32-29 32z m-216-288l-48 0-16 224 64 0z m96 0l-64 0 0 224 64 0z m80 0l-48 0 0 224 64 0z"/>
<glyph unicode="&#70;" d="M224 115l-103 118 30 30 73-58 137 122 30-30z m192 333c0 0 0 0 0 0l0-384c0 0 0 0 0 0l-320 0c0 0 0 0 0 0l0 384c0 0 0 0 0 0l-64 0 0-384c0-35 29-64 64-64l320 0c35 0 64 29 64 64l0 384z m-96 0l0 32c0 18-14 32-32 32l-64 0c-18 0-32-14-32-32l0-32-64 0 0-64 256 0 0 64z m-32 0l-64 0 0 32 64 0z"/>
<glyph unicode="&#71;" d="M437 437c48-48 75-113 75-181 0-68-27-133-75-181-48-48-113-75-181-75-68 0-133 27-181 75-48 48-75 113-75 181 0 68 27 133 75 181 48 48 113 75 181 75 68 0 133-27 181-75z m-23-339c32 31 53 70 62 113-7-10-14-13-18 9-4 36-37 13-58 26-22-15-71 29-63-21 13-22 70 30 42-17-19-33-67-105-60-143 0-55-56-12-76 7-13 36-5 100-39 118-37 1-70 5-84 46-9 30 9 75 41 82 47 29 64-35 108-36 14 14 51 19 54 35-29 5 37 24-3 35-22-2-36-22-24-39-42-10-43 61-84 38-1-35-66-11-22-4 15 7-25 26-4 22 11 1 46 13 37 21 19 12 36-29 55 1 14 23-6 28-23 16-10 11 17 35 41 45 8 3 15 5 21 5 12-14 34-17 36 1-30 14-63 22-97 22-49 0-95-16-134-44 11-5 17-11 7-18-8-23-39-54-67-50-14-25-24-52-28-80 23-8 29-23 24-28-12-10-19-25-23-41 7-46 29-88 63-121 42-43 98-66 158-66 60 0 116 23 158 66z"/>
<glyph unicode="&#72;" d="M256 416c-112 0-208-65-256-160 48-95 144-160 256-160 112 0 208 65 256 160-48 95-144 160-256 160z m126-85c30-19 56-45 75-75-19-30-45-56-75-75-38-24-81-37-126-37-45 0-88 13-126 37-30 19-56 45-75 75 19 30 45 56 75 75 2 1 4 3 6 4-5-14-8-29-8-44 0-71 57-128 128-128 71 0 128 57 128 128 0 15-3 30-8 44 2-1 4-3 6-4z m-126-24c0-27-21-48-48-48-27 0-48 21-48 48 0 27 21 48 48 48 27 0 48-21 48-48z"/>
<glyph unicode="&#73;" d="M420 364c38-28 70-65 92-108-48-95-144-160-256-160-31 0-61 5-90 15l39 39c17-4 34-6 51-6 45 0 88 13 126 37 30 19 56 45 75 75-19 29-43 54-72 73z m-164-201c-11 0-22 1-33 4l157 157c3-11 4-22 4-33 0-71-57-128-128-128z m224 349l-27 0-110-110c-27 9-57 14-87 14-112 0-208-65-256-160 21-43 53-79 91-107l-91-90 0-27 27 0 453 453z m-272-157c24 0 44-18 47-41l-54-54c-23 3-41 23-41 47 0 27 21 48 48 48z m-153-99c19 30 45 56 75 75 2 1 4 3 6 4-5-14-8-29-8-44 0-29 10-56 26-78l-29-29c-28 19-52 43-70 72z"/>
<glyph unicode="&#74;" d="M256 352c-105 0-198-50-256-128 58-78 151-128 256-128 105 0 198 50 256 128-58 78-151 128-256 128z m-32-64c18 0 32-14 32-32 0-18-14-32-32-32-18 0-32 14-32 32 0 18 14 32 32 32z m163-129c-20-10-41-18-63-23-22-5-45-8-68-8-23 0-46 3-68 8-22 5-43 13-63 23-31 16-60 39-84 65 24 26 53 49 84 65 16 8 33 15 51 20-10-15-16-34-16-53 0-53 43-96 96-96 53 0 96 43 96 96 0 19-6 38-16 53 18-5 35-12 51-20 31-16 60-39 84-65-24-26-53-49-84-65z m43 231c-54 28-113 42-174 42-61 0-120-14-174-42-30-15-57-34-82-56l0-55c28 30 60 54 96 73 50 25 104 38 160 38 56 0 110-13 160-38 36-19 68-43 96-73l0 55c-25 22-52 41-82 56z"/>
<glyph unicode="&#75;" d="M256 464c-56 0-108-22-147-61-39-39-61-91-61-147 0-56 22-108 61-147 39-39 91-61 147-61 56 0 108 22 147 61 39 39 61 91 61 147 0 56-22 108-61 147-39 39-91 61-147 61z m0 48c141 0 256-115 256-256 0-141-115-256-256-256-141 0-256 115-256 256 0 141 115 256 256 256z m-32-352l64 0 0-64-64 0z m0 256l64 0 0-192-64 0z"/>
<glyph unicode="&#76;" d="M256 512c-141 0-256-115-256-256 0-141 115-256 256-256 141 0 256 115 256 256 0 141-115 256-256 256z m0-464c-115 0-208 93-208 208 0 115 93 208 208 208 115 0 208-93 208-208 0-115-93-208-208-208z m-32 336l64 0 0-64-64 0z m96-256l-128 0 0 32 32 0 0 96-32 0 0 32 96 0 0-128 32 0z"/>
<glyph unicode="&#77;" d="M224 160l64 0 0-64-64 0z m128 224c18 0 32-14 32-32l0-96-96-64-64 0 0 32 96 64 0 32-160 0 0 64z m-96 80c-56 0-108-22-147-61-39-39-61-91-61-147 0-56 22-108 61-147 39-39 91-61 147-61 56 0 108 22 147 61 39 39 61 91 61 147 0 56-22 108-61 147-39 39-91 61-147 61z m0 48c141 0 256-115 256-256 0-141-115-256-256-256-141 0-256 115-256 256 0 141 115 256 256 256z"/>
<glyph unicode="&#78;" d="M256 433l-172-369 344 0z m0 79c11 0 22-7 30-22l219-436c17-30 2-54-32-54l-434 0c-34 0-49 24-32 54l219 436c8 15 19 22 30 22z m-32-384c0-18 14-32 32-32 18 0 32 14 32 32 0 18-14 32-32 32-18 0-32-14-32-32z m32 192c18 0 32-14 32-32l-10-96-44 0-10 96c0 18 14 32 32 32z"/>
<glyph unicode="&#79;" d="M477 475l-2 2c-47 47-124 47-171 0l-110-109c-47-47-47-124 0-172l2-2c4-3 9-7 13-10l40 40c-5 2-9 6-13 10l-2 2c-26 25-26 67 0 92l109 109c25 26 67 26 92 0l2-2c26-25 26-67 0-92l-49-50c9-21 13-43 12-66l77 77c47 47 47 124 0 171z m-161-157c-4 3-9 7-13 10l-40-40c5-2 9-6 13-10l2-2c26-25 26-67 0-92l-109-109c-25-26-67-26-92 0l-2 2c-26 25-26 67 0 92l49 50c-9 21-13 43-12 66l-77-77c-47-47-47-124 0-171l2-2c47-47 124-47 171 0l110 109c47 47 47 124 0 172z"/>
<glyph unicode="&#80;" d="M349 348l-33 33-162-162c-27-27-27-71 0-98 27-27 71-27 97 0l195 195c45 45 45 118 0 162-44 45-117 45-162 0l-205-204 0 0c0 0 0-1 0-1-63-62-63-164 0-226 62-63 164-63 226 0 1 0 1 0 1 0l0 0 140 140-33 32-140-139 0 0c0 0 0 0 0-1-45-44-117-44-162 0-44 45-44 117 0 162 1 0 1 0 1 0l0 0 204 205c27 27 71 27 98 0 27-27 27-71 0-98l-195-194c-9-9-24-9-32 0-9 9-9 23 0 32z"/>
<glyph unicode="&#81;" d="M432 448l-240-240-112 112-80-80 192-192 320 320z"/>
<glyph unicode="&#82;" d="M507 101c0 0 0 0 0 0l-155 155 155 155c0 0 0 0 0 0 2 2 3 4 4 6 2 6 1 12-4 17l-73 73c-5 5-11 6-17 4-2-1-4-2-6-4 0 0 0 0 0 0l-155-155-155 155c0 0 0 0 0 0-2 2-4 3-6 4-6 2-12 1-17-4l-73-73c-5-5-6-11-4-17 1-2 2-4 4-6 0 0 0 0 0 0l155-155-155-155c0 0 0 0 0 0-2-2-3-4-4-6-2-6-1-12 4-17l73-73c5-5 11-6 17-4 2 1 4 2 6 4 0 0 0 0 0 0l155 155 155-155c0 0 0 0 0 0 2-2 4-3 6-4 6-2 12-1 17 4l73 73c5 5 6 11 4 17-1 2-2 4-4 6z"/>
<glyph unicode="&#83;" d="M427 512l-342 0c-47 0-85-38-85-85l0-342c0-47 38-85 85-85l342 0c47 0 85 38 85 85l0 342c0 47-38 85-85 85z m-299-128l256 0c5 0 9-1 13-3l-141-164-141 164c4 2 8 3 13 3z m-32-224l0 192c0 1 0 1 0 2l94-109-93-93c-1 2-1 5-1 8z m288-32l-256 0c-3 0-6 0-8 1l91 91 45-53 45 53 91-91c-2-1-5-1-8-1z m32 32c0-3 0-6-1-8l-93 93 94 109c0-1 0-1 0-2z"/>
<glyph unicode="&#84;" d="M427 512l-342 0c-47 0-85-38-85-85l0-342c0-47 38-85 85-85l342 0c47 0 85 38 85 85l0 342c0 47-38 85-85 85z m0-64c4 0 7-1 11-3l-182-150-182 150c4 2 7 3 11 3z m-342-384c-1 0-2 0-2 0l112 157-14 14-117-116 0 305 192-232 192 232 0-305-117 116-14-14 113-157c-1 0-2 0-3 0z"/>
<glyph unicode="&#85;" d="M427 512l-342 0c-47 0-85-38-85-85l0-342c0-47 38-85 85-85l342 0c47 0 85 38 85 85l0 342c0 47-38 85-85 85z m-336-443l-38 38 128 128 14-14z m-14 344l14 14 165-132 165 132 14-14-179-212z m344-344l-104 152 14 14 128-128z"/>
<glyph unicode="&#86;" d="M256 512c-141 0-256-115-256-256 0-141 115-256 256-256 141 0 256 115 256 256 0 141-115 256-256 256z m-128-128l256 0c5 0 9-1 13-3l-141-164-141 164c4 2 8 3 13 3z m-32-224l0 192c0 1 0 1 0 2l94-109-93-93c-1 2-1 5-1 8z m288-32l-256 0c-3 0-6 0-8 1l91 91 45-53 45 53 91-91c-2-1-5-1-8-1z m32 32c0-3 0-6-1-8l-93 93 94 109c0-1 0-1 0-2z"/>
<glyph unicode="&#87;" d="M352 192c-32-32-32-64-64-64-32 0-64 32-96 64-32 32-64 64-64 96 0 32 32 32 64 64 32 32-64 128-96 128-32 0-96-96-96-96 0-64 66-194 128-256 62-62 192-128 256-128 0 0 96 64 96 96 0 32-96 128-128 96z"/>
<glyph unicode="&#88;" d="M509 224c4-28 6-66-6-80-21-24-151-24-151 24 0 24 21 40 1 64-20 24-57 24-97 24-40 0-77 0-97-24-20-24 1-40 1-64 0-48-130-48-151-24-12 14-10 52-6 80 3 19 11 38 36 64 37 35 94 63 215 64l0 0c1 0 1 0 2 0 1 0 1 0 2 0l0 0c121-1 178-29 215-64 0 0 0 0 0 0 25-25 33-45 36-64z"/>
<glyph unicode="&#89;" d="M0 304l0-96c0-9 7-16 16-16l480 0c9 0 16 7 16 16l0 96c0 9-7 16-16 16l-480 0c-9 0-16-7-16-16z"/>
<glyph unicode="&#90;" d="M496 320l-176 0 0 176c0 9-7 16-16 16l-96 0c-9 0-16-7-16-16l0-176-176 0c-9 0-16-7-16-16l0-96c0-9 7-16 16-16l176 0 0-176c0-9 7-16 16-16l96 0c9 0 16 7 16 16l0 176 176 0c9 0 16 7 16 16l0 96c0 9-7 16-16 16z"/>
<glyph unicode="&#48;" d="M0 512l0-512 512 0 0 512z m480-480l-448 0 0 448 448 0z m-96 368l-160-160-96 96-64-64 160-160 224 224z"/>
<glyph unicode="&#49;" d="M0 512l0-512 512 0 0 512z m480-480l-448 0 0 448 448 0z"/>
<glyph unicode="&#50;" d="M0 512l0-512 512 0 0 512z m480-480l-448 0 0 448 448 0z m-352 352l256 0 0-256-256 0z"/>
<glyph unicode="&#51;" d="M256 512c-141 0-256-115-256-256 0-141 115-256 256-256 141 0 256 115 256 256 0 141-115 256-256 256z m0-448c-106 0-192 86-192 192 0 106 86 192 192 192 106 0 192-86 192-192 0-106-86-192-192-192z m-96 192c0-53 43-96 96-96 53 0 96 43 96 96 0 53-43 96-96 96-53 0-96-43-96-96z"/>
<glyph unicode="&#52;" d="M256 512c-141 0-256-115-256-256 0-141 115-256 256-256 141 0 256 115 256 256 0 141-115 256-256 256z m0-448c-106 0-192 86-192 192 0 106 86 192 192 192 106 0 192-86 192-192 0-106-86-192-192-192z"/>
<glyph unicode="&#53;" d="M478 311c0-10-3-19-10-26l-186-186c-7-7-16-11-26-11-10 0-19 4-26 11l-186 186c-7 7-10 16-10 26 0 10 3 19 10 26l22 21c7 7 16 11 26 11 10 0 18-4 25-11l139-139 139 139c7 7 15 11 25 11 10 0 19-4 26-11l22-21c7-8 10-16 10-26z"/>
<glyph unicode="&#54;" d="M478 165c0-10-3-19-10-26l-22-21c-7-8-15-11-26-11-10 0-18 3-25 11l-139 138-139-138c-7-8-15-11-25-11-11 0-19 3-26 11l-22 21c-7 7-10 15-10 26 0 10 3 18 10 26l186 185c7 8 16 11 26 11 10 0 19-3 26-11l186-185c7-8 10-16 10-26z"/>
<glyph unicode="&#55;" d="M303 63l-186 186c-7 7-10 15-10 25 0 11 3 19 10 26l186 186c7 7 16 11 26 11 10 0 19-4 26-11l22-21c7-7 10-16 10-26 0-10-3-19-10-26l-139-139 139-138c7-7 10-16 10-26 0-10-3-19-10-26l-22-21c-7-7-16-11-26-11-10 0-19 4-26 11z"/>
<glyph unicode="&#56;" d="M405 274c0-10-3-18-10-26l-186-186c-7-7-16-10-26-10-10 0-19 3-26 10l-22 22c-7 7-10 16-10 26 0 10 3 18 10 25l139 139-139 139c-7 7-10 16-10 26 0 10 3 18 10 25l22 22c7 7 16 11 26 11 10 0 19-4 26-11l186-186c7-7 10-16 10-26z"/>
<glyph unicode="&#57;" d="M255 512c-140 0-240-101-240-254 0-135 97-258 240-258 144 0 242 123 242 258 0 154-103 254-242 254z m89-249c0-85-4-206-89-206l0 0c-83 0-87 121-87 206 0 99 10 194 87 194 77 0 89-96 89-194z"/>
<glyph unicode="&#33;" d="M367 198l118 0c1 8 1 16 1 25 0 40-10 77-29 110 19 51 19 95-7 122-25 24-92 20-167-13-5 0-11 1-16 1-103 0-190-71-214-167 33 41 67 71 112 93-4-4-28-27-32-32-120-119-158-276-117-316 31-31 87-26 151 5 30-15 64-23 100-23 96 0 178 62 208 148l-119 0c-17-30-49-50-85-50-37 0-69 20-86 50-7 14-11 30-11 46l0 1z m-193 58c3 48 43 87 93 87 49 0 89-39 92-87z m274 174c17-17 17-48 2-87-24 38-60 67-102 84 45 19 82 22 100 3z m-401-402c-22 22-15 67 12 121 18-48 51-89 94-115-48-21-87-25-106-6z"/>
<glyph unicode="&#34;" d="M256 480c-12 0-24-1-35-3-1 1-1 1-1 2 7 5 10 11 8 18-1 9-11 15-23 15-2 0-5 0-8-1-15-3-25-14-22-25 1-7 7-12 15-14 0 0 0-1 0-1-101-29-174-121-174-231 0-133 107-240 240-240 133 0 240 107 240 240 0 133-107 240-240 240z m-74 8c-1 6 7 13 17 15 2 1 4 1 6 1 8 0 15-3 16-8 0-4-2-8-6-11-4 2-8 3-13 2-4-1-8-3-10-7-5 1-9 4-10 8z m203-377c-22-22-49-37-78-46l-21 35-6-40c-8-1-16-2-24-2-49 0-94 19-129 53-22 22-37 49-46 78l35 21-40 6c-1 8-2 16-2 24 0 49 19 94 53 129 22 22 49 37 78 46l21-35 6 40c8 1 16 2 24 2 49 0 94-19 129-53 22-22 37-49 46-78l-35-21 40-6c1-8 2-16 2-24 0-49-19-94-53-129z m-5 253l-98-74c-7 3-15 6-24 6l-25 54-2-60c-6-3-12-8-17-13l-32 11 23-24c-3-7-5-14-5-22l-54-25 60-2c0 0 0-1 0-1l-74-98 98 74c7-3 15-6 24-6l25-54 2 60c6 3 12 8 17 13l32-11-23 24c3 7 5 14 5 22l54 25-60 2c0 0 0 1 0 1z m-124-74l0-2z m-10-3c3 1 7 1 10 1 2 0 4 0 6 0l0 0 0 0c5-1 9-2 13-4l-36-27-27-36c-1 3-2 6-3 9-5 26 11 51 37 57z m35-88c-4-3-10-5-15-6-3-1-7-1-10-1-2 0-4 0-6 0l0 0 0 0c-5 1-9 2-13 4l36 27 27 36c1-3 2-6 3-9 4-20-5-41-22-51z"/>
<glyph unicode="&#35;" d="M511 345l-6-38c0 0-8 70-19 97-15 40-23 40-23 40 11-27 9-42 9-42 0 0-19 51-69 68-55 18-85 13-88 12-1 0-1 0-2 0 0 0 1 0 1 0 0 0 0 0 0 0 0 0 61-11 72-26 0 0-26 0-51-7-2 0 94-12 114-108 0 0-11 22-24 26 9-26 7-76-1-100-1-3-3 14-19 21 6-37 0-95-25-112-2-1 16 58 3 35-71-109-156-50-193-24 19-4 56 0 72 13 0 0 0 0 0 0 18 12 29 21 38 19 9-3 16 7 8 15-7 9-25 20-49 14-17-4-38-23-70-4-25 14-27 27-27 35 0 3 1 6 2 8 3 8 11 11 16 12 8-1 15-3 23-7 0 2 0 5 0 9 0 2 0 6-1 11-1 5-2 10-4 15 0 0 0 0 0 0 0 0 0 0 0 0 1 0 1 0 1 0 0 0 0 0 0 0 0 1 0 1 0 1 0 2 6 6 13 11 6 5 13 9 19 13 5 3 8 5 9 6 1 0 1 0 1 1 0 0 1 0 1 0 0 0 0 0 0 0 2 2 6 6 7 15 0 0 0 0 0 0 0 0 0 0 0 0 0 1 0 1 0 1 0 0 0 0 0 0 0 1 0 1 0 1 0 0 0 0 0 0 1 1 0 2 0 3 0 1 0 1 0 1 0 0 0 1 0 1 0 0 0 0 0 0 0 0 0 0 0 0 0 0 0 0 0 0 0 0 0 0 0 0 0 0 0 0 0 0-1 2-4 3-18 3 0 0 0 0 0 0-5 0-12 0-22 0-17 0-26 16-29 23 4 22 16 38 35 49 0 0 0 0 0 0 4 2-45 0-68-28-20 5-37 4-52 1-3 0-6 0-11 1-10 9-24 26-25 46 0 0 0 0 0 0 0 0 0 0 0 0 0 0-30-23-26-87 0-1 0-2 0-3-8-11-12-20-12-22-8-15-15-37-21-71 0 0 4 13 13 28-7-19-11-48-9-93 0 0 1 10 4 24 2-27 11-61 34-101 45-77 113-116 189-122 13-1 27-1 40 0 2 0 3 1 4 1 16 1 31 3 47 7 212 51 189 308 189 308z"/>
<glyph unicode="&#36;" d="M129 289l-73 127c47 58 119 96 200 96 94 0 176-50 220-126l-209 0c-3 1-7 1-11 1-61 0-112-42-127-98z m219 60l146 0c12-28 18-60 18-93 0-140-113-254-253-256l105 181c14 22 23 47 23 75 0 37-15 70-39 93z m-185-93c0 51 42 93 93 93 51 0 93-42 93-93 0-51-42-93-93-93-51 0-93 42-93 93z m128-126l-73-127c-123 18-218 125-218 253 0 46 12 88 33 126l104-182c21-44 67-75 119-75 12 0 24 2 35 5z"/>
<glyph unicode="&#37;" d="M512 208l-96 96 0 144-64 0 0-80-96 96-256-256 0-16 64 0 0-160 160 0 0 96 64 0 0-96 160 0 0 160 64 0z"/>
<glyph unicode="&#38;" d="M160 448l0-174c-40 11-50 17-93 17-37 0-67-30-67-67 0-37 30-67 67-67 52 0 76-19 103-58 1-1 1-2 2-3l-44 0 0-96 320 0 0 96-29 0c3 32 12 41 23 51 8 8 18 19 26 37 8 20 12 45 12 80l0 32c0 31-26 57-57 57-5 0-11-1-16-2-10 9-24 15-39 15-5 0-10-1-15-2-11 10-25 15-40 15-9 0-17-2-25-5l0 74c0 35-29 64-64 64-35 0-64-29-64-64z m256-400c0-9-7-16-16-16-9 0-16 7-16 16 0 9 7 16 16 16 9 0 16-7 16-16z m-160 397l0-128 32 0 0 3c0 14 11 24 25 24 9 0 17-4 21-11l9-12 13 7c3 2 8 3 12 3 9 0 17-4 21-11l8-13 13 7c4 3 8 4 13 4 14 0 25-11 25-25l0-32c0-63-19-76-33-90-14-13-30-29-33-75l-168 0c-4 8-8 15-13 22-34 49-70 74-134 74-16 0-29 15-29 31 0 16 13 30 29 30 43 0 53-6 93-18 11-4 23-6 32-8l0 218c0 18 14 32 32 32 18 0 32-14 32-32z"/>
<glyph unicode="&#39;" d="M448 320l-174 0c11 40 17 50 17 93 0 37-30 67-67 67-37 0-67-30-67-67 0-52-19-76-58-103-1-1-2-1-3-2l0 44-96 0 0-320 96 0 0 29c32-3 41-12 51-23 8-8 19-18 37-26 20-8 45-12 80-12l32 0c31 0 57 26 57 57 0 5-1 11-2 16 9 10 15 24 15 39 0 5-1 10-2 15 10 11 15 25 15 40 0 9-2 17-5 25l74 0c35 0 64 29 64 64 0 35-29 64-64 64z m-400-256c-9 0-16 7-16 16 0 9 7 16 16 16 9 0 16-7 16-16 0-9-7-16-16-16z m397 160l-128 0 0-32 3 0c14 0 24-11 24-25 0-9-4-17-11-21l-12-9 7-13c2-3 3-8 3-12 0-9-4-17-11-21l-13-8 7-13c3-4 4-8 4-13 0-14-11-25-25-25l-32 0c-63 0-76 19-90 33-13 14-29 30-75 33l0 168c8 4 15 8 22 13 49 34 74 70 74 134 0 16 15 29 31 29 16 0 30-13 30-29 0-43-6-53-18-93-4-11-6-23-8-32l218 0c18 0 32-14 32-32 0-18-14-32-32-32z"/>
<glyph unicode="&#40;" d="M160 64l0 174c-40-11-50-17-93-17-37 0-67 30-67 67 0 37 30 67 67 67 52 0 76 19 103 58 1 1 1 2 2 3l-44 0 0 96 320 0 0-96-29 0c3-32 12-41 23-51 8-8 18-19 26-37 8-20 12-45 12-80l0-32c0-31-26-57-57-57-5 0-11 1-16 2-10-9-24-15-39-15-5 0-10 1-15 2-11-10-25-15-40-15-9 0-17 2-25 5l0-74c0-35-29-64-64-64-35 0-64 29-64 64z m256 400c0 9-7 16-16 16-9 0-16-7-16-16 0-9 7-16 16-16 9 0 16 7 16 16z m-160-397l0 128 32 0 0-3c0-14 11-24 25-24 9 0 17 4 21 11l9 12 13-7c3-2 8-3 12-3 9 0 17 4 21 11l8 13 13-7c4-3 8-4 13-4 14 0 25 11 25 25l0 32c0 63-19 76-33 90-14 13-30 29-33 75l-168 0c-4-8-8-15-13-22-34-49-70-74-134-74-16 0-29-15-29-31 0-16 13-30 29-30 43 0 53 6 93 18 11 4 23 6 32 8l0-218c0-18 14-32 32-32 18 0 32 14 32 32z"/>
<glyph unicode="&#41;" d="M64 320l174 0c-11 40-17 50-17 93 0 37 30 67 67 67 37 0 67-30 67-67 0-52 19-76 58-103 1-1 2-1 3-2l0 44 96 0 0-320-96 0 0 29c-32-3-41-12-51-23-8-8-19-18-37-26-20-8-45-12-80-12l-32 0c-31 0-57 26-57 57 0 5 1 11 2 16-9 10-15 24-15 39 0 5 1 10 2 15-10 11-15 25-15 40 0 9 2 17 5 25l-74 0c-35 0-64 29-64 64 0 35 29 64 64 64z m400-256c9 0 16 7 16 16 0 9-7 16-16 16-9 0-16-7-16-16 0-9 7-16 16-16z m-397 160l128 0 0-32-3 0c-14 0-24-11-24-25 0-9 4-17 11-21l12-9-7-13c-2-3-3-8-3-12 0-9 4-17 11-21l13-8-7-13c-3-4-4-8-4-13 0-14 11-25 25-25l32 0c63 0 76 19 90 33 13 14 29 30 75 33l0 168c-8 4-15 8-22 13-49 34-74 70-74 134 0 16-15 29-31 29-16 0-30-13-30-29 0-43 6-53 18-93 4-11 6-23 8-32l-218 0c-18 0-32-14-32-32 0-18 14-32 32-32z"/>
<glyph unicode="&#42;" d="M64 384l64 0 0-96 32 0 0 192c0 18-14 32-32 32l-64 0c-18 0-32-14-32-32l0-192 32 0z m0 96l64 0 0-64-64 0z m416 0l0 32-96 0c-18 0-32-14-32-32l0-160c0-18 14-32 32-32l96 0 0 32-96 0 0 160z m-160-48l0 48c0 18-14 32-32 32l-96 0 0-224 96 0c18 0 32 14 32 32l0 48c0 18-4 32-22 32 18 0 22 14 22 32z m-32-112l-64 0 0 64 64 0z m0 96l-64 0 0 64 64 0z m128-192l-208-224-112 144 41 35 71-74 176 151z"/>
<glyph unicode="&#43;" d="M199 53l-199 196 98 97 101-99 215 212 98-97z m-145 196l145-143 259 256-44 44-215-212-101 99z"/>
<glyph unicode="&#44;" d="M256 512c-141 0-256-115-256-256 0-141 115-256 256-256 141 0 256 115 256 256 0 141-115 256-256 256z m128-173l-83-83 83-83 0-45-45 0-83 83-83-83-45 0 0 45 83 83-83 83 0 45 45 0 83-83 83 83 45 0z"/>
<glyph unicode="&#45;" d="M256 512c-141 0-256-115-256-256 0-141 115-256 256-256 141 0 256 115 256 256 0 141-115 256-256 256z m-48-416l-106 138 47 49 59-75 185 151 23-23z"/>
<glyph unicode="&#46;" d="M368 512l-224 0-144-144 0-224 144-144 224 0 144 144 0 224z m-80-416l-64 0 0 64 64 0z m0 128l-64 0 0 192 64 0z"/>
<glyph unicode="&#47;" d="M256 512c-141 0-256-115-256-256 0-141 115-256 256-256 141 0 256 115 256 256 0 141-115 256-256 256z m-32-96l64 0 0-64-64 0z m96-320l-128 0 0 32 32 0 0 128-32 0 0 32 96 0 0-160 32 0z"/>
<glyph unicode="&#58;" d="M0 256c0-141 115-256 256-256 141 0 256 115 256 256 0 141-115 256-256 256-141 0-256-115-256-256z m448 0c0-37-10-71-28-100l-264 264c29 18 63 28 100 28 106 0 192-86 192-192z m-384 0c0 37 10 71 28 100l264-264c-29-18-63-28-100-28-106 0-192 86-192 192z"/>
<glyph unicode="&#59;" d="M267 501c-6 6-18 11-27 11l-192 0c-9 0-16-7-16-16l0-480c0-9 7-16 16-16l384 0c9 0 16 7 16 16l0 288c0 9-5 21-11 27z m149-469l-352 0 0 448 176 0c1 0 4-1 5-2l169-169c1-1 2-4 2-5z m16 480l-96 0c-9 0-11-5-5-11l106-106c6-6 11-4 11 5l0 96c0 9-7 16-16 16z"/>
<glyph unicode="&#60;" d="M421 217c-7 7-22 11-45 11-16 0-34-1-54-4-9 5-18 11-25 17-19 18-35 43-45 71 0 2 1 4 1 7 0 0 11 61 8 82 0 3 0 4-1 6l-1 2c-3 7-9 14-18 14l-5 0 0 0c-10 0-19-5-21-13-6-24 0-60 13-107l-3-8c-9-21-20-43-30-62l-1-2c-11-20-20-37-28-52l-9-4c-1-1-15-9-19-11-30-17-49-38-52-53-1-6-1-12 5-15l8-4c4-2 7-3 11-3 22 0 46 26 80 85 39 13 83 23 122 29 30-16 66-28 89-28 4 0 8 0 10 1 5 1 9 4 11 7 4 7 5 16 4 26 0 2-3 6-5 8z m-315-112c4 10 19 31 41 50 2 1 5 4 9 7-24-37-40-52-50-57z m133 307c7 0 11-17 11-33 1-16-3-27-8-36-4 13-6 32-6 45 0 0 0 24 3 24z m-40-219c5 9 10 18 15 27 12 23 20 41 26 56 11-21 26-38 42-52 2-2 5-4 7-6-34-7-64-15-90-25z m215 2c-2-1-8-2-11-2-13 0-28 6-49 15 8 1 15 1 22 1 12 0 16 0 28-3 12-3 13-10 10-11z m38 217l-72 72c-15 15-46 28-68 28l-240 0c-22 0-40-18-40-40l0-432c0-22 18-40 40-40l368 0c22 0 40 18 40 40l0 304c0 22-13 53-28 68z m-23-22c2-2 3-4 5-6l-82 0 0 82c2-2 4-3 6-5z m19-350c0-4-4-8-8-8l-368 0c-4 0-8 4-8 8l0 432c0 4 4 8 8 8l240 0c2 0 5 0 8-1l0-127 127 0c1-3 1-6 1-8z"/>
<glyph unicode="&#61;" d="M345 276c-30 14-69 17-97-3 34 3 72-2 97-28 24 27 62 32 97 29-29 20-67 17-97 2z m-12-67c-34 1-67-11-96-30-53 23-121 19-167-19 13 0 26 3 39 5 48 5 99-7 135-40 14 22 35 39 59 50 32 15 67 17 102 17-21 15-48 17-72 17z m119 203l-72 72c-15 15-46 28-68 28l-240 0c-22 0-40-18-40-40l0-432c0-22 18-40 40-40l368 0c22 0 40 18 40 40l0 304c0 22-13 53-28 68z m-23-22c2-2 3-4 5-6l-82 0 0 82c2-2 4-3 6-5z m19-350c0-4-4-8-8-8l-368 0c-4 0-8 4-8 8l0 432c0 4 4 8 8 8l240 0c2 0 5 0 8-1l0-127 127 0c1-3 1-6 1-8z"/>
<glyph unicode="&#62;" d="M320 274l22 0-26-113-33 159-53 0-39-159-28 159-56 0 56-256 55 0 38 151 34-151 50 0 65 256-85 0z m132 138l-72 72c-15 15-46 28-68 28l-240 0c-22 0-40-18-40-40l0-432c0-22 18-40 40-40l368 0c22 0 40 18 40 40l0 304c0 22-13 53-28 68z m-23-22c2-2 3-4 5-6l-82 0 0 82c2-2 4-3 6-5z m19-350c0-4-4-8-8-8l-368 0c-4 0-8 4-8 8l0 432c0 4 4 8 8 8l240 0c2 0 5 0 8-1l0-127 127 0c1-3 1-6 1-8z"/>
<glyph unicode="&#63;" d="M372 320l-68 0-48-71-48 71-68 0 82-121-92-135 131 0 0 46-30 0 25 37 56-83 70 0-92 135z m80 92l-72 72c-15 15-46 28-68 28l-240 0c-22 0-40-18-40-40l0-432c0-22 18-40 40-40l368 0c22 0 40 18 40 40l0 304c0 22-13 53-28 68z m-23-22c2-2 3-4 5-6l-82 0 0 82c2-2 4-3 6-5z m19-350c0-4-4-8-8-8l-368 0c-4 0-8 4-8 8l0 432c0 4 4 8 8 8l240 0c2 0 5 0 8-1l0-127 127 0c1-3 1-6 1-8z"/>
<glyph unicode="&#64;" d="M208 448l48 0 0-32-48 0z m-48-32l48 0 0-32-48 0z m48-32l48 0 0-32-48 0z m-48-32l48 0 0-32-48 0z m48-32l48 0 0-32-48 0z m-48-32l48 0 0-32-48 0z m48-32l0-32-48 0 0-112c0-9 7-16 16-16l64 0c9 0 16 7 16 16l0 144z m32-128l-64 0 0 32 64 0z m212 284l-72 72c-15 15-46 28-68 28l-240 0c-22 0-40-18-40-40l0-432c0-22 18-40 40-40l368 0c22 0 40 18 40 40l0 304c0 22-13 53-28 68z m-23-22c2-2 3-4 5-6l-82 0 0 82c2-2 4-3 6-5z m19-350c0-4-4-8-8-8l-368 0c-4 0-8 4-8 8l0 432c0 4 4 8 8 8l240 0c2 0 5 0 8-1l0-127 127 0c1-3 1-6 1-8z"/>
<glyph unicode="&#91;" d="M96 256l96 0 0-32-96 0z m0-64l96 0 0-32-96 0z m0-64l96 0 0-32-96 0z m356 284l-72 72c-15 15-46 28-68 28l-240 0c-22 0-40-18-40-40l0-432c0-22 18-40 40-40l368 0c22 0 40 18 40 40l0 304c0 22-13 53-28 68z m-23-22c2-2 3-4 5-6l-82 0 0 82c2-2 4-3 6-5z m19-350c0-4-4-8-8-8l-368 0c-4 0-8 4-8 8l0 432c0 4 4 8 8 8l240 0c2 0 5 0 8-1l0-127 127 0c1-3 1-6 1-8z m-160 120l94 0c-7-37-39-64-78-64-44 0-80 36-80 80 0 39 27 71 64 78z m48 128c44 0 80-36 80-80 0-5-1-11-2-16l-94 0 0 94c5 1 11 2 16 2z"/>
<glyph unicode="&#93;" d="M224 224l-32 32-96-96 96-96 32 32-64 64z m64-128l32-32 96 96-96 96-32-32 64-64z m164 316l-72 72c-15 15-46 28-68 28l-240 0c-22 0-40-18-40-40l0-432c0-22 18-40 40-40l368 0c22 0 40 18 40 40l0 304c0 22-13 53-28 68z m-23-22c2-2 3-4 5-6l-82 0 0 82c2-2 4-3 6-5z m19-350c0-4-4-8-8-8l-368 0c-4 0-8 4-8 8l0 432c0 4 4 8 8 8l240 0c2 0 5 0 8-1l0-127 127 0c1-3 1-6 1-8z"/>
<glyph unicode="&#94;" d="M192 206l0 57c0 8 3 15 9 21 7 5 15 8 23 8l0 28c-35 0-64-25-64-57l0-42c0-8-7-15-16-15l-16 0 0-28 16 0c9 0 16-7 16-15l0-42c0-32 29-58 64-58l0 29c-8 0-16 3-23 8-6 6-9 13-9 21l0 57c0 8-7 14-16 14 9 0 16 6 16 14z m128-28l0-57c0-8-3-15-9-21-7-5-15-8-23-8l0-29c35 0 64 26 64 58l0 42c0 8 7 15 16 15l16 0 0 28-16 0c-9 0-16 7-16 15l0 42c0 32-29 57-64 57l0-28c8 0 16-3 23-8 6-6 9-13 9-21l0-57c0-8 7-14 16-14-9 0-16-6-16-14z m132 234l-72 72c-15 15-46 28-68 28l-240 0c-22 0-40-18-40-40l0-432c0-22 18-40 40-40l368 0c22 0 40 18 40 40l0 304c0 22-13 53-28 68z m-23-22c2-2 3-4 5-6l-82 0 0 82c2-2 4-3 6-5z m19-350c0-4-4-8-8-8l-368 0c-4 0-8 4-8 8l0 432c0 4 4 8 8 8l240 0c2 0 5 0 8-1l0-127 127 0c1-3 1-6 1-8z"/>
<glyph unicode="&#95;" d="M416 426c38 0 73 21 96 36l0-297c-23-16-58-37-96-37-38 0-73 11-96 27-23 16-58 27-96 27-38 0-73-19-96-35l0 298c23 16 58 35 96 35 38 0 73-11 96-27 23-16 58-27 96-27z m-352 86c18 0 32-14 32-32l0-480-64 0 0 480c0 18 14 32 32 32z"/>
<glyph unicode="&#96;" d="M224 448l0 8c0 13-11 24-24 24l-80 0c-13 0-24-11-24-24l0-8-96 0 0-64 96 0 0-8c0-13 11-24 24-24l80 0c13 0 24 11 24 24l0 8 288 0 0 64z m-96-64l0 64 64 0 0-64z m288-88c0 13-11 24-24 24l-80 0c-13 0-24-11-24-24l0-8-288 0 0-64 288 0 0-8c0-13 11-24 24-24l80 0c13 0 24 11 24 24l0 8 96 0 0 64-96 0z m-96-72l0 64 64 0 0-64z m-96-88c0 13-11 24-24 24l-80 0c-13 0-24-11-24-24l0-8-96 0 0-64 96 0 0-8c0-13 11-24 24-24l80 0c13 0 24 11 24 24l0 8 288 0 0 64-288 0z m-96-72l0 64 64 0 0-64z"/>
<glyph unicode="&#123;" d="M448 288l8 0c13 0 24 11 24 24l0 80c0 13-11 24-24 24l-8 0 0 96-64 0 0-96-8 0c-13 0-24-11-24-24l0-80c0-13 11-24 24-24l8 0 0-288 64 0z m-64 96l64 0 0-64-64 0z m-88-288c13 0 24 11 24 24l0 80c0 13-11 24-24 24l-8 0 0 288-64 0 0-288-8 0c-13 0-24-11-24-24l0-80c0-13 11-24 24-24l8 0 0-96 64 0 0 96z m-72 96l64 0 0-64-64 0z m-88 96c13 0 24 11 24 24l0 80c0 13-11 24-24 24l-8 0 0 96-64 0 0-96-8 0c-13 0-24-11-24-24l0-80c0-13 11-24 24-24l8 0 0-288 64 0 0 288z m-72 96l64 0 0-64-64 0z"/>
<glyph unicode="&#124;" d="M446 418l-60 60c-19 19-56 34-82 34l-224 0c-26 0-48-22-48-48l0-416c0-26 22-48 48-48l352 0c26 0 48 22 48 48l0 288c0 26-15 63-34 82z m-126 26c1 0 2-1 3-1 9-4 16-8 18-10l60-60c2-2 6-9 10-18 0-1 1-2 1-3l-92 0z m96-380l-320 0 0 384 192 0 0-128 128 0z"/>
<glyph unicode="&#125;" d="M446 418l-60 60c-19 19-56 34-82 34l-224 0c-26 0-48-22-48-48l0-416c0-26 22-48 48-48l352 0c26 0 48 22 48 48l0 288c0 26-15 63-34 82z m-126 26c1 0 2-1 3-1 9-4 16-8 18-10l60-60c2-2 6-9 10-18 0-1 1-2 1-3l-92 0z m96-380l-320 0 0 384 192 0 0-128 128 0z m-288 192l256 0 0-32-256 0z m0-64l256 0 0-32-256 0z m0-64l256 0 0-32-256 0z"/>
<glyph unicode="&#126;" d="M432 512l-384 0c-26 0-48-22-48-48l0-416c0-26 22-48 48-48l384 0c26 0 48 22 48 48l0 416c0 26-22 48-48 48z m-16-448l-352 0 0 384 352 0z m-288 160l224 0 0-32-224 0z m0-64l224 0 0-32-224 0z m32 208c0-27 21-48 48-48 27 0 48 21 48 48 0 27-21 48-48 48-27 0-48-21-48-48z m80-48l-64 0c-26 0-48-14-48-32l0-32 160 0 0 32c0 18-22 32-48 32z"/>
<glyph unicode="&#92;" d="M432 512l-384 0c-26 0-48-22-48-48l0-416c0-26 22-48 48-48l384 0c26 0 48 22 48 48l0 416c0 26-22 48-48 48z m-16-448l-352 0 0 384 352 0z m-288 224l224 0 0-32-224 0z m0-64l224 0 0-32-224 0z m0-64l224 0 0-32-224 0z m0 192l224 0 0-32-224 0z"/>
<glyph unicode="&#57344;" d="M452 412l-72 72c-15 15-46 28-68 28l-240 0c-22 0-40-18-40-40l0-432c0-22 18-40 40-40l368 0c22 0 40 18 40 40l0 304c0 22-13 53-28 68z m-23-22c2-2 3-4 5-6l-82 0 0 82c2-2 4-3 6-5z m19-350c0-4-4-8-8-8l-368 0c-4 0-8 4-8 8l0 432c0 4 4 8 8 8l240 0c2 0 5 0 8-1l0-127 127 0c1-3 1-6 1-8z"/>
<glyph unicode="&#57345;" d="M432 448l-32 0 0-32 16 0 0-256-128 0 0-128-192 0 0 384 16 0 0 32-32 0c-9 0-16-7-16-16l0-416c0-9 7-16 16-16l252 0 116 116 0 316c0 9-7 16-16 16z m-112-416l0 96 96 0z m64 416l-64 0 0 32c0 18-14 32-32 32l-64 0c-18 0-32-14-32-32l0-32-64 0 0-64 256 0z m-96 0l-64 0 0 32c0 0 0 0 0 0l64 0c0 0 0 0 0 0z"/>
<glyph unicode="&#57346;" d="M416 384l-96 0 0 32-96 96-224 0 0-384 192 0 0-128 320 0 0 288z m0-45l51-51-51 0z m-192 128l51-51-51 0z m-192 13l160 0 0-96 96 0 0-224-256 0z m448-448l-256 0 0 96 96 0 0 224 64 0 0-96 96 0z"/>
<glyph unicode="&#57347;" d="M320 384l0 128-224 0-96-96 0-288 192 0 0-128 320 0 0 384z m-224 83l0-51-51 0z m-64-307l0 224 96 0 0 96 160 0 0-96-96-96 0-128z m256 179l0-51-51 0z m192-307l-256 0 0 224 96 0 0 96 160 0z"/>
<glyph unicode="&#57348;" d="M352 448l-64 0 0 32c0 18-14 32-32 32l-64 0c-18 0-32-14-32-32l0-32-64 0 0-64 256 0z m-96 0l-64 0 0 32c0 0 0 0 0 0l64 0c0 0 0 0 0 0z m160-96l0 80c0 9-7 16-16 16l-32 0 0-32 16 0 0-64-192 0 0-224-128 0 0 288 16 0 0 32-32 0c-9 0-16-7-16-16l0-320c0-9 7-16 16-16l144 0 0-96 224 0 96 96 0 256z m0-307l0 51 51 0z m64 83l-96 0 0-96-160 0 0 288 256 0z"/>
<glyph unicode="&#57349;" d="M416 352l0 80c0 9-7 16-16 16l-112 0 0 32c0 18-14 32-32 32l-64 0c-18 0-32-14-32-32l0-32-112 0c-9 0-16-7-16-16l0-320c0-9 7-16 16-16l144 0 0-96 224 0 96 96 0 256z m-224 128c0 0 0 0 0 0l64 0c0 0 0 0 0 0l0-32-64 0z m-96-96l0 32 256 0 0-32z m320-339l0 51 51 0z m64 83l-96 0 0-96-160 0 0 288 256 0z"/>
<glyph unicode="&#57350;" d="M352 448l-64 0 0 32c0 18-14 32-32 32l-64 0c-18 0-32-14-32-32l0-32-64 0 0-64 256 0z m-96 0l-64 0 0 32c0 0 0 0 0 0l64 0c0 0 0 0 0 0z m160-96l0 80c0 9-7 16-16 16l-32 0 0-32 16 0 0-64-96 0-96-96 0-128-128 0 0 288 16 0 0 32-32 0c-9 0-16-7-16-16l0-320c0-9 7-16 16-16l144 0 0-96 320 0 0 352z m-128-45l0-51-51 0z m192-275l-256 0 0 192 96 0 0 96 160 0z"/>
<glyph unicode="&#57351;" d="M256 448l-160-107 320 0z m197-363l-37 64 0 150c0 12-9 21-21 21l-278 0c-11 0-21-9-21-21l0-150-37-64c-3-5-6-7-6-10 0-11 14-11 22-11l362 0c8 0 22 0 22 11 0 3-2 4-6 10z m-272 43l-42 0 0 128c0 12 9 21 21 21 12 0 19-9 21-21z m96 43l0-43-42 0 0 128c0 12 9 21 21 21 12 0 22-9 21-21z m96-43l-42 0 0 128c0 12 9 21 21 21 12 0 21-9 21-21z"/>
<glyph unicode="&#57352;" d="M96 267c0 0-21 0-21-22 0-49 0-149 0-149l42 0c0 0 0 100 0 149 0 22-21 22-21 22z m320 0c0 0-21 0-21-22 0-49 0-149 0-149l42 0c0 0 0 100 0 149 0 22-21 22-21 22z m-107 68c0 13 0 25 0 38 0 22-53 43-53 43 0 0-53-21-53-43 0-14 0-29 0-42 0-22-43-22-43-43 0-50 0-192 0-192l192 0c0 0 0 142 0 192 0 21-43 21-43 47z"/>
<glyph unicode="&#57353;" d="M416 320l-43 0c0 0 0 57 0 85 0 11-11 22-21 22-10 0-21-11-21-22 0-28 0-85 0-85l-64 0 0 64-86-64 0 64-85-64c-9-7-21-11-21-32l0-181c0-12 9-22 21-22l320 0c12 0 21 10 21 22l0 192c0 12-9 21-21 21z"/>
<glyph unicode="&#57354;" d="M395 459l-278 0c-10 0-21-11-21-22l0-384 139 0 0 64 42 0 0-64 139 0 0 384c0 11-11 22-21 22z m-171-299l-64 0 0 21 64 0z m0 64l-64 0 0 21 64 0z m0 64l-64 0 0 21 64 0z m0 64l-64 0 0 21 64 0z m128-192l-64 0 0 21 64 0z m0 64l-64 0 0 21 64 0z m0 64l-64 0 0 21 64 0z m0 64l-64 0 0 21 64 0z"/>
<glyph unicode="&#57355;" d="M165 137l0-18c0-3-1-5-3-7-2-1-4-2-7-2l-18 0c-2 0-4 1-6 2-2 2-3 4-3 7l0 18c0 3 1 5 3 7 2 1 4 2 6 2l18 0c3 0 5-1 7-2 2-2 3-4 3-7z m0 73l0-18c0-2-1-5-3-6-2-2-4-3-7-3l-18 0c-2 0-4 1-6 3-2 1-3 4-3 6l0 18c0 3 1 5 3 7 2 2 4 2 6 2l18 0c3 0 5 0 7-2 2-2 3-4 3-7z m73 0l0-18c0-2-1-5-3-6-2-2-4-3-6-3l-19 0c-2 0-4 1-6 3-2 1-3 4-3 6l0 18c0 3 1 5 3 7 2 2 4 2 6 2l19 0c2 0 4 0 6-2 2-2 3-4 3-7z m-73 73l0-18c0-2-1-4-3-6-2-2-4-3-7-3l-18 0c-2 0-4 1-6 3-2 2-3 4-3 6l0 18c0 3 1 5 3 7 2 2 4 3 6 3l18 0c3 0 5-1 7-3 2-2 3-4 3-7z m219-146l0-18c0-3-1-5-3-7-2-1-4-2-6-2l-18 0c-3 0-5 1-7 2-2 2-3 4-3 7l0 18c0 3 1 5 3 7 2 1 4 2 7 2l18 0c2 0 4-1 6-2 2-2 3-4 3-7z m-73 73l0-18c0-2-1-5-3-6-2-2-4-3-6-3l-19 0c-2 0-4 1-6 3-2 1-3 4-3 6l0 18c0 3 1 5 3 7 2 2 4 2 6 2l19 0c2 0 4 0 6-2 2-2 3-4 3-7z m-73 73l0-18c0-2-1-4-3-6-2-2-4-3-6-3l-19 0c-2 0-4 1-6 3-2 2-3 4-3 6l0 18c0 3 1 5 3 7 2 2 4 3 6 3l19 0c2 0 4-1 6-3 2-2 3-4 3-7z m-73 74l0-19c0-2-1-4-3-6-2-2-4-3-7-3l-18 0c-2 0-4 1-6 3-2 2-3 4-3 6l0 19c0 2 1 4 3 6 2 2 4 3 6 3l18 0c3 0 5-1 7-3 2-2 3-4 3-6z m219-147l0-18c0-2-1-5-3-6-2-2-4-3-6-3l-18 0c-3 0-5 1-7 3-2 1-3 4-3 6l0 18c0 3 1 5 3 7 2 2 4 2 7 2l18 0c2 0 4 0 6-2 2-2 3-4 3-7z m-73 73l0-18c0-2-1-4-3-6-2-2-4-3-6-3l-19 0c-2 0-4 1-6 3-2 2-3 4-3 6l0 18c0 3 1 5 3 7 2 2 4 3 6 3l19 0c2 0 4-1 6-3 2-2 3-4 3-7z m-73 74l0-19c0-2-1-4-3-6-2-2-4-3-6-3l-19 0c-2 0-4 1-6 3-2 2-3 4-3 6l0 19c0 2 1 4 3 6 2 2 4 3 6 3l19 0c2 0 4-1 6-3 2-2 3-4 3-6z m-73 73l0-19c0-2-1-4-3-6-2-2-4-3-7-3l-18 0c-2 0-4 1-6 3-2 2-3 4-3 6l0 19c0 2 1 4 3 6 2 2 4 3 6 3l18 0c3 0 5-1 7-3 2-2 3-4 3-6z m219-147l0-18c0-2-1-4-3-6-2-2-4-3-6-3l-18 0c-3 0-5 1-7 3-2 2-3 4-3 6l0 18c0 3 1 5 3 7 2 2 4 3 7 3l18 0c2 0 4-1 6-3 2-2 3-4 3-7z m-73 74l0-19c0-2-1-4-3-6-2-2-4-3-6-3l-19 0c-2 0-4 1-6 3-2 2-3 4-3 6l0 19c0 2 1 4 3 6 2 2 4 3 6 3l19 0c2 0 4-1 6-3 2-2 3-4 3-6z m-73 73l0-19c0-2-1-4-3-6-2-2-4-3-6-3l-19 0c-2 0-4 1-6 3-2 2-3 4-3 6l0 19c0 2 1 4 3 6 2 2 4 3 6 3l19 0c2 0 4-1 6-3 2-2 3-4 3-6z m146-73l0-19c0-2-1-4-3-6-2-2-4-3-6-3l-18 0c-3 0-5 1-7 3-2 2-3 4-3 6l0 19c0 2 1 4 3 6 2 2 4 3 7 3l18 0c2 0 4-1 6-3 2-2 3-4 3-6z m-73 73l0-19c0-2-1-4-3-6-2-2-4-3-6-3l-19 0c-2 0-4 1-6 3-2 2-3 4-3 6l0 19c0 2 1 4 3 6 2 2 4 3 6 3l19 0c2 0 4-1 6-3 2-2 3-4 3-6z m73 0l0-19c0-2-1-4-3-6-2-2-4-3-6-3l-18 0c-3 0-5 1-7 3-2 2-3 4-3 6l0 19c0 2 1 4 3 6 2 2 4 3 7 3l18 0c2 0 4-1 6-3 2-2 3-4 3-6z m-73-393l110 0 0 438-330 0 0-438 110 0 0 64c0 2 1 4 3 6 2 2 4 3 6 3l92 0c2 0 4-1 6-3 2-2 3-4 3-6z m146 457l0-476c0-5-2-9-5-13-4-3-8-5-13-5l-366 0c-5 0-9 2-13 5-3 4-5 8-5 13l0 476c0 5 2 9 5 13 4 3 8 5 13 5l366 0c5 0 9-2 13-5 3-4 5-8 5-13z"/>
</font>
</defs>
</svg>
