<?xml version="1.0" standalone="no"?>
<!DOCTYPE svg PUBLIC "-//W3C//DTD SVG 1.1//EN" "http://www.w3.org/Graphics/SVG/1.1/DTD/svg11.dtd" >
<svg xmlns="http://www.w3.org/2000/svg">
<metadata>
This is a custom SVG font generated by IcoMoon.
<iconset grid="32"></iconset>
</metadata>
<defs>
<font id="oz" horiz-adv-x="1024" >
<font-face units-per-em="1024" ascent="960" descent="-64" />
<missing-glyph horiz-adv-x="1024" />
<glyph class="hidden" unicode="&#xf060;" d="M0,960L 1024 -64L0 -64 z" horiz-adv-x="0" />
<glyph unicode="&#xe000;" d="M 1024,369.556 L 512,766.982 L 0,369.554 L 0,531.592 L 512,929.018 L 1024,531.59 ZM 896,384 L 896,0 L 640,0 L 640,256 L 384,256 L 384,0 L 128,0 L 128,384 L 512,672 Z"  />
<glyph unicode="&#xb6;" d="M 960,832l-64,0 l0-832 q0-26 -19-45t-45.5-19t-45,19t-18.5,45l0,832 l-256,0 l0-832 q0-26 -19-45t-45.5-19t-45,19t-18.5,45l0,320 l-64,0 q-87,0 -160.5,43t-116.5,116.5t-43,160.5t 43,160.5t 116.5,116.5t 160.5,43l 640,0 q 26,0 45-18.5t 19-45t-18.5-45.5t-45.5-19z"  />
<glyph unicode="&#xd7;" d="M 701,448l 303-304q 20-20 20-47.5t-20-46.5l-94-94q-19-20 -47-20t-47,20l-304,303l-304-303q-19-20 -47-20t-47,20l-94,94q-20,19 -20,46.5t 20,47.5l 303,304l-303,303q-20,20 -20,47.5t 20,47.5l 94,94q 19,19 47,19t 47-19l 304-304l 304,304q 19,19 47,19t 47-19
l 94-94q 20-20 20-47.5t-20-47.5z"  />
<glyph unicode="&#xf7;" d="M 960,320l-896,0 q-27,0 -45.5,19t-18.5,45l0,128 q0,27 19,45.5t 45,18.5l 896,0 q 27,0 45.5-18.5t 18.5-45.5l0-128 q0-26 -18.5-45t-45.5-19zM 576,704l-128,0 q-27,0 -45.5,19t-18.5,45l0,128 q0,27 19,45.5t 45,18.5l 128,0 q 27,0 45.5-18.5t 18.5-45.5l0-128 q0-26 -18.5-45t-45.5-19z
M 448,192l 128,0 q 27,0 45.5-18.5t 18.5-45.5l0-128 q0-27 -19-45.5t-45-18.5l-128,0 q-27,0 -45.5,19t-18.5,45l0,128 q0,27 19,45.5t 45,18.5z"  />
<glyph unicode="&#x1c0;" d="M 768-64q-51,0 -100,21t-94.5,60.5t-81,79.5t-76.5,95q-17,23 -42,49.5t-65,61.5t-88,58t-93,23l-96,0 q-13,0 -22.5,9.5t-9.5,22.5t 9.5,22.5t 22.5,9.5l 96,0 q 37,0 55.5-0.5t 52.5-2.5t 54.5-7t 50-14t 51-22.5t 45-34t 43.5-47.5q 25-34 79.5-81t 80.5-47q 64,0 64,64l0,128 
q0,26 18.5,45t 45.5,19l 192,0 q 26,0 45-19t 19-45l0-192 q0-106 -75-181t-181-75zM 896,704q0-36 9-83q 1-5 18-40.5t 25-68.5l-58,0 q-9,42 -26,64q-23,24 -27.5,47.5t-4.5,80.5q0,80 37.5,136t 90.5,56q-38-15 -51-64t-13-128zM 704,755q0-38 9-89q 50-56 54-154l-63,0 
q0,64 -9,76q-55,62 -55,167q0,85 37.5,145t 90.5,60q 15,0 32-7q-42-18 -69-72.5t-27-125.5z"  />
<glyph unicode="&#x2da;" d="M 960,384q0-91 -35.5-174t-95.5-143t-143-95.5t-174-35.5t-174,35.5t-143,95.5t-95.5,143t-35.5,174q0,163 103.5,286.5t 260.5,153.5l-108,72l 128,64l 128,0 l 128-64l-108-72q 157-30 260.5-153.5t 103.5-286.5zM 512,704q-87,0 -160.5-43t-116.5-116.5t-43-160.5
t 43-160.5t 116.5-116.5t 160.5-43t 160.5,43t 116.5,116.5t 43,160.5t-43,160.5t-116.5,116.5t-160.5,43z"  />
<glyph unicode="&#x2020;" d="M 1014-3l-51-51q-10-10 -24.5-10t-25.5,10l-328,329l-77-78q-6-5 -14-5t-13,5l-28,27q-5,6 -5,14t 5,14l 29,29l-226,199q-75,75 -161,229.5t-95,250.5q 11-13 27-29t 37.5-36.5t 31.5-30.5q 73-73 154-123.5t 99-32.5l 0.5,0.5t 0.5,1.5l 281-281l 13,14q 6,5 14,5
t 14-5l 27-28q 6-5 6-13t-6-14l-13-13l 328-328q 10-11 10-25.5t-10-24.5z"  />
<glyph unicode="&#x2040;" d="M 702,899l-124-143l 121-570q 6-16 8-22.5t 0.5-14.5t-8.5-15l-156-187q-10-11 -25.5-11t-26.5,11l-155,187q-10,13 -9.5,21.5t 9.5,30.5l 121,571l-123,142q-13,12 -6.5,36.5t 28.5,24.5l 325,0 q 22,0 27.5-24.5t-6.5-36.5z"  />
<glyph unicode="&#x20ac;" d="M 896.5,576q-26.5,0 -45.5,18.5t-19,45.5q-21,83 -94,137.5t-162,54.5q-88,0 -157-54t-91-138l 184,0 q 27,0 45.5-19t 18.5-45.5t-18.5-45t-45.5-18.5l-192,0 l0-128 l 192,0 q 27,0 45.5-19t 18.5-45.5t-18.5-45t-45.5-18.5l-184,0 q 22-84 91-138t 157-54q 89,0 162,54.5
t 94,137.5q0,26 19,45t 45.5,19t 45-19t 18.5-45q0-23 -15-41q-35-122 -137-200.5t-232-78.5q-142,0 -248.5,91.5t-129.5,228.5l-70,0 q-27,0 -45.5,18.5t-18.5,45t 18.5,45.5t 45.5,19l 64,0 l0,128 l-64,0 q-27,0 -45.5,18.5t-18.5,45t 18.5,45.5t 45.5,19l 70,0 q 23,137 129.5,228.5
t 248.5,91.5q 130,0 232-78.5t 137-200.5q 15-18 15-41q0-27 -18.5-45.5t-45-18.5z"  />
<glyph unicode="&#x21b8;" d="M 1004.5,404.5q-19.5-19.5 -47-19.5t-46.5,19l-15,15l0-419 q0-26 -18.5-45t-45.5-19l-192,0 l0,288 q0,13 -9.5,22.5t-22.5,9.5l-192,0 q-13,0 -22.5-9.5t-9.5-22.5l0-288 l-192,0 q-27,0 -45.5,19t-18.5,45l0,419 l-15-15q-19-19 -46.5-19t-47,19.5t-19.5,47t 19,46.5l 444,444
q 20,20 49,19q 29,1 49-19l 444-444q 19-19 19-46.5t-19.5-47z"  />
<glyph unicode="&#x21ea;" d="M 933,447l-166,0 l0-191 q0-27 -18.5-45.5t-44.5-18.5l-384,0 q-26,0 -45,18.5t-19,45.5l0,191 l-164,0 q-12,0 -20,13t-7,31t 13,30l 389,420q 18,19 45,19t 46-19l 388-420q 12-12 13.5-30t-6.5-31t-20-13zM 320,129l 384,0 q 26,0 44.5-19t 18.5-45l0-65 q0-26 -18.5-45t-44.5-19l-384,0 
q-26,0 -45,18.5t-19,45.5l0,65 q0,26 19,45t 45,19z"  />
<glyph unicode="&#x2207;" d="M 896-64l-768,0 q-53,0 -90.5,37.5t-37.5,90.5l0,768 q0,53 37.5,90.5t 90.5,37.5l 768,0 q 53,0 90.5-37.5t 37.5-90.5l0-768 q0-53 -37.5-90.5t-90.5-37.5zM 704,192l-64,0 l0,64 l 64,0 l0,64 l-64,0 l0,64 l 64,0 l0,64 l-64,0 l0,64 l 64,0 l0,64 l-64,0 l0,64 l 64,0 l0,64 l-64,0 l0,64 l 64,0 l0,64 l-64,0 l0-64 l-64,0 l0,64 l-64,0 l0-64 l-64,0 l0,64 l-288,0 
q-13,0 -22.5-9.5t-9.5-22.5l0-704 q0-13 9.5-22.5t 22.5-9.5l 224,0 l0,64 l 64,0 l0-64 l 64,0 l0,64 l 64,0 l0-64 l 64,0 l0,64 l 64,0 l0,64 zM 576,128l0,64 l 64,0 l0-64 l-64,0 zM 576,320l 64,0 l0-64 l-64,0 l0,64 zM 576,448l 64,0 l0-64 l-64,0 l0,64 zM 576,576l 64,0 l0-64 l-64,0 l0,64 zM 576,704l 64,0 l0-64 l-64,0 l0,64 zM 512,704l0,64 l 64,0 l0-64 l-64,0 zM 384,704l0,64 l 64,0 
l0-64 l-64,0 zM 512,192l0-64 l-64,0 l0,64 l 64,0 zM 512,256l 64,0 l0-64 l-64,0 l0,64 zM 512,384l 64,0 l0-64 l-64,0 l0,64 zM 512,512l 64,0 l0-64 l-64,0 l0,64 zM 512,640l 64,0 l0-64 l-64,0 l0,64 zM 448,640l0,64 l 64,0 l0-64 l-64,0 zM 512,512l-64,0 l0,64 l 64,0 l0-64 zM 512,384l-64,0 l0,64 l 64,0 l0-64 zM 512,256l-64,0 l0,64 l 64,0 l0-64 zM 384,192l0,64 l 64,0 l0-64 l-64,0 zM 384,320l0,64 l 64,0 
l0-64 l-64,0 zM 384,448l0,64 l 64,0 l0-64 l-64,0 zM 384,576l0,64 l 64,0 l0-64 l-64,0 z"  />
<glyph unicode="&#x2212;" d="M 1024,512l0-128 q0-27 -19-45.5t-45-18.5l-896,0 q-26,0 -45,18.5t-19,45.5l0,128 q0,26 18.5,45t 45.5,19l 896,0 q 26,0 45-19t 19-45z"  />
<glyph unicode="&#x221e;" d="M 768,192q-97,0 -256,153q-159-153 -256-153q-106,0 -181,75t-75,181t 75,181t 181,75q 98,0 256-153q 159,153 256,153q 106,0 181-75t 75-181t-75-181t-181-75zM 256,576q-57,0 -92.5-37t-35.5-91t 35.5-91t 92.5-37q 22,0 46.5,13t 44,32t 35.5,38t 25,32l 9,13
q-3,5 -9,13.5t-24.5,31t-36.5,39t-43,30.5t-47,14zM 768,576q-22,0 -46.5-13t-44-32t-35.5-38t-25-32l-9-13q 3-5 9-14t 24.5-31t 36.5-38.5t 43-30.5t 47-14q 57,0 92.5,37t 35.5,91t-35.5,91t-92.5,37z"  />
<glyph unicode="&#x2229;" d="M 960,576l-384,0 l0-64 l 256,0 l 0.5,0 l 1.5,0 q 34-1 43-10l 137-94q 10-10 10-24t-10-24l-137-94q-10-10 -45-10l-256,0 l0-256 q0-26 -18.5-45t-45.5-19t-45.5,19t-18.5,45l0,256 l-384,0 q-26,0 -45,19t-19,45l0,128 q0,26 19,45t 45,19l 384,0 l0,64 l-256,0 q-35,0 -45,10l-137,94q-10,10 -10,24
t 10,24l 137,94q 9,10 43,10l 1.5,0 l 0.5,0 l 256,0 l0,64 q0,26 18.5,45t 45.5,19t 45.5-19t 18.5-45l0-64 l 384,0 q 26,0 45-18.5t 19-45.5l0-128 q0-27 -19-45.5t-45-18.5z"  />
<glyph unicode="&#x22b7;" d="M0-64l0,1025 l 1024,0 l0-1025 l-1024,0 zM 960,897l-896,0 l0-769 l 896,0 l0,769 zM 256,833q 53,0 90.5-37.5t 37.5-90.5t-37.5-90.5t-90.5-37.5t-90.5,37t-37.5,90l0,1 q0,53 37.5,90.5t 90.5,37.5zM 367,431l 238-239l-477,0 l0,93 l 146,146q 18,18 46.5,18t 46.5-18zM 690,623q 18,19 46.5,19t 46.5-19
l 113-113l0-318 l-204,0 q0,1 -1.5,3.5t-2.5,4.5l-211,210z"  />
<glyph unicode="&#x22d4;" d="M 990.5-30.5q-25.5-25.5 -58.5-32t-70.5,9.5t-72.5,54l-290,340q-64-30 -136.5-17.5t-125.5,65.5l-221,222q-16,15 -16,37.5t 16,38.5t 38.5,16t 37.5-16l 234-234q 38,9 73,30l-255,255q-16,16 -16,38.5t 16,38.5t 38,16t 38-16l 256-255q 21,34 30,72l-234,234
q-16,16 -16,38.5t 15.5,38t 38,15.5t 38.5-16l 223-220q 52-53 64.5-126t-17.5-137l 340-288q 38-34 54.5-72t 10-71t-32-58.5z"  />
<glyph unicode="&#x2407;" d="M 960,0l-338,0 q-17-29 -46-46.5t-64-17.5t-64,17.5t-46,46.5l-338,0 q-27,0 -45.5,19t-18.5,45l0,64 q 53,0 90.5,75t 37.5,181l0,128 q0,142 91.5,248.5t 228.5,129.5l0,6 q0,27 19,45.5t 45,18.5t 45-18.5t 19-45.5l0-6 q 137-23 228.5-129.5t 91.5-248.5l0-128 q0-106 37.5-181
t 90.5-75l0-64 q0-26 -18.5-45t-45.5-19z"  />
<glyph unicode="&#x2441;" d="M 928,0q-40,0 -68,28t-28,68l0,320 q0,42 45,101t 83,59q 19,0 32.5-17t 19.5-44t 9-51.5t 3-47.5l0-320 q0-40 -28-68t-68-28zM 704,448l-384,0 q-27,0 -45.5,19t-18.5,45l-64,256q0,27 18.5,45.5t 45.5,18.5l 512,0 q 26,0 45-19t 19-45l-64-256q0-26 -19-45t-45-19zM 192,96
q0-40 -28-68t-68-28t-68,28t-28,68l0,320 q0,23 2.5,47.5t 9,51.5t 20,44t 32.5,17q 38,0 83-59t 45-101l0-320 zM 320,384l 384,0 q 26,0 45-18.5t 19-45t-19-45.5t-45-19l-384,0 q-27,0 -45.5,19t-18.5,45.5t 18.5,45t 45.5,18.5zM 320,192l 384,0 q 26,0 45-18.5t 19-45.5l0-64 
q0-26 -19-45t-45-19l-384,0 q-27,0 -45.5,19t-18.5,45l0,64 q0,27 18.5,45.5t 45.5,18.5z"  />
<glyph unicode="&#x25ad;" d="M0-64l0,1024 l 1024,0 l0-1024 l-1024,0 zM 960,896l-896,0 l0-896 l 896,0 l0,896 z"  />
<glyph unicode="&#x25b3;" d="M 992-64l-32,0 l0,32 q0,13 -9.5,22.5t-22.5,9.5t-22.5-9.5t-9.5-22.5l0-32 l-64,0 l0,96 q0,13 -9.5,22.5t-22.5,9.5t-22.5-9.5t-9.5-22.5l0-96 l-64,0 l0,32 q0,13 -9.5,22.5t-22.5,9.5t-22.5-9.5t-9.5-22.5l0-32 l-64,0 l0,96 q0,13 -9.5,22.5t-22.5,9.5t-22.5-9.5t-9.5-22.5l0-96 l-64,0 l0,32 
q0,13 -9.5,22.5t-22.5,9.5t-22.5-9.5t-9.5-22.5l0-32 l-64,0 l0,96 q0,13 -9.5,22.5t-22.5,9.5t-22.5-9.5t-9.5-22.5l0-96 l-64,0 l0,32 q0,13 -9.5,22.5t-22.5,9.5t-22.5-9.5t-9.5-22.5l0-32 l-96,0 q-13,0 -22.5,9.5t-9.5,22.5l 992,992q 13,0 22.5-9.5t 9.5-22.5l0-960 q0-13 -9.5-22.5
t-22.5-9.5zM 832,480q0,13 -9.5,22.5t-22.5,9.5l-352-352q0-13 9.5-22.5t 22.5-9.5l 320,0 q 13,0 22.5,9.5t 9.5,22.5l0,320 z"  />
<glyph unicode="&#x262f;" d="M 512-64q-104,0 -199,40.5t-163.5,109t-109,163.5t-40.5,199.5t 40.5,199t 109,163t 163.5,109.5t 199,41t 199-41t 163.5-109.5t 109-163t 40.5-199t-40.5-199.5t-109-163.5t-163.5-109t-199-40.5zM 512,704q-26,0 -45-18.5t-19-45t 18.5-45.5t 45.5-19t 45.5,19
t 18.5,45.5t-19,45t-45,18.5zM 512,448q-80,0 -136,56.5t-56,136t 56,135.5t 136,56q-104,0 -192.5-51t-140-139.5t-51.5-193t 51.5-193t 140-140t 192.5-51.5q 80,0 136,56.5t 56,136t-56,135.5t-136,56zM 512.5,192q-26.5,0 -45.5,19t-19,45.5t 19,45t 45.5,18.5t 45-18.5
t 18.5-45t-18.5-45.5t-45-19z"  />
<glyph unicode="&#x263a;" d="M 512-64q-104,0 -199,40.5t-163.5,109t-109,163.5t-40.5,199t 40.5,199t 109,163.5t 163.5,109t 199,40.5t 199-40.5t 163.5-109t 109-163.5t 40.5-199t-40.5-199t-109-163.5t-163.5-109t-199-40.5zM 288,704q-40,0 -68-37.5t-28-90.5t 28-90.5t 68-37.5t 68,37.5t 28,90.5
t-28,90.5t-68,37.5zM 736,704q-40,0 -68-37.5t-28-90.5t 28-90.5t 68-37.5t 68,37.5t 28,90.5t-28,90.5t-68,37.5zM 800,320l-576,0 q-13,0 -22.5-9.5t-9.5-22.5q 40-113 117.5-168.5t 201.5-55.5t 202.5,55.5t 118.5,168.5q0,13 -9.5,22.5t-22.5,9.5zM 511,128q-166,0 -223,114
q0,6 5.5,10t 13.5,4l 410,0 q 8,0 13.5-4t 5.5-10q-57-114 -225-114z"  />
<glyph unicode="&#x263c;" d="M 512-64q-104,0 -199,40.5t-163.5,109t-109,163.5t-40.5,199t 40.5,199t 109,163.5t 163.5,109t 199,40.5t 199-40.5t 163.5-109t 109-163.5t 40.5-199t-40.5-199t-109-163.5t-163.5-109t-199-40.5zM 512,832q-104,0 -192.5-51t-140-139.5t-51.5-193t 51.5-193t 140-140
t 192.5-51.5t 192.5,51.5t 140,140t 51.5,193t-51.5,193t-140,139.5t-192.5,51zM 512,384q-35,0 -54,30l-234,130l 288-32q 35,0 54-30l 234-130z"  />
<glyph unicode="&#x2666;" d="M 896,896l 128-256l-256,0 zM 576,896l 256,0 l-128-256zM 384,640l 128,256l 128-256l-256,0 zM 192,896l 256,0 l-128-256zM0,640l 128,256l 128-256l-256,0 zM 448,0l-448,576l 256,0 zM 704,576l-192-576l-192,576l 384,0 zM 1024,576l-448-576l 192,576l 256,0 z"  />
<glyph unicode="&#x2713;" d="M 1006,635l-619-618q-18-18 -53-17q-32,1 -49,17l-267,267q-18,18 -18,44t 18,44l 89,89q 18,18 44,18t 44-18l 141-141l 493,492q 18,18 44,18t 44-18l 89-88q 18-19 18-44.5t-18-44.5z"  />
<glyph unicode="&#xe001;" d="M 896,0l-576,0 q-53,0 -90.5,37.5t-37.5,90.5l-64,0 q-53,0 -90.5,37.5t-37.5,90.5l0,512 q0,53 37.5,90t 90.5,37l 768,0 q 53,0 90.5-37t 37.5-90l0-640 q0-53 -37.5-90.5t-90.5-37.5zM 416,256q 96,0 96,96t-96,96t-96-96t 96-96zM 864,768l-647,0 q-37,0 -63-25t-26-61l0-341 
q0-29 18-51.5t 46-29.5l0,316 q0,53 37.5,90.5t 90.5,37.5l 544,0 q 13,0 22.5,9t 9.5,22.5t-9.5,23t-22.5,9.5z"  />
<glyph unicode="&#xf470;" d="M 512-64q-104,0 -199,40.5t-163.5,109t-109,163.5t-40.5,199t 40.5,199t 109,163.5t 163.5,109t 199,40.5t 199-40.5t 163.5-109t 109-163.5t 40.5-199t-40.5-199t-109-163.5t-163.5-109t-199-40.5zM 512,832q-104,0 -192.5-51.5t-140-140t-51.5-192.5t 51.5-192.5
t 140-140t 192.5-51.5t 192.5,51.5t 140,140t 51.5,192.5t-51.5,192.5t-140,140t-192.5,51.5zM 687,273q-17-17 -41-17t-41,17l-94,94l-93-94q-17-17 -41-17t-41,17t-17,41t 17,41l 93,94l-93,93q-17,17 -17,41t 17,41t 41,17t 41-17l 93-94l 94,94q 17,17 41,17t 41-17t 17-41
t-17-41l-94-93l 94-94q 17-17 17-41t-17-41z"  />
<glyph unicode="&#xf471;" d="M 512-64q-139,0 -257,68.5t-186.5,186.5t-68.5,257t 68.5,257t 186.5,186.5t 257,68.5t 257-68.5t 186.5-186.5t 68.5-257t-68.5-257t-186.5-186.5t-257-68.5zM 512,832q-104,0 -192.5-51.5t-140-140t-51.5-192.5t 51.5-192.5t 140-140t 192.5-51.5t 192.5,51.5t 140,140
t 51.5,192.5t-51.5,192.5t-140,140t-192.5,51.5zM 510,301q-5-18 -15-28q-20-20 -49-16q-28-2 -46,16q-10,10 -14,27l-114,114q-17,17 -17,41t 17,41t 41,17t 41-17l 93-93l 222,221q 17,17 41,17t 41-17t 17-41t-17-41z"  />
<glyph unicode="&#xf472;" d="M 512-64q-139,0 -257,68.5t-186.5,186.5t-68.5,257t 68.5,257t 186.5,186.5t 257,68.5t 257-68.5t 186.5-186.5t 68.5-257t-68.5-257t-186.5-186.5t-257-68.5zM 768,512l-357,0 l 82,82q 19,19 19,46t-19,46t-46,19t-46-19l-191-191q-8-8 -13-22q0-1 -2-6l-0.5-1.5
t-0.5-2.5q0-2 -1-5l0-2 l0-2 q-4-32 17-53l 191-191q 19-19 46-19t 46,19t 19,46t-19,46l-82,82l 357,0 q 26,0 45,19t 19,45t-18.5,45t-45.5,19z"  />
<glyph unicode="&#xf473;" d="M 512-64q-139,0 -257,68.5t-186.5,186.5t-68.5,257t 68.5,257t 186.5,186.5t 257,68.5t 257-68.5t 186.5-186.5t 68.5-257t-68.5-257t-186.5-186.5t-257-68.5zM 831,454l0,2 l0,2 q0,3 -1,5q0,1 -0.5,2.5t-1,2t-1,2.5t-0.5,3q-5,14 -13,22l-191,191q-19,19 -46,19t-46-19t-19-46
t 19-46l 82-82l-357,0 q-27,0 -45.5-19t-18.5-45t 18.5-45t 45.5-19l 357,0 l-82-82q-19-19 -19-46t 19-46t 46-19t 46,19l 191,191q 21,21 17,53z"  />
<glyph unicode="&#xf474;" d="M 512-64q-139,0 -257,68.5t-186.5,186.5t-68.5,257t 68.5,257t 186.5,186.5t 257,68.5t 257-68.5t 186.5-186.5t 68.5-257t-68.5-257t-186.5-186.5t-257-68.5zM 749,559l-190,190q-22,21 -54,17l-1.5,0 l-1.5,0 q-3,0 -6-1l-1.5-0.5t-2.5-0.5l-2-1t-3-1q-15-5 -23-13
l-190-190q-19-19 -19-46t 19-46t 46-19t 46,19l 82,81l0-356 q0-27 18.5-45.5t 45-18.5t 45,18.5t 18.5,45.5l0,356 l 82-81q 19-19 46-19t 46,19t 19,46t-19,46z"  />
<glyph unicode="&#xf475;" d="M 512-64q-139,0 -257,68.5t-186.5,186.5t-68.5,257t 68.5,257t 186.5,186.5t 257,68.5t 257-68.5t 186.5-186.5t 68.5-257t-68.5-257t-186.5-186.5t-257-68.5zM 749,429q-19,19 -46,19t-46-19l-82-81l0,356 q0,27 -18.5,45.5t-45,18.5t-45-18.5t-18.5-45.5l0-356 l-82,81
q-19,19 -46,19t-46-19t-19-46t 19-46l 190-190q 8-8 23-13q 1,0 3-1q 2,0 2.5-0.5t 2-1l 1.5-0.5q 3-1 6-1l 1.5,0 l 1.5,0 q 32-4 54,17l 190,190q 19,19 19,46t-19,46z"  />
<glyph unicode="&#xf476;" d="M 512-64q-139,0 -257,68.5t-186.5,186.5t-68.5,257t 68.5,257t 186.5,186.5t 257,68.5t 257-68.5t 186.5-186.5t 68.5-257t-68.5-257t-186.5-186.5t-257-68.5zM 768,480q0,13 -9.5,22.5t-22.5,9.5l-160,0 l0,160 q0,13 -9.5,22.5t-22.5,9.5l-64,0 q-13,0 -22.5-9.5t-9.5-22.5l0-160 
l-160,0 q-13,0 -22.5-9.5t-9.5-22.5l0-64 q0-13 9.5-22.5t 22.5-9.5l 160,0 l0-160 q0-13 9.5-22.5t 22.5-9.5l 64,0 q 13,0 22.5,9.5t 9.5,22.5l0,160 l 160,0 q 13,0 22.5,9.5t 9.5,22.5l0,64 z"  />
<glyph unicode="&#xf477;" d="M 512-64q-139,0 -257,68.5t-186.5,186.5t-68.5,257t 68.5,257t 186.5,186.5t 257,68.5t 257-68.5t 186.5-186.5t 68.5-257t-68.5-257t-186.5-186.5t-257-68.5zM 768,480q0,13 -9.5,22.5t-22.5,9.5l-448,0 q-13,0 -22.5-9.5t-9.5-22.5l0-64 q0-13 9.5-22.5t 22.5-9.5l 448,0 
q 13,0 22.5,9.5t 9.5,22.5l0,64 z"  />
<glyph unicode="&#xf478;" d="M 512-64q-104,0 -199,40.5t-163.5,109t-109,163.5t-40.5,199t 40.5,199t 109,163.5t 163.5,109t 199,40.5t 199-40.5t 163.5-109t 109-163.5t 40.5-199t-40.5-199t-109-163.5t-163.5-109t-199-40.5zM 759,606q 9,10 9,23t-9,22l-44,44q-10,9 -22.5,9t-22.5-9l-158-159
l-159,159q-9,9 -22,9t-22-9l-44-44q-9-9 -9-22t 9-23l 158-158l-158-158q-9-10 -9-23t 9-22l 44-44q 9-9 22-9t 22,9l 159,159l 158-159q 10-9 22.5-9t 22.5,9l 44,44q 9,9 9,22t-9,23l-159,158z"  />
<glyph unicode="&#xf479;" d="M 512-64q-139,0 -257,68.5t-186.5,186.5t-68.5,257t 68.5,257t 186.5,186.5t 257,68.5t 257-68.5t 186.5-186.5t 68.5-257t-68.5-257t-186.5-186.5t-257-68.5zM 823,619l-44,44q-10,9 -22.5,9t-22.5-9l-302-302l-143,142q-9,9 -22,9t-22-9l-44-44q-9-9 -9-22t 9-23
l 152-151q 1-11 8-18l 44-44q 11-11 27-8q 16-3 27,8l 44,44q 6,7 8,18l 312,312q 9,9 9,22t-9,22z"  />
<glyph unicode="&#xf47a;" d="M 512-64q-139,0 -257,68.5t-186.5,186.5t-68.5,257t 68.5,257t 186.5,186.5t 257,68.5t 257-68.5t 186.5-186.5t 68.5-257t-68.5-257t-186.5-186.5t-257-68.5zM 545,818q-13,14 -32.5,14t-32.5-14l-342-345q-12-14 -8.5-19.5t 18.5-5.5l 236,0 l0-320 q0-27 19-45.5
t 45-18.5l 129,0 q 26,0 45,18.5t 19,45.5l0,320 l 235,0 q 15,0 19,5.5t-8,19.5z"  />
<glyph unicode="&#xf47b;" d="M 512-64q-139,0 -257,68.5t-186.5,186.5t-68.5,257t 68.5,257t 186.5,186.5t 257,68.5t 257-68.5t 186.5-186.5t 68.5-257t-68.5-257t-186.5-186.5t-257-68.5zM 876,448l-235,0 l0,320 q0,27 -19,45.5t-45,18.5l-129,0 q-26,0 -45-18.5t-19-45.5l0-320 l-236,0 q-15,0 -18.5-6t 8.5-19
l 342-345q 13-14 32.5-14t 32.5,14l 342,345q 12,13 8,19t-19,6z"  />
<glyph unicode="&#xf47c;" d="M 896-64l-768,0 q-53,0 -90.5,37.5t-37.5,90.5l0,768 q0,53 37.5,90t 90.5,37l 576,0 l-128-127l-384,0 q-27,0 -45.5-19t-18.5-45l0-640 q0-27 19-45.5t 45-18.5l 640,0 q 27,0 45.5,18.5t 18.5,45.5l0,384 l 128,128l0-576 q0-53 -37.5-90.5t-90.5-37.5zM 320,400l 144-144l-208-64zM 528,304
l-160,159l 479,480q 17,16 40.5,16t 40.5-16l 79-80q 16-16 16.5-39.5t-16.5-40.5z"  />
<glyph unicode="&#xf47d;" d="M 896-64l-768,0 q-53,0 -90.5,37.5t-37.5,90.5l0,768 q0,53 37.5,90.5t 90.5,37.5l 448,0 l0-128 l-384,0 q-27,0 -45.5-19t-18.5-45l0-640 q0-27 18.5-45.5t 45.5-18.5l 640,0 q 27,0 45.5,18.5t 18.5,45.5l0,302 l 128,107l0-473 q0-53 -37.5-90.5t-90.5-37.5zM 696,393q-13-13 -34.5-8
t-21.5,19l0,172 q-224,0 -384-320l0,64 q0,116 30,204t 83,140t 121,78t 150,26l0,170 q0,14 21.5,19.5t 34.5-7.5l 314-246q 13-13 13-32t-13-33z"  />
<glyph unicode="&#xf480;" d="M 896-64l-768,0 q-53,0 -90.5,37.5t-37.5,90.5l0,768 q0,53 37.5,90.5t 90.5,37.5l 768,0 q 53,0 90.5-37.5t 37.5-90.5l0-768 q0-53 -37.5-90.5t-90.5-37.5zM 960,704q0,26 -19,45t-45,19l-768,0 q-26,0 -45-19t-19-45l0-640 q0-27 19-45.5t 45-18.5l 768,0 q 26,0 45,18.5t 19,45.5l0,640 z
M 864,64l-512,0 q-13,0 -22.5,9.5t-9.5,22.5t 9.5,22.5t 22.5,9.5l 512,0 q 13,0 22.5-9.5t 9.5-22.5t-9.5-22.5t-22.5-9.5zM 864,320l-512,0 q-13,0 -22.5,9.5t-9.5,22.5t 9.5,22.5t 22.5,9.5l 512,0 q 13,0 22.5-9.5t 9.5-22.5t-9.5-22.5t-22.5-9.5zM 864,576l-512,0 q-13,0 -22.5,9.5
t-9.5,22.5t 9.5,22.5t 22.5,9.5l 512,0 q 13,0 22.5-9.5t 9.5-22.5t-9.5-22.5t-22.5-9.5zM 224,64l-64,0 q-13,0 -22.5,9.5t-9.5,22.5l0,64 q0,13 9.5,22.5t 22.5,9.5l 64,0 q 13,0 22.5-9.5t 9.5-22.5l0-64 q0-13 -9.5-22.5t-22.5-9.5zM 224,320l-64,0 q-13,0 -22.5,9.5t-9.5,22.5l0,64 
q0,13 9.5,22.5t 22.5,9.5l 64,0 q 13,0 22.5-9.5t 9.5-22.5l0-64 q0-13 -9.5-22.5t-22.5-9.5zM 224,576l-64,0 q-13,0 -22.5,9.5t-9.5,22.5l0,64 q0,13 9.5,22.5t 22.5,9.5l 64,0 q 13,0 22.5-9.5t 9.5-22.5l0-64 q0-13 -9.5-22.5t-22.5-9.5z"  />
<glyph unicode="&#xf481;" d="M 110-45q-19-19 -45.5-19t-45.5,19t-19,45.5t 19,45.5l 122,122q-111,120 -140,279q 23,126 97,228.5t 183,161t 231,58.5q 145,0 272-84l 129,129q 19,19 46,19t 45.5-18.5t 18.5-45.5t-19-46zM 512,767q-131,0 -245-64l-11,0 l0-6 q-73-44 -123.5-108.5t-67.5-141.5
q 28-125 141-214l 85,86q-35,59 -35,128q0,60 28,114l 57-28q-21-42 -21-86q0-43 19-81l 50,50q-5,17 -5,31q0,29 14,57l 53-26l 30,31l-26,52q 28,14 57,14q 14,0 32-4l 50,50q-39,18 -82,18t-85-21l-29,58q 54,27 114,27q 69,0 129-35l 61,61q-92,38 -190,38zM 767,420
q-10-90 -74-153.5t-153-73.5zM 512,128q 162,0 289.5,91t 158.5,228q-14,60 -50,116l 53,53q 45-80 61-169q-23-126 -97.5-228.5t-183.5-160.5t-231-58q-72,0 -143,22l 107,107q 20-1 36-1z"  />
<glyph unicode="&#xf482;" d="M 1006,272l-261-264q-2-2 -13-8q-10,6 -12,8l-16,14l 224,226q 32,33 32,65q0,30 -6,51.5t-11.5,29t-14.5,16.5l-448,453q-10,10 -30,21t-29,11l 62,0 q 28-1 45-18l 478-483q 18-19 18-61.5t-18-60.5zM 864,281l-256-259q-19-19 -48.5-19t-47.5,19l-494,501
q-25,26 -15,62q-3,10 -3,19l0,226 q0,27 19,46t 45,19l 224,0 q 9,0 18-3q 37,10 62-15l 496-499q 18-19 18-49t-18-48zM 224,766q-40,0 -68-28.5t-28-69t 28-68.5t 68-28t 68,28t 28,68.5t-28,69t-68,28.5z"  />
<glyph unicode="&#xf483;" d="M 630,640q-23,0 -44-12.5t-28-30.5l-46-85l-448,0 l-8,0 q-16,0 -23-0.5t-16.5-3t-13-9.5t-3.5-19l0-32 l0,256 l 49,85q 7,18 28,30.5t 45,12.5l 240,0 q 23,0 44-12.5t 28-30.5l 46-85l 480,0 q 26,0 45-18.5t 19-45.5l-394,0 zM 64,448l 512,0 l 32,96q 7,18 19,25t 35,7l 266,0 q 51,0 64-32l 32-96
l0-256 q0-53 -37.5-90.5t-90.5-37.5l-768,0 q-53,0 -90.5,37.5t-37.5,90.5l0,192 q0,27 18.5,45.5t 45.5,18.5z"  />
<glyph unicode="&#xf484;" d="M 512-64q-104,0 -199,40.5t-163.5,109t-109,163.5t-40.5,199t 40.5,199t 109,163.5t 163.5,109t 199,40.5t 199-40.5t 163.5-109t 109-163.5t 40.5-199t-40.5-199t-109-163.5t-163.5-109t-199-40.5zM 512,832q-104,0 -192.5-51.5t-140-140t-51.5-192.5t 51.5-192.5
t 140-140t 192.5-51.5l0,768 z"  />
<glyph unicode="&#xf485;" d="M 960-64l-896,0 q-26,0 -45,18.5t-19,45.5l0,896 q0,27 19,45.5t 45,18.5l 896,0 q 27,0 45.5-18.5t 18.5-45.5l0-896 q0-27 -18.5-45.5t-45.5-18.5zM 960,896l-896,0 l0-896 l 896,0 l0,896 zM 160,832l 64,0 l 192,0 q 13,0 22.5-9.5t 9.5-22.5l0-64 q0-13 -9.5-22.5t-22.5-9.5l-68,0 l 165-165l 164,165l-69,0 
q-13,0 -22.5,9.5t-9.5,22.5l0,64 q0,13 9.5,22.5t 22.5,9.5l 256,0 q 13,0 22.5-9.5t 9.5-22.5l0-64 l0-192 q0-13 -9.5-22.5t-22.5-9.5l-64,0 q-13,0 -22.5,9.5t-9.5,22.5l0,69 l-164-165l 164-163l0,67 q0,13 9.5,22.5t 22.5,9.5l 64,0 q 13,0 22.5-9.5t 9.5-22.5l0-256 q0-13 -9.5-22.5
t-22.5-9.5l-64,0 l-192,0 q-13,0 -22.5,9.5t-9.5,22.5l0,64 q0,13 9.5,22.5t 22.5,9.5l 71,0 l-165,165l-165-165l 67,0 q 13,0 22.5-9.5t 9.5-22.5l0-64 q0-13 -9.5-22.5t-22.5-9.5l-256,0 q-13,0 -22.5,9.5t-9.5,22.5l0,64 l0,192 q0,13 9.5,22.5t 22.5,9.5l 64,0 q 13,0 22.5-9.5t 9.5-22.5l0-71 
l 166,167l-166,165l0-69 q0-13 -9.5-22.5t-22.5-9.5l-64,0 q-13,0 -22.5,9.5t-9.5,22.5l0,256 q0,13 9.5,22.5t 22.5,9.5z"  />
<glyph unicode="&#xf486;" d="M 1024,384l-192-256l-192,256l 128,0 l0,256 l-384,0 l-96,128l 608,0 l0-384 l 128,0 zM 256,512l0-256 l 384,0 l 96-128l-608,0 l0,384 l-128,0 l 192,256l 192-256l-128,0 z"  />
<glyph unicode="&#xf487;" d="M 864,512q-44,0 -85-13t-74-32l-66-38t-74-32t-85-13q-97,0 -160,81l0,431 q 18-23 36.5-37t 40.5-19.5t 36-6.5t 39-1l 8,0 q 44,0 85,13t 74,32l 66,38t 74,32t 85,13q 40,0 81.5-24t 78.5-72l0-416 q-23,23 -43.5,37t-41.5,19.5t-35,6.5t-40,1zM 384-0.5q0-26.5 -18.5-45
t-45.5-18.5l-256,0 q-26,0 -45,18.5t-19,45t 19,45.5t 45,19l 64,0 l0,832 q0,26 18.5,45t 45.5,19t 45.5-18.5t 18.5-45.5l0-832 l 64,0 q 27,0 45.5-19t 18.5-45.5z"  />
<glyph unicode="&#xf488;" d="M 800,383l-434-426q-21-21 -51-21t-51,21l-51,51q-21,21 -21,51t 21,51l 338,338l-338,338q-21,21 -21,51t 21,51l 51,51q 21,21 51,21t 51-21l 434-428q 32-32 32-63.5t-32-64.5z"  />
<glyph unicode="&#xf489;" d="M 224,383l 434-426q 21-21 51-21t 51,21l 51,51q 21,21 21,51t-21,51l-338,338l 338,338q 21,21 21,51t-21,51l-51,51q-21,21 -51,21t-51-21l-434-428q-32-32 -32-64t 32-64z"  />
<glyph unicode="&#xf48a;" d="M 577,736l 426-434q 21-21 21-51t-21-51l-51-51q-21-21 -51-21t-51,21l-338,338l-338-338q-21-21 -51-21t-51,21l-51,51q-21,21 -21,51t 21,51l 428,434q 32,32 64,32t 64-32z"  />
<glyph unicode="&#xf48b;" d="M 577,160l 426,434q 21,21 21,51t-21,51l-51,51q-21,21 -51,21t-51-21l-338-338l-338,338q-21,21 -51,21t-51-21l-51-51q-21-21 -21-51t 21-51l 428-434q 32-32 64-32t 64,32z"  />
<glyph unicode="&#xf3ff;" d="M 864,192q-13,0 -22.5,9.5t-9.5,22.5l0,32 l-64,0 l0-192 q 27,0 45.5-18.5t 18.5-45t-18.5-45.5t-45.5-19l-512,0 q-26,0 -45,19t-19,45.5t 19,45t 45,18.5l0,192 l-64,0 l0-32 q0-13 -9.5-22.5t-22.5-9.5q-40,0 -68,37.5t-28,90.5t 28,90.5t 68,37.5q 13,0 22.5-9.5t 9.5-22.5l0-32 l 64,0 l0,128 
q-26,0 -45,19t-19,45.5t 19,45t 45,18.5q0,89 54,157.5t 138,90.5l0,8 q0,27 19,45.5t 45.5,18.5t 45-18.5t 18.5-45.5l0-8 q 84-22 138-91t 54-157q 27,0 45.5-18.5t 18.5-45t-18.5-45.5t-45.5-19l0-128 l 64,0 l0,32 q0,13 9.5,22.5t 22.5,9.5q 40,0 68-37.5t 28-90.5t-28-90.5t-68-37.5
z"  />
<glyph unicode="&#xf400;" d="M 992-64l-352,0 l0,128 q0,53 -37.5,90.5t-90.5,37.5t-90.5-37.5t-37.5-90.5l0-128 l-352,0 q-13,0 -22.5,9.5t-9.5,22.5l0,480 l0,32 l0,96 l 64,0 l0-32 q0-13 9.5-22.5t 22.5-9.5t 22.5,9.5t 9.5,22.5l0,32 l 64,0 l0-32 q0-13 9.5-22.5t 22.5-9.5t 22.5,9.5t 9.5,22.5l0,32 l 64,0 l0,192 l-32,0 q-13,0 -22.5,9.5
t-9.5,22.5l0,128 q0,13 9.5,22.5t 22.5,9.5l 32,0 l0-32 q0-13 9.5-22.5t 22.5-9.5t 22.5,9.5t 9.5,22.5l0,32 l 64,0 l0-32 q0-13 9.5-22.5t 22.5-9.5l 64,0 q 13,0 22.5,9.5t 9.5,22.5l0,32 l 64,0 l0-32 q0-13 9.5-22.5t 22.5-9.5t 22.5,9.5t 9.5,22.5l0,32 l 32,0 q 13,0 22.5-9.5t 9.5-22.5l0-128 
q0-13 -9.5-22.5t-22.5-9.5l-32,0 l0-192 l 64,0 l0-32 q0-13 9.5-22.5t 22.5-9.5t 22.5,9.5t 9.5,22.5l0,32 l 64,0 l0-32 q0-13 9.5-22.5t 22.5-9.5t 22.5,9.5t 9.5,22.5l0,32 l 64,0 l0-96 l0-32 l0-480 q0-13 -9.5-22.5t-22.5-9.5zM 256,320q0,26 -19,45t-45.5,19t-45-19t-18.5-45l0-64 l 128,0 l0,64 z
M 576,704q0,26 -19,45t-45.5,19t-45-19t-18.5-45l0-64 l 128,0 l0,64 zM 896,320q0,26 -19,45t-45.5,19t-45-19t-18.5-45l0-64 l 128,0 l0,64 z"  />
<glyph unicode="&#xf401;" d="M 960,512l-242-40q 50-68 50-152q0-106 -75-181t-181-75q-85,0 -152,49.5t-92,128.5l-82-145q-15-26 -45-32q-6-1 -11-1l-1,0 l-1,0 l-64,0 q-26,0 -45,19t-19,45.5t 19,45t 45,18.5l 26,0 l 111,194l-9-2q-73-4 -132.5,55t-59.5,137q0,79 54,137.5t 126,54.5l 12,0 l0,32 
q0,13 9.5,22.5t 22.5,9.5t 22.5-9.5t 9.5-22.5l0-32 l 704,0 q 27,0 45.5-37.5t 18.5-90.5q0-51 -18-85t-46-43zM 512,448q-53,0 -90.5-37.5t-37.5-90.5t 37.5-90.5t 90.5-37.5t 90.5,37.5t 37.5,90.5t-37.5,90.5t-90.5,37.5zM 511.5,256q-26.5,0 -45,19t-18.5,45.5t 18.5,45
t 45,18.5t 45.5-18.5t 19-45t-19-45.5t-45.5-19z"  />
<glyph unicode="&#xf402;" d="M 1024,960zM 512,960l0,0 l0,0 zM 768,896q 106,0 181,18.5t 75,45.5l0-256 l-1024,0 l0,256 l0,0 q0-27 75-45.5t 181-18.5t 181,18.5t 75,45.5q0-27 75-45.5t 181-18.5zM 512-64q-94,27 -168.5,65.5t-125,78.5t-88.5,97t-59.5,104t-36.5,116.5t-21.5,118t-12.5,124.5l 1024,0 
q-6-76 -12.5-124.5t-21.5-118t-36.5-116.5t-59.5-104t-88.5-97t-125-78.5t-168.5-65.5z"  />
<glyph unicode="&#xf403;" d="M 672-64l-480,0 q-26,0 -45,19t-19,45l0,896 q0,27 18.5,45.5t 45.5,18.5l 640,0 q 27,0 45.5-18.5t 18.5-45.5l0-736 q0-93 -65.5-158.5t-158.5-65.5zM 640.5,64q 26.5,0 45,19t 18.5,45.5t-18.5,45t-45,18.5t-45.5-18.5t-19-45t 19-45.5t 45.5-19zM 192,240l0-32 q0-7 4.5-11.5
t 11.5-4.5l 48,0 l0-48 q0-7 4.5-11.5t 11.5-4.5l 32,0 q 7,0 11.5,4.5t 4.5,11.5l0,48 l 48,0 q 7,0 11.5,4.5t 4.5,11.5l0,32 q0,7 -4.5,11.5t-11.5,4.5l-48,0 l0,48 q0,7 -4.5,11.5t-11.5,4.5l-32,0 q-7,0 -11.5-4.5t-4.5-11.5l0-48 l-48,0 q-7,0 -11.5-4.5t-4.5-11.5zM 768,800q0,13 -9.5,22.5t-22.5,9.5
l-448,0 q-13,0 -22.5-9.5t-9.5-22.5l0-320 q0-13 9.5-22.5t 22.5-9.5l 448,0 q 13,0 22.5,9.5t 9.5,22.5l0,320 zM 768.5,320q-26.5,0 -45.5-18.5t-19-45t 19-45.5t 45.5-19t 45,19t 18.5,45.5t-18.5,45t-45,18.5z"  />
<glyph unicode="&#xf404;" d="M 1024,384l0-320 q0-26 -19-45t-45-19l-896,0 q-26,0 -45,19t-19,45l0,320 q0,26 19,45t 45,19q-26,0 -45,18.5t-19,45.5l0,320 q0,26 19,45t 45,19l 896,0 q 26,0 45-19t 19-45l0-320 q0-27 -19-45.5t-45-18.5q 27,0 45.5-18.5t 18.5-45.5zM 864,128q 13,0 22.5,9.5t 9.5,22.5t-9.5,22.5
t-22.5,9.5t-22.5-9.5t-9.5-22.5t 9.5-22.5t 22.5-9.5zM 256,240q0,7 -4.5,11.5t-11.5,4.5l-48,0 l0,48 q0,7 -4.5,11.5t-11.5,4.5l-32,0 q-7,0 -11.5-4.5t-4.5-11.5l0-48 l-48,0 q-7,0 -11.5-4.5t-4.5-11.5l0-32 q0-7 4.5-11.5t 11.5-4.5l 48,0 l0-48 q0-7 4.5-11.5t 11.5-4.5l 32,0 
q 7,0 11.5,4.5t 4.5,11.5l0,48 l 48,0 q 7,0 11.5,4.5t 4.5,11.5l0,32 zM 704,800q0,13 -9.5,22.5t-22.5,9.5l-320,0 q-13,0 -22.5-9.5t-9.5-22.5l0-256 q0-13 9.5-22.5t 22.5-9.5l 320,0 q 13,0 22.5,9.5t 9.5,22.5l0,256 zM 704,352q0,13 -9.5,22.5t-22.5,9.5l-320,0 q-13,0 -22.5-9.5t-9.5-22.5l0-256 
q0-13 9.5-22.5t 22.5-9.5l 320,0 q 13,0 22.5,9.5t 9.5,22.5l0,256 zM 800,256q-13,0 -22.5-9.5t-9.5-22.5t 9.5-22.5t 22.5-9.5t 22.5,9.5t 9.5,22.5t-9.5,22.5t-22.5,9.5zM 864,320q-13,0 -22.5-9.5t-9.5-22.5t 9.5-22.5t 22.5-9.5t 22.5,9.5t 9.5,22.5t-9.5,22.5t-22.5,9.5z
M 928,256q-13,0 -22.5-9.5t-9.5-22.5t 9.5-22.5t 22.5-9.5t 22.5,9.5t 9.5,22.5t-9.5,22.5t-22.5,9.5z"  />
<glyph unicode="&#xf405;" d="M 540,69q 76-77 95-133l-246,0 q 19,56 94,133q-49,13 -111.5,67t-116,125.5t-90.5,157.5t-37,157q0,104 51.5,192.5t 140,140t 192.5,51.5t 192.5-51.5t 140-140t 51.5-192.5q0-71 -37-157t-90.5-157.5t-116-125.5t-112.5-67zM 383,765q-38,11 -74-16t-48-76
q-14-48 -5-168.5t 32-120.5q 14,0 23,32.5t 18.5,73.5t 22.5,54q 5,5 20,19.5t 23.5,23.5t 20,21.5t 18.5,24t 9,22.5q 23,87 -60,110z"  />
<glyph unicode="&#xf406;" d="M 846,570l-572-248q-26-8 -49.5,6.5t-30.5,41.5t 6.5,51.5t 39.5,32.5l 572,248q 27,7 50-7t 30.5-41.5t-6.5-52t-40-31.5zM 782,762l-572-248q-26-8 -49.5,6.5t-30.5,41.5t 6.5,51.5t 39.5,31.5l 572,249q 27,7 50-7t 30.5-41.5t-6.5-52t-40-31.5zM 430,826l-156-56
q-26-8 -49.5,6t-30.5,41.5t 6.5,52t 39.5,31.5l 157,57q 26,7 49.5-7t 30.5-41.5t-6.5-52t-40.5-31.5zM 409,313q 10,9 23,13l 316,120q 27,7 50-7t 30.5-41.5t-6.5-52t-40-31.5l-270-103q-1-13 -1-19l 64,0 q 27,0 45.5-19t 18.5-45.5t-18.5-45t-45.5-18.5l-128,0 q-6,0 -12,1
q-49,5 -82.5,41.5t-33.5,85.5q0,42 25,75.5t 65,45.5zM 511-64q-53,0 -90.5,18.5t-37.5,45.5l 256,0 q0-27 -37.5-45.5t-90.5-18.5z"  />
<glyph unicode="&#xf407;" d="M 512,960q 61,0 117-32.5t 96.5-86.5t 74-121.5t 54-139.5t 31.5-138.5t 11-121.5q0-104 -51.5-192.5t-140-140t-192.5-51.5t-192.5,51.5t-140,140t-51.5,192.5q0,55 11,121.5t 31.5,138.5t 54,139.5t 74,121.5t 96.5,86.5t 117,32.5z"  />
<glyph unicode="&#xf408;" d="M 896,640l-257,52q-5-49 -41-82.5t-86-33.5l-64,0 l0,320 l 64,0 q 50,0 86-33.5t 41-81.5l 257,51q 128,0 128-95q0-53 -36-75t-92-22zM 352,512q-13,0 -22.5,9.5t-9.5,22.5l0,384 q0,13 9.5,22.5t 22.5,9.5t 22.5-9.5t 9.5-22.5l0-384 q0-13 -9.5-22.5t-22.5-9.5zM 224-64
q-13,0 -22.5,9.5t-9.5,22.5l0,960 q0,13 9.5,22.5t 22.5,9.5t 22.5-9.5t 9.5-22.5l0-960 q0-13 -9.5-22.5t-22.5-9.5zM0,608q0,13 9.5,22.5t 22.5,9.5l 96,0 l0-64 l-96,0 q-13,0 -22.5,9.5t-9.5,22.5zM0,736q0,13 9.5,22.5t 22.5,9.5l 96,0 l0-64 l-96,0 q-13,0 -22.5,9.5t-9.5,22.5zM0,864
q0,13 9.5,22.5t 22.5,9.5l 96,0 l0-64 l-96,0 q-13,0 -22.5,9.5t-9.5,22.5z"  />
<glyph unicode="&#xf409;" d="M 728,481q-75,37 -151,63q 33,17 61,32l-252,0 q 21-11 126-64q 64-21 127.5-50t 135-76.5t 125-101.5t 89-128.5t 35.5-155.5q0-26 -18.5-45t-45-19t-45.5,19t-19,45l-768,0 q0-26 -19-45t-45.5-19t-45,19t-18.5,45q0,68 24,131.5t 67.5,114.5t 93.5,92t 111,77
q 75-37 151-63q-33-17 -61-32l 252,0 q-21,11 -126,64q-64,21 -127.5,50.5t-135,76.5t-125,101t-89,128.5t-35.5,155.5q0,27 18.5,45.5t 45,18.5t 45.5-18.5t 19-45.5l 768,0 q0,27 19,45.5t 45.5,18.5t 45-18.5t 18.5-45.5q0-68 -24-131t-67.5-114.5t-93.5-92.5t-111-77z
M 136,64l 751,0 q-8,32 -26,64l-698,0 q-19-32 -27-64zM 285,256q-47-34 -75-64l 603,0 q-31,33 -73,64l-455,0 zM 284,640l 455,0 q 47,34 74,64l-602,0 q 31-33 73-64zM 137,832q 8-32 26-64l 698,0 q 19,32 27,64l-751,0 z"  />
<glyph unicode="&#xf40a;" d="M 1005,850l-308-308q 19-51 -9-79t-79-9l-1-1q 29-47 30.5-95t-17.5-87t-54-73q-89-89 -128-262q-46,23 -101,60q-11,50 4,99t 52,83q-46-15 -79-50t-45-81q-49,39 -85,74q-2,2 -5.5,6t-4.5,6q 34,34 48,77q-35-31 -78-45q-31,35 -55,67q 44,14 78,46.5
t 48,77.5q-32-36 -78-51.5t-94-7.5q-27,43 -44,78q 173,40 262,128q 34,35 73,54t 87,17.5t 95-30.5l 1,1q-19,51 9,79t 79,9l 308,308q 19,19 45.5,19t 45.5-19t 19-45.5t-19-45.5z"  />
<glyph unicode="&#xf40b;" d="M 421.5,226.5q-37.5,37.5 -37.5,90.5t 38,91l 544,362l-363-544q-37-37 -90.5-37t-91,37.5zM 512,767q-91,0 -174.5-36t-143.5-96t-95.5-143t-35.5-174q0-106 48-202l-56-28q-55,109 -55,229q0,105 40.5,199.5t 109,163t 163.5,109t 199,40.5q 161,0 293-92l-57-38
q-109,68 -236,68zM 933,609q 91-132 91-292q0-120 -55-229l-56,29q 48,95 48,201q0,125 -66,234z"  />
<glyph unicode="&#xf40c;" d="M 512-64q-104,0 -199,40.5t-163.5,109t-109,163.5t-40.5,199t 40.5,199t 109,163.5t 163.5,109t 199,40.5t 199-40.5t 163.5-109t 109-163.5t 40.5-199t-40.5-199t-109-163.5t-163.5-109t-199-40.5zM 683,585q0,70 -50,120t-121,50t-121-50t-50-120l0-205 q0-14 -10-24
t-24-10t-24,10t-10,24l0,102 l-137,0 l0-102 q0-71 50-121t 121-50t 121,50t 50,121l0,205 q0,14 10,24t 24,10t 24-10t 10-24l0-35 l 68-68l 69,68l0,35 zM 751,482l0-102 q0-14 -10-24t-24-10t-24,10t-10,24l0,102 l-69-68l-68,68l0-102 q0-71 50-121t 120.5-50t 120.5,50t 50,121l0,102 l-136,0 z
"  />
<glyph unicode="&#xf40d;" d="M 768,0l-64,0 l0-32 q0-13 -9.5-22.5t-22.5-9.5t-22.5,9.5t-9.5,22.5l0,32 l-256,0 l0-32 q0-13 -9.5-22.5t-22.5-9.5t-22.5,9.5t-9.5,22.5l0,32 l-64,0 q-26,0 -45,19t-19,45l0,448 q0,27 18.5,45.5t 45.5,18.5l 512,0 q 27,0 45.5-18.5t 18.5-45.5l0-448 q0-26 -18.5-45t-45.5-19zM 320,480
q0,13 -9.5,22.5t-22.5,9.5t-22.5-9.5t-9.5-22.5l0-64 q0-13 9.5-22.5t 22.5-9.5t 22.5,9.5t 9.5,22.5l0,64 zM 768,640l-512,0 q-26,0 -45,19t-19,45l0,192 q0,27 19,45.5t 45,18.5l 512,0 q 27,0 45.5-18.5t 18.5-45.5l0-192 q0-26 -18.5-45t-45.5-19zM 320,800q0,13 -9.5,22.5t-22.5,9.5
t-22.5-9.5t-9.5-22.5l0-64 q0-13 9.5-22.5t 22.5-9.5t 22.5,9.5t 9.5,22.5l0,64 z"  />
<glyph unicode="&#xf40e;" d="M 961,192l-289,0 l-160-256l-160,256l-288,0 l 128,256l-128,256l 288,0 l 160,256l 160-256l 289,0 l-129-256zM 864,256l-67,135l-85-135l 152,0 zM 512,64l 86,128l-171,0 zM 160,256l 152,0 l-84,135zM 160,640l 68-135l 84,135l-152,0 zM 512,832l-85-128l 171,0 zM 640,640l-256,0 l-128-192l 128-192l 256,0 
l 128,192zM 864,640l-152,0 l 85-135z"  />
<glyph unicode="&#xf40f;" d="M 832,448l-192,0 l0-448 q0-26 -18.5-45t-45.5-19l-128,0 q-26,0 -45,19t-19,45l0,448 l-192,0 q-26,0 -45,19t-19,45l0,128 q0,27 18.5,45.5t 45.5,18.5l 192,0 l0,192 q0,27 19,45.5t 45,18.5l 128,0 q 27,0 45.5-18.5t 18.5-45.5l0-192 l 192,0 q 27,0 45.5-18.5t 18.5-45.5l0-128 q0-26 -18.5-45
t-45.5-19z"  />
<glyph unicode="&#xf410;" d="M 640,832q-104,0 -192.5-51.5t-140-140t-51.5-192.5t 51.5-192.5t 140-140t 192.5-51.5q 95,0 183,43t 148,115q-64-129 -187-207.5t-272-78.5q-104,0 -199,40.5t-163.5,109t-109,163.5t-40.5,199t 40.5,199t 109,163.5t 163.5,109t 199,40.5q 149,0 272-78.5t 187-207.5
q-60,72 -148,115t-183,43zM 786,509l 46,131l 46-131l 146,1l-118-89l 39-133l-113,78l-113-78l 39,133l-118,89z"  />
<glyph unicode="&#xf411;" d="M 1024,576l0-128 l-101,0 q 37-236 37-512l-128,0 q0,269 -44,512l-552,0 q-44-244 -44-512l-128,0 q0,276 37,512l-101,0 l0,128 l 124,0 q 17,75 32,128l-92,0 l-64,256l 1024,0 l-64-256l-92,0 q 15-52 32-128l 124,0 zM 264,576l 184,0 l0,128 l-147,0 q-18-51 -37-128zM 723,704l-147,0 l0-128 l 184,0 q-19,76 -37,128z
"  />
<glyph unicode="&#xf412;" d="M 576,384q-128,93 -128,223q0,50 17,97l-18,18l-267-267l 206-391l 254,0 q 26,0 45-19t 19-45.5t-19-45t-45-18.5l-512,0 q-26,0 -45,18.5t-19,45t 19,45.5t 45,19l 186,0 l-182,343l-13-13q-9-10 -22.5-10t-23,9.5t-9.5,23t 9,22.5l 28,28l-32,61q-7,11 -3.5,24t 15,20t 24,3.5
t 19.5-15.5l 24-46l 256,255q-24,36 -20,80t 35,75q 36,36 87,36t 87-36l 46-46q 48,17 97,17q 131,0 224-128z"  />
<glyph unicode="&#xf413;" d="M 993,153l-186-186q-31-31 -74.5-31t-74.5,31l-627,627q-31,31 -31,74.5t 31,74.5l 28,28l-47,47q-12,12 -12,29t 12,29l 72,72q 12,12 29,12t 29-12l 47-47l 28,28q 31,31 74.5,31t 74.5-31l 627-627q 31-31 31-74.5t-31-74.5zM 384,720l-48,48l-48-48l-48,48l-48-48
l 48-48l-48-48l 48-48l 48,48l 48-48l 48,48l-48,48zM 937,273l-373,373l-251-250l 374-373q 24-22 57-19t 57,27l 128,128q 23,24 26.5,57t-18.5,57zM 640,175l 145,145l 48-49l-145-144z"  />
<glyph unicode="&#xf414;" d="M 960,320l-86,0 q-40-113 -139-184.5t-223-71.5t-223,71.5t-139,184.5l 141,0 q 33-58 92-93t 129-35q 106,0 181,75t 75,181l 64,0 l 64,0 l 64,0 q 27,0 45.5-18.5t 18.5-45t-18.5-45.5t-45.5-19zM 640,448q0-53 -37.5-90.5t-90.5-37.5t-90.5,37.5t-37.5,90.5t 37.5,90.5t 90.5,37.5
t 90.5-37.5t 37.5-90.5zM 512,704q-106,0 -181-75t-75-181l-64,0 l-64,0 l-64,0 q-26,0 -45,18.5t-19,45t 19,45.5t 45,19l 86,0 q 40,113 139,184.5t 223,71.5t 223-71.5t 139-184.5l-140,0 q-34,58 -93,93t-129,35z"  />
<glyph unicode="&#xf415;" d="M 882,393l 142-160l-174-47l 46-122l-165,46l-59-174l-158,105l-74-105l-67,128l-181,0 l 16,116l-156,0 l 73,173l-125,70l 95,76l-94,136l 191,47l0,149 l 87-57l 45,185l 161-135l 148,135l 32-115l 115,64l 28-170l 152,29l-68-154l 131-93zM 576,671q0,14 -9.5,23t-22.5,9l-64,0 
q-13,0 -22.5-9t-9.5-23l0-256 q0-13 9.5-22.5t 22.5-9.5l 64,0 q 13,0 22.5,9.5t 9.5,22.5l0,256 zM 576,287q0,14 -9.5,23t-22.5,9l-64,0 q-13,0 -22.5-9t-9.5-23l0-63 q0-14 9.5-23t 22.5-9l 64,0 q 13,0 22.5,9t 9.5,23l0,63 z"  />
<glyph unicode="&#xf416;" d="M 960,309q-11,11 -27,11t-27-11t-11-26.5t 11-26.5l 59-58l-203-203l-58,58q-11,11 -26.5,11t-27-11t-11.5-26t 11-26l 19-19l-46-46l-623,623l 46,46l 18-18q 11-11 27-11t 27,11t 11,26.5t-11,26.5l-59,58l 203,203l 58-58q 11-11 26.5-11t 26.5,11t 11,26.5t-11,26.5
l-18,18l 46,46l 623-623l-46-46zM 824,248.5q-8,7.5 -19,7.5t-18-8l-20-19l-90,90l 19,20q 8,8 8,19t-8,18.5t-19,7.5t-18-8l-20-19l-68,68q 5,11 5,23q0,26 -18.5,45t-45.5,19q-12,0 -23-5l-68,68l 19,20q 8,7 8,18t-7.5,19t-18.5,8t-19-8l-19-19l-91,90l 20,19q 7,8 7,19
t-7.5,19t-18.5,8t-19-8l-75-75q-8-8 -8-19t 8-18.5t 19-7.5t 19,7l 19,20l 90-90l-19-20q-8-8 -8-19t 8-18.5t 19-7.5t 18,8l 20,19l 68-68q-5-11 -5-23q0-27 19-45.5t 45-18.5q 12,0 23,4l 68-67l-19-20q-8-7 -8-18t 7.5-19t 18.5-8t 19,8l 20,19l 90-90l-19-20
q-8-7 -8-18t 7.5-19t 18.5-8t 19,8l 75,75q 8,8 8,19t-8,18.5z"  />
<glyph unicode="&#xf417;" d="M 951,9q-73-73 -175.5-73t-175.5,73l-527,527q-73,73 -73,175.5t 73,175.5t 175.5,73t 175.5-73l 527-527q 73-73 73-175.5t-73-175.5zM 512,704q-26,0 -70,1t-60,1t-38-4.5t-37-15.5q-21,29 -21,70.5t-12,51.5q-25,25 -60.5,25t-61-25.5t-25.5-61t 25-60.5
q 12-11 31-11t 43.5-2.5t 46.5-19.5q-10-15 -15-36t-5-37.5t 1.5-59.5t 1.5-72l 256-264l0,3.5 l0,4.5 q0,106 75,181t 181,75l 4.5,0 l 3.5,0 zM 768.5,384q-79.5,0 -136-56.5t-56.5-136t 56.5-135.5t 136-56t 135.5,56t 56,135.5t-56,136t-135.5,56.5z"  />
<glyph unicode="&#xf418;" d="M 896,704q-53,0 -90.5,37.5t-37.5,90.5t 37.5,90.5t 90.5,37.5t 90.5-37.5t 37.5-90.5t-37.5-90.5t-90.5-37.5zM 1004,51l-95-95q-19-20 -47-20t-48,20l-474,474q-20,20 -20,48t 20,47l 9,9l-150,150l-177,96q-22,21 -22,52t 22,53l 53,53q 22,22 53,22t 52-22l 96-177
l 150-150l 9,9q 19,20 47,20t 48-20l 474-474q 20-20 20-48t-20-47z"  />
<glyph unicode="&#xf419;" d="M 896-64l-768,0 q-26,0 -45,18.5t-19,45.5l0,895 q0,27 19,45.5t 45,18.5l 448,0 l0-352 q0-13 9.5-22.5t 22.5-9.5l 352,0 l0-1 l0-574 q0-27 -18.5-45.5t-45.5-18.5zM 635,121l-92,92q 33,48 33,107q0,80 -56,136t-135.5,56t-136-56t-56.5-136t 56.5-136t 135.5-56q 59,0 107,33l 92-92
q 5-5 12.5-5t 13.5,5l 26,26q 5,6 5,13.5t-5,12.5zM 384,192q-53,0 -90.5,37.5t-37.5,90.5t 37.5,90.5t 90.5,37.5t 90.5-37.5t 37.5-90.5t-37.5-90.5t-90.5-37.5zM 640,960q 26,0 44-18l 257-257q 19-19 19-46l-320,0 l0,321 z"  />
<glyph unicode="&#xf41a;" d="M 896,0l-768,0 q-53,0 -90.5,37.5t-37.5,90.5l0,384 l0,64 l0,64 q0,26 19,45t 45,19l 64,0 l 704,0 l 64,0 l 128,0 l0-127 l0-1 l0-448 q0-53 -37.5-90.5t-90.5-37.5zM 698,185l-91,92q 33,48 33,107q0,79 -56,135.5t-136,56.5t-136-56.5t-56-136t 56-135.5t 136-56q 59,0 107,33l 92-92q 5-5 12.5-5
t 13.5,5l 25,26q 6,6 6,13.5t-6,12.5zM 448,256q-53,0 -90.5,37.5t-37.5,90.5t 37.5,90.5t 90.5,37.5t 90.5-37.5t 37.5-90.5t-37.5-90.5t-90.5-37.5zM 590,788q 7,19 28,31.5t 44,12.5l 240,0 q 24,0 45-12.5t 29-31.5l 48-84l-480,0 zM 46,852q 7,19 28,31.5t 44,12.5l 240,0 q 24,0 45-12.5
t 29-31.5l 48-84l-480,0 z"  />
<glyph unicode="&#xf41b;" d="M 768,448l-704,0 q-26,0 -45,19t-19,45.5t 19,45t 45,18.5l 12,0 l 180,0 q 27,0 45.5,19t 18.5,45.5t-18.5,45t-45,18.5t-45.5,19t-19,45.5t 19,45t 45,18.5q 6,0 13-1q 75-5 127-60t 52-131q0-31 -12-64l 12,0 l 99,0 l 221,0 q 53,0 90.5,37.5t 37.5,90.5t-37.5,90.5t-90.5,37.5t-90.5-37.5
t-37.5-90.5q0-26 -18.5-45t-45-19t-45.5,19t-19,45q0,106 75,181t 181,75t 181-75t 75-181t-75-181t-181-75zM 64,384l 320,0 q 4,0 11-1q 11,1 21,1q 93,0 158.5-65.5t 65.5-158.5q0-48 -13.5-87.5t-42.5-70.5t-79.5-48.5t-120.5-17.5q-27,0 -45.5,19t-18.5,45.5t 19,45
t 45,18.5q 31,0 53.5,3t 36.5,10.5t 22,14t 11.5,20.5t 4,22.5t 0.5,25.5q0,40 -28,68t-68,28l-202,0 l-150,0 q-26,0 -45,19t-19,45.5t 18.5,45t 45.5,18.5z"  />
<glyph unicode="&#xf41c;" d="M 576,262l0-198 l 128,0 q 26,0 45-18.5t 19-45t-19-45.5t-45-19l-384,0 q-27,0 -45.5,19t-18.5,45.5t 18.5,45t 45.5,18.5l 128,0 l0,198 q-137,26 -228.5,143.5t-91.5,272.5q0,161 98,282l 222,0 l 64-192l-192-64l 192-320l-64,256l 192,64l-64,256l 221,0 q 99-121 99-282
q0-155 -91.5-272.5t-228.5-143.5z"  />
<glyph unicode="&#xf41d;" d="M 960-64l-896,0 q-26,0 -45,18.5t-19,45.5l0,64 q0,26 19,45t 45,19l 896,0 q 27,0 45.5-19t 18.5-45l0-64 q0-27 -18.5-45.5t-45.5-18.5zM 896,704l0-384 q0-27 -18.5-45.5t-45.5-18.5l-64,0 q-26,0 -45,18.5t-19,45.5l0,384 l-120,0 q-8,8 -8,20t 8,21l 196,206q 8,9 19.5,9t 19.5-9l 197-206
q 8-9 8-21t-8-20l-120,0 zM 320,704l0-384 q0-27 -18.5-45.5t-45.5-18.5l-64,0 q-26,0 -45,18.5t-19,45.5l0,384 l-120,0 q-8,8 -8,20t 8,21l 196,206q 9,9 20,9t 20-9l 196-206q 8-9 8-21t-8-20l-120,0 z"  />
<glyph unicode="&#xf41e;" d="M 992-64l-960,0 q-13,0 -22.5,9.5t-9.5,22.5l0,704 q0,13 9.5,22.5t 22.5,9.5l 211,0 l 245,245l 0.5,1l 0.5,1q 10,9 23,9t 23-9l 0.5-1l 0.5-1l 245-245l 211,0 q 13,0 22.5-9.5t 9.5-22.5l0-704 q0-13 -9.5-22.5t-22.5-9.5zM 512,883l-179-179l 358,0 zM 896,576l-768,0 l0-512 l 768,0 l0,512 z"  />
<glyph unicode="&#xf41f;" d="M 512,192q-139,0 -257,21.5t-186.5,58.5t-68.5,80.5t 69.5,80t 186.5,57.5l0,86 q0,106 75,181t 181,75t 181-75t 75-181l0-86 q 117-21 186.5-57.5t 69.5-80t-68.5-80.5t-186.5-58.5t-257-21.5zM 704,559q0,86 -56,147.5t-136,61.5t-136-61.5t-56-147.5l0-68 q 90-43 192-43
t 192,43l0,68 zM 958,210q-15-62 -143-104t-303-42t-303,42t-143,104q 67-38 186-60t 260-22t 260,22t 186,60z"  />
<glyph unicode="&#xf420;" d="M 512-64q-139,0 -257,68.5t-186.5,186.5t-68.5,257q0,104 40.5,199t 109,163.5t 163.5,109t 199,40.5t 199-40.5t 163.5-109t 109-163.5t 40.5-199t-40.5-199t-109-163.5t-163.5-109t-199-40.5zM 233,798q 4-6 15-14q 10-8 29.5-7.5t 30.5-0.5q 25,31 53,47q 16,10 39.5,16
t 38.5,7l 15,2q-6-7 -15.5-18.5t-26.5-43.5t-20-60q 4-4 28.5-10.5t 27.5-11.5l 64,0 q 13,0 18-23t-3-37q-5-1 -25.5-13t-50.5-30t-43-25q-2-4 -3-5q-2-4 3.5-33.5t-2.5-49.5q-1-2 -4.5-0.5t-10.5,5.5t-12,6q-8,4 -17.5,5t-9.5,0q-11-15 -17-28q 3-17 5-21
q 13-27 38-50.5t 57-27.5q 18-2 36.5,7.5t 32,22.5t 31.5,24t 33,10q 37,0 61-12.5t 24-34.5q0-6 -6-11l 0.5-0.5t 1.5-0.5q-3-3 -9-5t-10.5-3t-13-1.5t-10.5-0.5q-12-2 -30-24.5t-32-27.5q-17-6 -41-24.5t-45.5-30.5t-41.5-9q 5-6 2-7q-1,0 4-5
q 43-32 117-31q-17-10 -48-13q 19-8 39-13q 76-5 123,11t 84,57q-4-26 -20-49q 7,3 15,8q 49,50 69,93t 18,91l0,2.5 l0,2.5 q0,8 -1,13q 15-18 21-42q 3,117 -24,164q 39-23 61-64q 1,118 -37,194q 29-20 51-46q-19,85 -80,159q-127,115 -298,115q-156,0 -279-98z"  />
<glyph unicode="&#xf421;" d="M 1019.5,479.5q-12.5-39.5 -49-68t-76.5-28.5l-159,0 l 64,192l 154,0 q 40,0 59.5-28t 7-67.5zM 607,575l-160,0 l 64,192l 155,0 q 39,0 58.5-28t 7.5-68t-48.5-68t-76.5-28zM 602,511q 39,0 58.5-28t 7.5-67.5t-48.5-67.5t-76.5-28l-160,0 l 64,191l 155,0 zM 224,575l-160,0 l 64,192l 154,0 
q 40,0 59.5-28t 7.5-68t-49-68t-76-28zM 218,511q 40,0 59.5-28t 7.5-67.5t-49-67.5t-76-28l-160,0 l 64,191l 154,0 zM 538,256q 39,0 58.5-28t 7.5-68t-48.5-68t-76.5-28l-160,0 l 64,192l 155,0 zM 889,320q 40,0 59.5-28.5t 7.5-68t-49-67.5t-76-28l-160,0 l 64,192l 154,0 z"  />
<glyph unicode="&#xf422;" d="M 896-64l-768,0 q-53,0 -90.5,37.5t-37.5,90.5l0,512 q0,53 37.5,90.5t 90.5,37.5l 128,0 l0,96 q0,68 51,114t 109,46l 192,0 q 58,0 109-46t 51-114l0-96 l 128,0 q 53,0 90.5-37.5t 37.5-90.5l0-512 q0-53 -37.5-90.5t-90.5-37.5zM 288,512q-40,0 -68-28t-28-68t 28-68t 68-28t 68,28t 28,68
t-28,68t-68,28zM 640,768q0,27 -18.5,45.5t-45.5,18.5l-128,0 q-26,0 -45-18.5t-19-45.5l0-64 l 256,0 l0,64 zM 832,320l-256-64l 64-192l 256,64z"  />
<glyph unicode="&#xf423;" d="M 968,521l 50-128q 12-29 1-51t-39-22l-70,0 q 26-29 38-64l 44,0 q 13,0 22.5-9.5t 9.5-22.5t-9.5-22.5t-22.5-9.5l-32,0 q0-25 -9-54l 25-14q 12-7 15-20t-3.5-24t-19-14.5t-24.5,2.5l-20,12q-9-12 -23-26l 23-38q 7-12 3.5-24.5t-15-19t-24.5-3.5t-20,15l-20,34
q-39-18 -80-18l0-32 q0-13 -9.5-22.5t-22.5-9.5t-22.5,9.5t-9.5,22.5l0,32 l-64,0 l0-32 q0-13 -9.5-22.5t-22.5-9.5t-22.5,9.5t-9.5,22.5l0,32 l-64,0 l0-32 q0-13 -9.5-22.5t-22.5-9.5t-22.5,9.5t-9.5,22.5l0,32 l-64,0 l0-32 q0-13 -9.5-22.5t-22.5-9.5t-22.5,9.5t-9.5,22.5l0,32 l-64,0 
l0-32 q0-13 -9.5-22.5t-22.5-9.5t-22.5,9.5t-9.5,22.5l0,44 q-21,8 -37,18l-43-26q-12-6 -24.5-2.5t-19,14.5t-3,24t 14.5,20l 25,14q-19,25 -29,54l-44,0 q-13,0 -22.5,9.5t-9.5,22.5t 9.5,22.5t 22.5,9.5l 32,0 q0,25 9,54l-25,14q-11,7 -14.5,19.5t 3,24t 19,15t 24.5-2.5l 21-12
q 5,8 13,16l-63,0 q-27,0 -41.5,22t-7.5,51l 31,128q 5,23 25,39t 43,16l 142,0 q-27,0 -41.5,21.5t-7.5,51.5l 31,127q 5,24 25,40t 43,16l 279,0 q 19,0 38-12t 31-30l 285,161q 23,13 49,6.5t 39.5-29.5t 6.5-48.5t-30-39.5l-301-170l 8-21q 12-29 1-51t-39-22l 232,0 q 23,0 45-16t 31-39z
M 256.5,256q-26.5,0 -45.5-19t-19-45t 19-45t 45.5-19t 45,19t 18.5,45t-18.5,45t-45,19zM 512.5,256q-26.5,0 -45.5-19t-19-45t 19-45t 45.5-19t 45,19t 18.5,45t-18.5,45t-45,19zM 768.5,256q-26.5,0 -45.5-19t-19-45t 19-45t 45.5-19t 45,19t 18.5,45t-18.5,45t-45,19z"  />
<glyph unicode="&#xf424;" d="M 981,534l-548-79q-15-10 -30-4l-19-3l0,14 l-256,153l0-615 q0-26 -18.5-45t-45-19t-45.5,19t-19,45l0,896 q0,27 19,45.5t 45.5,18.5t 45-18.5t 18.5-45.5l0-103 l 256,153l0,14 l 19-3q 15,6 30-4l 548-79q 18-2 30.5-15.5t 12.5-31.5l0-246 q0-18 -12.5-31.5t-30.5-15.5z
M 128,718l0-28 l 256-152l0,332 zM 512,855l-64,9l0-320 l 64,9l0,302 zM 768,821l-128,17l0-268 l 128,17l0,234 zM 960,764q0,14 -9.5,24t-23.5,12l-31,4l0-200 l 31,4q 14,2 23.5,12t 9.5,24l0,120 z"  />
<glyph unicode="&#xf425;" d="M 960-64q-27,0 -45.5,19t-18.5,45l0,615 l-256-153l0-14 l-19,3q-15-6 -30,4l-548,79q-18,2 -30.5,15.5t-12.5,31.5l0,246 q0,18 12.5,32t 30.5,15l 548,79q 15,10 30,4l 19,3l0-14 l 256-153l0,103 q0,27 18.5,45.5t 45,18.5t 45.5-18.5t 19-45.5l0-896 q0-26 -18.5-45t-45.5-19zM 128,804
l-31-4q-14-2 -23.5-12t-9.5-24l0-120 q0-14 9.5-24t 23.5-12l 31-4l0,200 zM 384,838l-128-17l0-234 l 128-17l0,268 zM 576,864l-64-9l0-302 l 64-9l0,320 zM 640,870l0-332 l 256,152l0,28 z"  />
<glyph unicode="&#xf426;" d="M 832,704l-64,0 l-64-64l-192,64l-192,0 l 384-128l 64-64l-64-64l-384,128l-64,64l 64,64l-128,0 q-26,0 -45,19t-19,45l0,128 q0,27 19,45.5t 45,18.5l 640,0 q 27,0 45.5-18.5t 18.5-45.5l0-128 q0-26 -18.5-45t-45.5-19zM 704,384l 64-64l-64-64l-384,128l-64,64l 64,64zM 704,192
l 64-64l-64-64l-384,128l-64,64l 64,64zM 704,0l-64-64l-128,0 l-192,64l-64,64l 64,64z"  />
<glyph unicode="&#xf427;" d="M 512-64l-448,256l0,512 l 448,256l 448-256l0-512 zM 512.5,640q-79.5,0 -136-56t-56.5-136t 56-136t 136-56t 136,56t 56,136t-56,136t-135.5,56z"  />
<glyph unicode="&#xf428;" d="M 1021-61q-16-16 -113.5,53t-131.5,103l-527,527q-229-55 -239-44q-10,9 -10,22.5t 10,23.5l 326,326q 10,10 23.5,10t 22.5-10q 11-10 -44-239l 527-527q 34-34 103-131.5t 53-113.5z"  />
<glyph unicode="&#xf429;" d="M 946,492q-50-180 -50-300l0-192 l-64,0 l0,256 q0,127 -42,175q-23-18 -49-59.5t-47.5-88t-49.5-98t-55-92t-64-67t-77-26.5q-102,0 -201.5,10t-173,33t-73.5,53q0,26 65,79t 142,97t 113,48q 18-18 30.5-28.5t 40.5-23t 57-12.5q 23,0 87,82.5t 129.5,189t 116.5,215
t 51,153.5q 80,0 136-65.5t 56-158.5q0-54 -21-101t-57-79z"  />
<glyph unicode="&#xf42a;" d="M 998,634l-174-158l 58-58q 14-14 14-34t-14-34l-337-336q-14-14 -33.5-14t-33.5,14l-315,315q-72,21 -117.5,80t-45.5,135q0,92 65.5,158t 158.5,66q 54,0 100.5-24t 77.5-66l 76,76q 14,14 33.5,14t 33.5-14l 137-136l 316,338q 13,14 22-15q 4-11 4-21l0-226 
q0-13 -7.5-30.5t-18.5-29.5zM 540,692q-12,12 -28.5,12t-27.5-12l-57-56q 21-45 21-92q0-37 -14-76l 54-57l 161,172zM 789,444l-275-249q-7-6 -20-1.5t-25,13.5l-12,8l-131,130q-41-21 -88-24l 246-245q 11-12 27.5-12t 28.5,12l 280,280q 12,12 12,28t-12,28z"  />
<glyph unicode="&#xf42b;" d="M 832,192q-34,34 -47.5,81.5t-15.5,110.5l-65,0 l0-160 q0-13 -9.5-22.5t-22.5-9.5t-22.5,9.5t-9.5,22.5l0,160 l-64,0 l0-160 q0-13 -9.5-22.5t-22.5-9.5t-22.5,9.5t-9.5,22.5l0,160 l-64,0 l0-96 q0-13 -9.5-22.5t-22.5-9.5t-22.5,9.5t-9.5,22.5l0,96 l-64,0 l0-32 q0-13 -9.5-22.5
t-22.5-9.5t-22.5,9.5t-9.5,22.5l0,32 l-78,0 q-20-53 -58.5-98.5t-87.5-61.5q-1,5 -16.5,15.5t-15.5,16.5q0,79 30.5,125t 97.5,60l0,14 q-67,14 -97.5,60t-30.5,125q0,6 15.5,16.5t 16.5,15.5q 49-16 87.5-61.5t 58.5-98.5l 78,0 l0,32 q0,13 9.5,22.5t 22.5,9.5t 22.5-9.5t 9.5-22.5l0-32 
l 64,0 l0,96 q0,13 9.5,22.5t 22.5,9.5t 22.5-9.5t 9.5-22.5l0-96 l 64,0 l0,160 q0,13 9.5,22.5t 22.5,9.5t 22.5-9.5t 9.5-22.5l0-160 l 64,0 l0,160 q0,13 9.5,22.5t 22.5,9.5t 22.5-9.5t 9.5-22.5l0-160 l 65,0 q 2,63 15.5,110.5t 47.5,81.5q 88-15 140-87t 52-169t-52-169t-140-87zM 864,512
q-13,0 -22.5-9.5t-9.5-22.5l0,0 q0-13 9.5-22.5t 22.5-9.5t 22.5,9.5t 9.5,22.5t-9.5,22.5t-22.5,9.5z"  />
<glyph unicode="&#xf42c;" d="M 960,576q0-128 -64-128q-3,0 -5-5q 5-32 5-59q0-108 -54.5-214.5t-142.5-169.5l-374,0 q-99,71 -155,197q-18-5 -42-5q-34,0 -64,46.5t-47,112.5t-17,129q0,160 128,160q 51,0 80-22q 54,70 133.5,110t 170.5,40q 97,0 181-45.5t 137-123.5q 2,6 2,9q0,66 47,113
t 113,47q 16,0 32-3l0-125 q-27,0 -45.5-18.5t-18.5-45.5zM 128,576q-64,0 -64-114q0-57 27.5-120.5t 55.5-80.5q-19,65 -19,123q0,85 37,163q-17,29 -37,29zM 448,832.5q0,26.5 18.5,45t 45,18.5t 45.5-18.5t 19-45t-19-45.5t-45.5-19t-45,19t-18.5,45.5z"  />
<glyph unicode="&#xf42d;" d="M 1024,192q-96-48 -152-104t-104-152q0,16 -1.5,32.5t-5.5,36t-7,33.5t-10,36.5t-9.5,32t-10.5,34t-10,29.5q-170-119 -384.5,95.5t-95.5,384.5q-4,1 -29,9.5t-34.5,11t-32,9.5t-36.5,10t-33.5,7t-36,5.5t-32.5,1.5q 96,48 152,104t 104,152q0-16 1.5-32.5t 5.5-36
t 7-33.5t 10-36.5t 9.5-32t 11-34.5t 9.5-29q 170,119 384.5-95.5t 95.5-384.5q 5-1 29.5-9.5t 34-11t 32-9.5t 36.5-10t 33.5-7t 36-5.5t 32.5-1.5z"  />
<glyph unicode="&#xf42e;" d="M 960,64l-64,0 l0-32 q0-13 -9.5-22.5t-22.5-9.5t-22.5,9.5t-9.5,22.5l0,32 l-640,0 l0-32 q0-13 -9.5-22.5t-22.5-9.5t-22.5,9.5t-9.5,22.5l0,32 l-64,0 q-26,0 -45,19t-19,45l0,640 q0,26 19,45t 45,19l 896,0 q 27,0 45.5-18.5t 18.5-45.5l0-640 q0-27 -18.5-45.5t-45.5-18.5zM 864,320
q 13,0 22.5,9.5t 9.5,22.5t-9.5,22.5t-22.5,9.5t-22.5-9.5t-9.5-22.5t 9.5-22.5t 22.5-9.5zM 800,256q 13,0 22.5,9.5t 9.5,22.5t-9.5,22.5t-22.5,9.5t-22.5-9.5t-9.5-22.5t 9.5-22.5t 22.5-9.5zM 800,384q 13,0 22.5,9.5t 9.5,22.5t-9.5,22.5t-22.5,9.5t-22.5-9.5t-9.5-22.5
t 9.5-22.5t 22.5-9.5zM 704,640q0,27 -18.5,45.5t-45.5,18.5l-512,0 q-26,0 -45-18.5t-19-45.5l0-384 q0-26 19-45t 45-19l 512,0 q 27,0 45.5,19t 18.5,45l0,384 zM 960,672q0,13 -9.5,22.5t-22.5,9.5l-128,0 q-13,0 -22.5-9.5t-9.5-22.5l0-64 q0-13 9.5-22.5t 22.5-9.5l 128,0 
q 13,0 22.5,9.5t 9.5,22.5l0,64 zM 928,448q-13,0 -22.5-9.5t-9.5-22.5t 9.5-22.5t 22.5-9.5t 22.5,9.5t 9.5,22.5t-9.5,22.5t-22.5,9.5zM 928,320q-13,0 -22.5-9.5t-9.5-22.5t 9.5-22.5t 22.5-9.5t 22.5,9.5t 9.5,22.5t-9.5,22.5t-22.5,9.5z"  />
<glyph unicode="&#xf42f;" d="M 769,331q 18-17 67-8t 90,39q 50-79 74.5-148.5t 23.5-119.5t-13.5-84.5t-35.5-56.5q-46-47 -145.5,30.5t-329.5,308.5l-72,72q-241,241 -289,292q-137,149 -139,212q-1,25 17,43q 21,21 53,33.5t 77.5,15t 109-17t 135.5-60.5q-8-11 -11-14q-26-30 -60.5-54
t-63.5-35q 11-9 33.5-10.5t 48.5,5t 53.5,22t 47.5,37.5q0,1 9,13q 93-62 197-159q-1,0 -4-4.5t-5-6.5q-27-30 -61-54t-63-35q 11-9 33.5-10.5t 48,5t 53,22t 47.5,36.5l 2.5-2.5l 2.5-2.5q 113-113 189-219q-59-63 -120-85z"  />
<glyph unicode="&#xf430;" d="M 942-64l-860,0 q-31,0 -50,13t-25.5,32.5t-6,45t 5.5,47t 12,42.5l 90,490q 14,47 55,72.5t 89,25.5l 80,0 q-12,33 -12,64q0,80 56,136t 136,56t 136-56t 56-136q0-31 -12-64l 80,0 q 48,0 89-25.5t 55-72.5l 90-490q 7-21 12-42.5t 5.5-47t-6-45t-25.5-32.5t-50-13zM 512,832
q-27,0 -45.5-18.5t-18.5-45t 18.5-45.5t 45.5-19t 45.5,19t 18.5,45.5t-18.5,45t-45.5,18.5zM 608,192l-32,0 q-24,0 -44,21t-20,43l0,64 l 32,0 q 13,0 22.5,9.5t 9.5,22.5t-9.5,22.5t-22.5,9.5l-32,0 l0,96 q0,13 -9.5,22.5t-22.5,9.5t-22.5-9.5t-9.5-22.5l0-96 l-32,0 q-13,0 -22.5-9.5
t-9.5-22.5t 9.5-22.5t 22.5-9.5l 32,0 l0-64 q0-48 40-88t 88-40l 32,0 q 13,0 22.5,9.5t 9.5,22.5t-9.5,22.5t-22.5,9.5z"  />
<glyph unicode="&#xf33f;" d="M 1005,595l-448-512q-18-19 -44.5-19t-45.5,19l-448,512q-19,18 -19,44.5t 19,45.5l 128,128q 19,19 45,19l 640,0 q 26,0 45-19l 128-128q 19-18 19-45t-19-45zM 512,128l 115,131q-20-3 -39-3l-92,0 q-59,0 -105,10zM 288,384l 96,0 q0-32 28.5-48t 67.5-16l 64,0 q 57,0 76.5,13
t 19.5,51q0,29 -31,46.5t-97,17.5q-77,0 -120,1t-96.5,7.5t-87.5,18.5zM 192,768l-128-128l 65-74l-0.5,4t-0.5,6q0,47 45,92.5t 109,72.5t 122,27l-212,0 zM 544,768q 138,0 182-70l 42,70l-224,0 zM 869,731l-69-91l-128,0 q0,22 -23,37t-51,21t-54,6l-96,0 q-62,0 -95-14.5t-33-49.5
q0-26 60-45t 132-19q 73,0 125-10.5t 79.5-29.5t 39.5-40.5t 12-47.5q0-10 -2-30l 194,222z"  />
<glyph unicode="&#xf340;" d="M 654,832q 107-49 174.5-156t 67.5-228t-67.5-228t-174.5-156l 242,0 l 64-128l-896,0 l 64,128l 242,0 q-107,49 -174.5,156t-67.5,228t 67.5,228t 174.5,156l-242,0 l-64,128l 896,0 l-64-128l-242,0 zM 256,448q0-106 75-181t 181-75t 181,75t 75,181t-75,181t-181,75t-181-75t-75-181z
"  />
<glyph unicode="&#xf341;" d="M 512-64q-139,0 -257,68.5t-186.5,186.5t-68.5,257t 68.5,257t 186.5,186.5t 257,68.5t 257-68.5t 186.5-186.5t 68.5-257t-68.5-257t-186.5-186.5t-257-68.5zM 512,896q-91,0 -174-35.5t-143-95.5t-95.5-143t-35.5-174t 35.5-174t 95.5-143t 143-95.5t 174-35.5
t 174,35.5t 143,95.5t 95.5,143t 35.5,174t-35.5,174t-95.5,143t-143,95.5t-174,35.5zM 700,189l-65,219l 181,139q 16-49 16-99q0-78 -35.5-146t-96.5-113zM 588,553l-76,215q 105,0 189-62t 115-159zM 208,547q 31,97 115,159t 189,62l-76-215zM 389,408l-65-219
q-61,45 -96.5,113t-35.5,146q0,50 16,99zM 512,319l 188-130q-84-61 -188-61t-188,61z"  />
<glyph unicode="&#xf342;" d="M 512-64q-139,0 -257,68.5t-186.5,186.5t-68.5,257t 68.5,257t 186.5,186.5t 257,68.5t 257-68.5t 186.5-186.5t 68.5-257t-68.5-257t-186.5-186.5t-257-68.5zM 576,70l0,122 l-256,0 l-29-58q 100-70 221-70q 30,0 64,6zM 384,320l 192,0 l0,384 zM 128,448q0-109 58-203l 293,585
q-148-12 -249.5-122t-101.5-260zM 704,780l0-664 q 88,51 140,139t 52,193t-52,193t-140,139z"  />
<glyph unicode="&#xf343;" d="M 805,383q 27-25 27-63q0-95 -128-134l0-218 q0-13 -9.5-22.5t-22.5-9.5t-22.5,9.5t-9.5,22.5l0,128 l0,64 l0,12 l-1-0.5l-1-0.5q-8,21 -30,21q-12,0 -21-8t-10-20l-1,0 l0-4 l0-64 l0-128 q0-13 -9.5-22.5t-22.5-9.5t-22.5,9.5t-9.5,22.5l0,128 l0,64 l0,0 q0,14 -9.5,23t-22.5,9
t-22.5-9t-9.5-23l0,0 l0-64 l0-128 q0-13 -9.5-22.5t-22.5-9.5t-22.5,9.5t-9.5,22.5l0,128 l0,64 l0,4 l-1,0 q-1,12 -10,20t-21,8q-22,0 -30-21l-1,0 t-1,1l0-12 l0-64 l0-128 q0-13 -9.5-22.5t-22.5-9.5t-22.5,9.5t-9.5,22.5l0,218 q-128,39 -128,134q0,38 27,63q-91,95 -91,225q0,72 30.5,137
t 84.5,112t 132,75t 169,28t 169-28t 132-75t 84.5-112t 30.5-137q0-130 -91-225zM 256,608q0,13 -9.5,22.5t-22.5,9.5t-22.5-9.5t-9.5-22.5q0-71 37-115.5t 91-44.5q 64,0 64,32q-128,64 -128,128zM 416,384q-13,0 -22.5-9.5t-9.5-22.5t 9.5-22.5t 22.5-9.5q 24,0 28,4
t 4,28t-4,28t-28,4zM 544,384q-24,0 -28-4t-4-28t 4-28t 28-4q 13,0 22.5,9.5t 9.5,22.5t-9.5,22.5t-22.5,9.5zM 736,640q-13,0 -22.5-9.5t-9.5-22.5q0-64 -128-128q0-32 64-32q 54,0 91,44.5t 37,115.5q0,13 -9.5,22.5t-22.5,9.5z"  />
<glyph unicode="&#xf344;" d="M 512-64q-104,0 -199,40.5t-163.5,109t-109,163.5t-40.5,199t 40.5,199t 109,163.5t 163.5,109t 199,40.5t 199-40.5t 163.5-109t 109-163.5t 40.5-199t-40.5-199t-109-163.5t-163.5-109t-199-40.5zM 470,292q-38,6 -62,22.5t-24,37.5q0,20 23.5,36.5t 61.5,23.5
q-20,63 -71,135.5t-110,129.5q 68,31 110.5,88t 46.5,125q-107-16 -194-78t-137-158t-50-206q0-115 54-214t 147.5-160.5t 206.5-71.5q-19,2 -38,5q-24,71 -87,119q 40,30 74,73t 49,93zM 579,890q 4-68 46.5-125t 110.5-88q-59-57 -110-129.5t-71-135.5
q 38-7 61.5-23.5t 23.5-36.5q0-21 -24-37.5t-62-22.5q 15-50 49-93t 74-73q-63-48 -87-119q-19-3 -38-5q 113,10 206.5,71.5t 147.5,160.5t 54,214q0,110 -50,206t-137,158t-194,78zM 704,256q 16,6 30,13.5t 22.5,13t 20.5,16t 17,15t 19,19t 19,19.5q 15,15 23.5,47t 8.5,49
q 11,0 21.5-19.5t 10.5-44.5q0-92 -61-115q-33-13 -131-13zM 128,384q0,25 10.5,44.5t 21.5,19.5q0-17 8.5-49t 23.5-47q 5-5 19-19.5t 18.5-19t 17-15t 21-16t 22.5-13t 30-13.5l-1,0 l-33,0 t-30,1t-28.5,2.5t-24.5,4.5t-22.5,8l-18,12t-15.5,16.5t-10,21.5t-7,27.5
t-2,34.5z"  />
<glyph unicode="&#xf345;" d="M 512-64q-139,0 -257,68.5t-186.5,186.5t-68.5,257t 68.5,257t 186.5,186.5t 257,68.5t 257-68.5t 186.5-186.5t 68.5-257t-68.5-257t-186.5-186.5t-257-68.5zM 512,128q 78,0 148,36l-148,148l-148-148q 70-36 148-36zM 228,300l 148,148l-148,148q-36-70 -36-148t 36-148
zM 512,768q-78,0 -148-36l 148-148l 148,148q-70,36 -148,36zM 796,596l-148-148l 148-148q 36,70 36,148t-36,148z"  />
<glyph unicode="&#xf346;" d="M 960,320q0-43 -0.5-65.5t-4-61.5t-11.5-66t-21.5-61.5t-36.5-66.5t-54-63q 29,88 44.5,159t 17.5,98.5t 2,62.5q0,23 -14.5,43t-37,33.5t-43,22.5t-40.5,15q 7-22 7-50q0-30 -0.5-49t-4-56t-12-63.5t-21.5-57.5t-36-55t-54-39q 30,59 45,115t 17,84t 2,71
q0,47 -18,71.5t-53,34.5q-11-69 -35.5-140t-57-121.5t-60.5-50.5t-60.5,50.5t-57,121.5t-35.5,140q-35-10 -53-34.5t-18-71.5q0-43 2-71t 17-84t 45-115q-31,15 -54,39t-36,55t-21.5,57.5t-12,63.5t-4,56t-0.5,49q0,28 7,50q-20-6 -40.5-15t-43-22.5t-37-33.5
t-14.5-43q0-35 2-62.5t 17.5-98.5t 44.5-159q-36,36 -62,82.5t-38.5,84.5t-19,87t-7.5,72t-1,58q0,27 11.5,47.5t 34.5,34t 50.5,22.5t 66,14t 74.5,7t 83,3l0,0 q-51,1 -87,4t-70,11t-54.5,21.5t-32.5,36.5t-12,55q0,35 1,58t 7.5,72t 19,86.5t 38.5,84.5t 62,83q-64-192 -64-359
q0-55 71-75q-7,22 -7,50q0,30 0.5,49t 4,56t 12,63.5t 21.5,57.5t 36,55t 54,39q-30-59 -45-115t-17-84t-2-71q0-54 23.5-78.5t 69.5-31.5q 24,27 60.5,43.5t 70.5,16.5t 70.5-16.5t 60.5-43.5q 46,7 69.5,31.5t 23.5,78.5q0,43 -2,71t-17,84t-45,115q 31-15 54-39t 36-55
t 21.5-57.5t 12-63.5t 4-56t 0.5-49q0-28 -7-50q 71,20 71,75q0,167 -64,359q 31-31 54-63t 36.5-66.5t 21.5-61.5t 11.5-66t 4-61.5t 0.5-65.5q0-32 -12-55t-32.5-36.5t-54.5-21.5t-70-11t-87-4l0,0 q 47-1 83-3t 74.5-7t 66-14t 50.5-22.5t 34.5-34t 11.5-47.5z
M 384,672q0,40 28,68t 68,28t 68-28t 28-68t-28-68t-68-28t-68,28t-28,68z"  />
<glyph unicode="&#xf347;" d="M 862,250q-81-67 -212-101l-132,237l 198,357q 106-23 179-58q 4-25 4-45l0-35.5 l0-50 t-1-52t-3.5-63.5t-6.5-61t-10.5-67t-15.5-61zM 721,499q-47-21 -95-54.5t-48-48.5q0-19 5.5-32.5t 18-21.5t 23.5-13t 31-7t 31.5-2.5t 33.5-0.5q 114,0 114,257
q0-1 -12.5-12.5t-41-31t-60.5-33.5zM 783,863q 70-57 99-131q-56,40 -136,65zM 514,832l0,128 q 119-6 215-61l-47-85q-78,16 -168,18zM 348,79q 52-13 101-16l0-127 q-75,10 -149,57zM 449,262l0-134 q-37,2 -70,7zM 449,768l0-258 l-135,245q 69,11 135,13zM 235,897
q 96,55 214,63l0-128 q-90-3 -168-19zM 181,861l 36-64q-80-25 -135-64q 29,72 99,128zM 445,386l-132-238q-125,32 -205,97q-44,139 -44,395q0,20 5,45q 73,35 178,57zM 128,576q0-257 114-257q 22,0 33.5,0.5t 31.5,2.5t 31,6.5t 23.5,13t 18,22t 5.5,32.5q0,15 -48,48.5
t-95,54.5q-32,14 -60.5,33.5t-40.5,31.5zM 248,31q-74,63 -115,151q 64-52 152-84zM 514,510l0,258 q 67-2 136-13zM 514,127l0,135 l 70-127q-36-6 -70-8zM 664-9q-76-47 -150-55l0,127 q 49,3 101,16zM 717,29l-39,70q 95,34 162,91q-43-94 -123-161z"  />
<glyph unicode="&#xf348;" d="M 832,64q-49-49 -154-88.5t-194-39.5q-91,0 -199,39.5t-157,88.5q-64,64 -64,512l0,352 q0,13 9.5,22.5t 22.5,9.5t 22.5-9.5t 9.5-22.5l 37-149q 60,54 143.5,85.5t 175.5,31.5q 91,0 172-31t 139-84l 37,147q0,13 9.5,22.5t 22.5,9.5t 22.5-9.5t 9.5-22.5l0-352 
q0-448 -64-512zM 320,512q-26,0 -65.5,20t-53.5,46q-9-17 -9-34q0-43 23-69.5t 73-26.5q 48,0 68.5,14t 27.5,50l-64,0 zM 759,578q-14-27 -52.5-46.5t-66.5-19.5l-64,0 q 7-36 27.5-50t 68.5-14q 50,0 73,26.5t 23,69.5q0,17 -9,34zM 480,256l-352,128l0,0 l0,0 l0,0 q0-218 54-273
q 41-42 133-76.5t 168-34.5q 75,0 164,34t 131,77q 54,55 54,273z"  />
<glyph unicode="&#xf349;" d="M 837,128q-24-52 -73-102t-109-90l-350,0 q-56,37 -103.5,88t-73.5,104q-64,128 -64,512q0,35 11,96.5t 21,95.5l 160,96q 99,32 227,32q 121,0 221-32l 160-96q 10-34 21-95.5t 11-96.5q0-384 -59-512zM 335,0l 294,0 q 88,61 139,160l-64-32l-64,0 l-48,64l-224,0 l-48-64l-64,0 
l-64,32q 43-90 143-160zM 832,768l-162,100q-33,11 -65,17l-29-117q-7-27 -23-45.5t-41-18.5l-64,0 q-24,0 -40.5,19.5t-23.5,44.5l-29,116q-30-6 -60-16l-167-100l0-224 q0-55 16-137.5t 16-118.5q0-24 6-51l 125-62l 61,81l 256,0 l 61-81l 125,62q 6,28 6,51
q0,34 16,118.5t 16,137.5l0,224 zM 576,544l 192,32l0-64 l-192-64l0,96 zM 192,576l 192-32l0-96 l-192,64l0,64 z"  />
<glyph unicode="&#xf34a;" d="M 872,500q-29,48 -82,66q-68,41 -150,60l0,290 q 117-25 186.5-95t 69.5-180q0-93 -6-168q-5,12 -18,27zM 448,637l0,228 l0,60 l0,4 q0,13 9.5,22.5t 22.5,9.5l 64,0 q 13,0 22.5-9.5t 9.5-22.5l0-3 l0-61 l0-228 q-34,4 -63.5,4t-64.5-4zM 152,501q-13-16 -18-28q-6,75 -6,168q0,108 70,178
t 186,96l0-289 q-82-19 -150-60q-53-18 -82-65zM 288,320q-40,0 -68,28.5t-28,68t 28,67.5t 68,28t 68-28t 28-67.5t-28-68t-68-28.5zM 640,416.5q0,39.5 28,67.5t 68,28t 68-28t 28-67.5t-28-68t-68-28.5t-68,28.5t-28,68zM 288,256q 66,0 113,47t 47,113q0,48 -25.5,86.5
t-66.5,58.5q 78,16 156,16q 77,0 156-16q-42-20 -67-59t-25-86q0-66 47-113t 113-47q 65,0 111.5,45.5t 48.5,109.5l 128-411q-17,0 -54.5,9t-102,26.5t-110.5,28.5q-56-63 -128-95.5t-117-32.5t-117,32.5t-128,95.5q-46-11 -110-28.5t-102-26.5t-55-9l 128,411
q 2-64 48.5-109.5t 111.5-45.5zM 352,64l 320,0 q 13,0 22.5,9.5t 9.5,22.5q-3,7 -8,14l-120,210l-128,0 l-120-210l-8-14q0-13 9.5-22.5t 22.5-9.5zM 544,256l 64-128l-192,0 l 64,128l 64,0 z"  />
<glyph unicode="&#xf34b;" d="M 768,256l-256,0 l0-256 q0-26 -18.5-45t-45.5-19l-256,0 q-26,0 -45,19t-19,45l0,896 q0,26 19,45t 45,19l 256,0 q 27,0 45.5-19t 18.5-45l0-256 l 256,0 q 27,0 45.5-19t 18.5-45l0-256 q0-27 -18.5-45.5t-45.5-18.5zM 448,864q0,13 -9.5,22.5t-22.5,9.5l-192,0 q-13,0 -22.5-9.5t-9.5-22.5
l0-192 q0-13 9.5-22.5t 22.5-9.5l 192,0 q 13,0 22.5,9.5t 9.5,22.5l0,192 zM 448,550q0,11 -7.5,18.5t-18.5,7.5l-204,0 q-11,0 -18.5-7.5t-7.5-18.5l0-204 q0-11 7.5-18.5t 18.5-7.5l 204,0 q 11,0 18.5,7.5t 7.5,18.5l0,204 zM 448,230q0,11 -7.5,18.5t-18.5,7.5l-204,0 q-11,0 -18.5-7.5
t-7.5-18.5l0-204 q0-11 7.5-18.5t 18.5-7.5l 204,0 q 11,0 18.5,7.5t 7.5,18.5l0,204 zM 768,550q0,11 -7.5,18.5t-18.5,7.5l-204,0 q-11,0 -18.5-7.5t-7.5-18.5l0-204 q0-11 7.5-18.5t 18.5-7.5l 204,0 q 11,0 18.5,7.5t 7.5,18.5l0,204 z"  />
<glyph unicode="&#xf34c;" d="M 768,256l-256,0 l0-256 q0-26 -19-45t-45-19l-256,0 q-26,0 -45,19t-19,45l0,576 q0,26 19,45t 45,19l 256,0 l0,256 q0,26 18.5,45t 45.5,19l 256,0 q 26,0 45-19t 19-45l0-576 q0-27 -19-45.5t-45-18.5zM 448,550q0,11 -7.5,18.5t-18.5,7.5l-204,0 q-11,0 -18.5-7.5t-7.5-18.5l0-204 
q0-11 7.5-18.5t 18.5-7.5l 204,0 q 11,0 18.5,7.5t 7.5,18.5l0,204 zM 448,230q0,11 -7.5,18.5t-18.5,7.5l-204,0 q-11,0 -18.5-7.5t-7.5-18.5l0-204 q0-11 7.5-18.5t 18.5-7.5l 204,0 q 11,0 18.5,7.5t 7.5,18.5l0,204 zM 768,864q0,13 -9.5,22.5t-22.5,9.5l-192,0 q-13,0 -22.5-9.5t-9.5-22.5
l0-192 q0-13 9.5-22.5t 22.5-9.5l 192,0 q 13,0 22.5,9.5t 9.5,22.5l0,192 zM 768,550q0,11 -7.5,18.5t-18.5,7.5l-204,0 q-11,0 -18.5-7.5t-7.5-18.5l0-204 q0-11 7.5-18.5t 18.5-7.5l 204,0 q 11,0 18.5,7.5t 7.5,18.5l0,204 z"  />
<glyph unicode="&#xf34d;" d="M 768-64l-576,0 q-26,0 -45,19t-19,45l0,896 q0,26 18.5,45t 45.5,19l 256,0 q 27,0 45.5-19t 18.5-45l0-576 l 256,0 q 27,0 45.5-19t 18.5-45l0-256 q0-27 -18.5-45.5t-45.5-18.5zM 448,864q0,13 -9.5,22.5t-22.5,9.5l-192,0 q-13,0 -22.5-9.5t-9.5-22.5l0-192 q0-13 9.5-22.5t 22.5-9.5
l 192,0 q 13,0 22.5,9.5t 9.5,22.5l0,192 zM 448,550q0,11 -7.5,18.5t-18.5,7.5l-204,0 q-11,0 -18.5-7.5t-7.5-18.5l0-204 q0-11 7.5-18.5t 18.5-7.5l 204,0 q 11,0 18.5,7.5t 7.5,18.5l0,204 zM 448,230q0,11 -7.5,18.5t-18.5,7.5l-204,0 q-11,0 -18.5-7.5t-7.5-18.5l0-204 q0-11 7.5-18.5
t 18.5-7.5l 204,0 q 11,0 18.5,7.5t 7.5,18.5l0,204 zM 768,230q0,11 -7.5,18.5t-18.5,7.5l-204,0 q-11,0 -18.5-7.5t-7.5-18.5l0-204 q0-11 7.5-18.5t 18.5-7.5l 204,0 q 11,0 18.5,7.5t 7.5,18.5l0,204 z"  />
<glyph unicode="&#xf34e;" d="M 832,416q0-72 30-129.5t 77-81.5q-44-114 -108-191.5t-127-77.5q-27,0 -53.5,16l-53,32t-53.5,16t-53.5-16l-53-32t-53.5-16q-50,0 -99,53t-82.5,131t-54,166.5t-20.5,161.5q0,106 75,181t 181,75q 27,0 57-16t 56.5-32t 46.5-16q 22,0 48.5,16t 55.5,32t 56,16
q 58,0 114.5-24.5t 99.5-66.5q-39-29 -62.5-81.5t-23.5-115.5zM 544,736q-2,37 15.5,78.5t 53,76.5t 77,53t 78.5,16q 2-37 -15.5-78.5t-53-77t-77-53.5t-78.5-15z"  />
<glyph unicode="&#xf34f;" d="M 960,640l-192,0 q-53,0 -90.5-37.5t-37.5-90.5l0,0 l0-512 q0-26 -18.5-45t-45.5-19l-128,0 q-27,0 -45.5,19t-18.5,45l0,512 l0,0 q0,104 51.5,192.5t 140,140t 192.5,51.5l 192,0 q 26,0 45-19t 19-45l0-128 q0-27 -18.5-45.5t-45.5-18.5zM 960,832l-192,0 q-85,0 -159-44t-117.5-117.5
t-43.5-158.5l0,0 l0-512 l 128,0 l0,512 q0,73 60,132.5t 132,59.5l 192,0 l0,128 zM 320,640l-256,0 q-26,0 -45,19t-19,45l0,128 q0,27 18.5,45.5t 45.5,18.5l 256,0 q 27,0 45.5-19t 18.5-45l0-128 q0-27 -18.5-45.5t-45.5-18.5zM 320,832l-256,0 l0-128 l 256,0 l0,128 z"  />
<glyph unicode="&#xf350;" d="M 704-64l-384,0 l-320,320l0,384 l 320,320l 384,0 l 320-320l0-384 zM 448,448l-384,177l0-354 zM 335,0l 354,0 l-177,384zM 512,512l 177,384l-354,0 zM 576,448l 384-177l0,354 z"  />
<glyph unicode="&#xf351;" d="M 912,635l-255-254l-257,255q-15,15 -36.5,15t-36.5-15t-15-36.5t 15-36.5l 367-363q 46-46 46-110t-46-109t-110.5-45t-109.5,45l-368,364q-69,69 -94,162t0,185.5t 94.5,162t 163.5,94t 187.5,0t 163.5-94.5l 36-36l 47,46q 21,21 57,29.5t 78.5-2t 72.5-40.5
q 47-47 47.5-109t-47.5-107zM 672,640l-128,128q-62,62 -130,84t-129,4.5t-113-69.5q-50-50 -68-112.5t-3-122t 59-104.5l 384-384q 32-32 64,0t0,64l-371,372q-46,46 -46,111t 46,112q 30,29 71.5,40t 79,3.5t 60.5-30.5l 160-160q 15-15 32-15t 32,15q 32,32 0,64z"  />
<glyph unicode="&#xf352;" d="M 960,128l0,192 l-128,0 l0-192 l-64,0 l0,64 l-512,0 l0-64 l-64,0 l0,192 l-128,0 l0-192 l-64,0 l0,256 l 64,0 l0,128 l 128,0 l0,128 l 128,0 l0,64 l 64,0 l0-64 l 256,0 l0,64 l 64,0 l0-64 l 128,0 l0-128 l 128,0 l0-128 l 64,0 l0-64 l0-192 l-64,0 zM 384,512l-128,0 l0-128 l 128,0 l0,128 zM 768,512l-128,0 l0-128 l 128,0 l0,128 zM 576,64l0,64 l 192,0 l0-64 l-192,0 zM 448,64l-192,0 l0,64 l 192,0 l0-64 z
M 256,768l 64,0 l0-64 l-64,0 l0,64 zM 128,832l 128,0 l0-64 l-128,0 l0,64 zM 768,768l0-64 l-64,0 l0,64 l 64,0 zM 896,832l0-64 l-128,0 l0,64 l 128,0 z"  />
<glyph unicode="&#xf353;" d="M 1024,0q-11,5 -30.5,14.5t-79,42t-118,67.5t-137.5,90t-147,111q-68-56 -146-110.5t-140-91.5t-115-66t-81.5-43t-29.5-14q 10,9 28,25.5t 68.5,67.5t 96,101t 99.5,119.5t 91,129.5q-170,171 -313,380l-6,9q 8-8 23.5-22.5t 64-54t 98.5-73t 122-71t 140-58.5
q 68,21 139,57t 124,73.5t 96.5,71.5t 65.5,55l 23,22q-15-23 -43-62t-111.5-142t-164.5-185q 37-60 90-128t 102.5-122t 93.5-98.5t 70.5-69.5z"  />
<glyph unicode="&#xf354;" d="M 512-64q-104,0 -199,40.5t-163.5,109t-109,163.5t-40.5,199t 40.5,199t 109,163.5t 163.5,109t 199,40.5t 199-40.5t 163.5-109t 109-163.5t 40.5-199t-40.5-199t-109-163.5t-163.5-109t-199-40.5zM 512,0q 111,0 207,50.5t 158.5,138.5t 77.5,195l-263,0 q-20-57 -69-92.5
t-111-35.5t-111,35.5t-69,92.5l-263,0 q 16-107 78-195t 158-138.5t 207-50.5zM 640,448q0,53 -37.5,90.5t-90.5,37.5t-90.5-37.5t-37.5-90.5t 37.5-90.5t 90.5-37.5t 90.5,37.5t 37.5,90.5zM 916,640l-20,0 l0,37 q-9,15 -17,27l-47,0 l0,57 l-3.5,3.5l-3.5,3.5l-57,0 l0,47 q-16,11 -25,17l-39,0 
l0,21 q-31,14 -64,24l0-45 l-64,0 l0,59 q-35,5 -64,5l0-64 l-64,0 l0,59 q-34-5 -64-14l0-45 l-64,0 l0,21 q-21-10 -39-21l 39,0 l0-64 l-64,0 l0,47 q-30-21 -57-47l 57,0 l0-64 l-64,0 l0,57 q-25-26 -47-57l 47,0 l0-64 l-64,0 l0,37 q-11-18 -20-37l 20,0 l0-64 l-44,0 q-11-35 -15-64l 59,0 l0,64 l 64,0 l0-64 l 64,0 l0,64 l 64,0 l0-64 l 12,0 q 12,35 38,64
l-50,0 l0,64 l 64,0 l0-50 q 29,26 64,39l0,11 l 64,0 q 32,0 64-11l0,11 l 64,0 l0-50 q 7-6 14-14l 50,0 l0-64 l 64,0 l0,64 l 64,0 l0-64 l 64,0 l0,64 l 44,0 q-9,33 -24,64zM 832,576l0,64 l 64,0 l0-64 l-64,0 zM 768,640l0,64 l 64,0 l0-64 l-64,0 zM 704,704l0,64 l 64,0 l0-64 l-64,0 zM 640,768l0,64 l 64,0 l0-64 l-64,0 zM 512,768l0,64 l 64,0 l0-64 l-64,0 zM 384,768l0,64 l 64,0 l0-64 l-64,0 z
M 384,704l-64,0 l0,64 l 64,0 l0-64 zM 320,640l-64,0 l0,64 l 64,0 l0-64 zM 256,576l-64,0 l0,64 l 64,0 l0-64 zM 448,704l0-64 l-64,0 l0,64 l 64,0 zM 576,704l0-64 l-64,0 l0,64 l 64,0 zM 704,704l0-64 l-64,0 l0,64 l 64,0 zM 768,640l0-64 l-64,0 l0,64 l 64,0 zM 576,704l0,64 l 64,0 l0-64 l-64,0 zM 448,704l0,64 l 64,0 l0-64 l-64,0 zM 448,447.5q0,26.5 19,45.5t 45.5,19t 45-18.5
t 18.5-45.5t-18.5-45.5t-45-18.5t-45.5,18.5t-19,45z"  />
<glyph unicode="&#xf355;" d="M 576,260l0-196 l-64-128l-64,128l0,196 q-107,14 -195,67t-138.5,135.5t-50.5,177.5q0,56 20.5,116t 65.5,117t 106,87q-128-157 -128-240q0-124 91.5-217.5t 228.5-113.5l0,123 l 64,128l 64-128l0-123 q 137,20 228.5,113.5t 91.5,217.5q0,83 -128,240q 61-30 106-87t 65.5-117
t 20.5-116q0-95 -50.5-177.5t-138.5-135.5t-195-67z"  />
<glyph unicode="&#xf356;" d="M 725,306q 6,10 9,14l 221,384q 69-119 69-256q0-28 -4-63zM 763,498l-4,16l-114,428q 165-44 270-179zM 654,661q-11,7 -14,9l-384,221q 119,69 256,69q 28,0 63-4zM 462,699l-16-4l-428-114q 44,165 179,270zM 299,590q-7-11 -9-14l-221-384q-69,119 -69,256q0,28 4,63
zM 261,398q 3-13 4-16l 114-428q-165,44 -270,179zM 370,235q 11-7 14-9l 384-221q-119-69 -256-69q-28,0 -63,4zM 562,197q 14,3 16,4l 428,114q-44-165 -179-270z"  />
<glyph unicode="&#xf357;" d="M 960,384l-10,0 q-15-116 -49-192q-36-80 -97.5-139.5t-127.5-88t-129-28.5t-129,28t-128,87.5t-98,140.5q-34,75 -50,192l-14,0 q-26,0 -45,18.5t-19,45.5l0,192 q0,27 19,45.5t 45,18.5l 9,0 q 29,110 145,183t 265,73t 262.5-72.5t 142.5-183.5l 8,0 q 26,0 45-18.5t 19-45.5l0-192 
q0-27 -19-45.5t-45-18.5zM 247,224q 14-32 26-55.5t 29.5-50t 38.5-40.5t 43-14q 27,0 55.5,16t 55,32t 49.5,16q 22,0 49-16t 55.5-32t 55.5-16q 39,0 76.5,48t 65.5,112q 28,63 40,160l-680,0 q 14-97 41-160zM 864,576l-640,0 q-13,0 -22.5-9.5t-9.5-22.5t 9.5-22.5t 22.5-9.5
l 640,0 q 13,0 22.5,9.5t 9.5,22.5t-9.5,22.5t-22.5,9.5z"  />
<glyph unicode="&#xf358;" d="M 1006,824l-109,0 q-26-1 -43.5-11t-36.5-29q-3-9 -11-28t-11-29q-11-43 -21-57q-9-12 -34.5-20t-31.5-13q-13-10 -29-36t-20-32q-6-7 -9.5-10.5t-11.5-6t-19-1.5q-27,3 -52,72t-20,135q 1,9 10,16t 20.5,11t 22.5,13t 15,21q 5,19 3,25t-8.5,13.5t-7.5,12.5
q-1,3 4.5,10t 5.5,26q0,13 8,29.5t 22.5,23.5t 35.5-15q 8-9 20.5-15.5t 32.5-13.5t 28-11q 11-5 19-21q 67-25 119-25q 16,0 39,28t 32,31q 31,11 49-30q 15-35 2-56q-4-7 -13-7zM 662,484q 2,7 1,13.5t 0.5,12t 6.5,6.5q 11,2 34.5-9.5t 30.5-27.5q 6-15 -18-46
q-10-13 -2-18.5t 20,0.5q 15,7 34,26.5t 34,32t 28,9.5q 22-5 46-25t 36-51q 9-22 9.5-53.5t-11.5-48.5q-16-17 -58.5-20.5t-50.5-6.5q-22-10 -36-25t-22-26t-18-14q-17-4 -33-4.5t-25.5,0.5t-28.5,4.5t-28,4.5q-32,4 -45.5,32t-1.5,56q 4,11 14,21t 15,16t 2,11
t-21,4t-22,3q-14,19 2,58q 9,20 33.5,30t 47,16.5t 27.5,18.5zM 429,354q-3-5 2-11t 15-16t 14-21q 12-28 -1.5-56t-45.5-32q-9-1 -28-4.5t-28.5-4.5t-25.5,0t-33,4q-10,3 -18,14t-22,26t-36,25q-8,3 -50.5,6.5t-57.5,20.5q-13,17 -12.5,48.5t 9.5,53.5q 12,31 36,51t 46,25
q 13,3 28-9.5t 34-32t 34-26.5q 12-6 20-1t-2,19q-24,31 -18,46q 7,16 30.5,27.5t 34.5,9.5q 6-1 7-6.5t0-12t 1-13.5q 5-12 28-18t 47-16.5t 33-30.5q 16-39 2-58q-3-4 -21.5-3t-21.5-4zM 405,551q-15-2 -23,2.5t-17,15.5q-4,6 -20,32t-29,36q-6,5 -31.5,13t-34.5,20
q-10,14 -21,57q-3,10 -11,29t-11,28q-19,19 -36.5,29t-43.5,11l-109,0 q-21,0 -18,35q 3,40 28,55q 13,8 28,3q 9-3 32-31t 39-28q 52,0 119,25q 8,16 19,21q 8,4 28,11t 32.5,13.5t 20.5,15.5q 21,22 35.5,15t 22.5-23.5t 8-29.5q0-19 5.5-26t 4.5-10q-1-6 -7.5-13t-8.5-13
t 3-25q 4-12 15-21t 22.5-13.5t 20.5-11t 10-15.5q 5-66 -20-135t-52-72zM 136.5,619q 28.5,0 48.5-10t 20-24.5t-20-24.5t-48.5-10t-48.5,10t-20,24.5t 20,24.5t 48.5,10zM 272,139q 11,4 28-10t 30-12q 8,1 17.5,5.5t 18.5,3.5q 7,0 15-13t 17.5-24.5t 22.5-8.5q 34,6 53-8
q 8-5 -1.5-30.5t-28.5-49t-34.5-23t-25,7t-12,10t-14.5-0.5q-11-5 -11-9.5t 5.5-8t 10.5-8t 2-8.5q-4-9 -21.5-13t-28.5-3q-19,1 -47.5,24t-36.5,28q-29,15 -26,105q0,13 11,22.5t 21,13.5t 29,9q 4,1 6,1zM 603,80q 10-2 18.5,4.5t 13.5,15.5t 11,17.5t 12,8.5
q 9,1 18.5-3.5t 17.5-5.5q 13-2 30,12t 28,10q 2,0 6-1q 19-5 29-9t 21-13.5t 11-22.5q 3-90 -26-105q-8-5 -36.5-28t-47.5-24q-11-1 -28.5,3.5t-21.5,12.5q-2,4 1,7.5t 7.5,6t 8,5.5t 1.5,7t-11,8q-12,4 -14.5,0.5t-12-10t-25-7t-34.5,23t-28.5,49t-1.5,30.5
q 19,14 53,8zM 819,584.5q0,14.5 20,24.5t 48.5,10t 48.5-10t 20-24.5t-20-24.5t-48.5-10t-48.5,10t-20,24.5z"  />
<glyph unicode="&#xf359;" d="M 960,64q-12,0 -50,34q-33,11 -46-2t-2-46q 34-38 34-50q0-26 -19-45t-45.5-19t-45,19t-18.5,45q0,12 -4,27.5t-19,47.5t-25,52.5t-39,79.5l-72,68q 1,2 7,12t 11.5,18t 12.5,15t 14.5,12.5t 17,11t 12.5,7.5l 69-72q 59-29 79.5-39t 52.5-25t 47.5-19t 27.5-4
q 26,0 45-19t 19-45.5t-19-45t-45-18.5zM 608,352q-12-12 -21.5-30t-18-26t-24.5-8q-44,0 -83.5,10t-65,23.5t-65,32t-74.5,30.5q-146,49 -201,109.5t-55,178.5q0,119 84.5,203.5t 203.5,84.5q 118,0 178.5-55t 109.5-201q 14-41 40.5-92.5t 41-95t 14.5-100.5
q0-15 -8.5-23.5t-26.5-19t-29-21.5z"  />
<glyph unicode="&#xf35a;" d="M 812,196q-44,114 -44,252t 44,252q 91-16 151.5-87t 60.5-165t-60.5-165t-151.5-87zM 864,512q-13,0 -22.5-9.5t-9.5-22.5t 9.5-22.5t 22.5-9.5t 22.5,9.5t 9.5,22.5t-9.5,22.5t-22.5,9.5zM 286,378q-26-8 -48-30.5t-38.5-48t-34.5-50.5t-43.5-41t-57.5-16
q-31,0 -47.5,19t-16.5,45q0,68 43,114.5t 115,65.5q 2,7 2,12t-2,12q-72,19 -115,65.5t-43,114.5q0,25 18,44.5t 46,19.5q 32,0 57.5-16t 43.5-41t 34.5-50.5t 38.5-48t 48-30.5q 40,47 128,90t 177.5,67t 155.5,28q-43-119 -43-255t 43-255q-66,4 -155.5,28t-177.5,67t-128,90z
M 640,736zM 544,832q 40,0 68-28t 28-68q-64,0 -164.5-39t-187.5-89q 26,48 81,102t 105,88t 70,34zM 402,224q 80-39 174-65q-18-43 -57-69t-86-26q-25,0 -36.5,7.5t-12,23.5t 3,33.5l 9,45t 5.5,49.5l0,1 z"  />
<glyph unicode="&#xf35b;" d="M 512,320q-139,0 -257,34.5t-186.5,93.5t-68.5,128q0,80 89,144.5t 233,93.5q 7-74 61.5-124t 128.5-50t 128.5,50t 61.5,124q 144-29 233-93.5t 89-144.5q0-69 -68.5-128t-186.5-93.5t-257-34.5zM 512,704q-53,0 -90.5,37.5t-37.5,90.5t 37.5,90.5t 90.5,37.5t 90.5-37.5
t 37.5-90.5t-37.5-90.5t-90.5-37.5zM 220-19q-92,36 -92,83l-64,320q 53-53 130-84zM 259,279q 56-14 125-20l0-316 q-52,7 -98,18zM 576,257l0-319 q-34-2 -64-2t-64,2l0,319 q 25-1 64-1q 40,0 64,1zM 738-39q-46-11 -98-18l0,316 q 69,6 125,20zM 960,384l-64-320q0-47 -92-83
l 26,319q 77,31 130,84z"  />
<glyph unicode="&#xf35c;" d="M 640,896l-0.5,0.5l-0.5,0.5q-2-1 -5-2t-5-1l 395-958l-960,385l0-1 q0-13 -9.5-22.5t-22.5-9.5t-22.5,9.5t-9.5,22.5l0,0 l0,11 q 62,229 231,398t 399,231l 10,0 q 13,0 22.5-9t 9.5-22.5t-9.5-23t-22.5-9.5zM 767.5,128q 26.5,0 45.5,19t 19,45.5t-19,45t-45.5,18.5t-45-18.5
t-18.5-45t 18.5-45.5t 45-19zM 255.5,512q-26.5,0 -45-18.5t-18.5-45t 18.5-45.5t 45-19t 45.5,19t 19,45.5t-19,45t-45.5,18.5zM 447.5,704q-26.5,0 -45-18.5t-18.5-45t 18.5-45.5t 45-19t 45.5,19t 19,45.5t-19,45t-45.5,18.5zM 447.5,384q-26.5,0 -45-18.5t-18.5-45
t 18.5-45.5t 45-19t 45.5,19t 19,45.5t-19,45t-45.5,18.5zM 576,448.5q0-26.5 18.5-45.5t 45.5-19t 45.5,19t 18.5,45.5t-19,45t-45.5,18.5t-45-18.5t-18.5-45z"  />
<glyph unicode="&#xf35d;" d="M 831.5,192q-79.5,0 -135.5,56.5t-56,135.5q0,13 3,32q-314,113 -495,315q 42-235 174-422q 33,11 62,11q 80,0 136-56t 56-135.5t-56-136t-136-56.5t-136,56t-56,136q0,88 69,147q-152,212 -188,494q-6-1 -9-1q-26,0 -45,19t-19,45l0,64 q0,27 19,45.5t 45.5,18.5
t 45-18.5t 18.5-45.5q0-7 3-37q 182-247 536-378q 25,43 69,69t 96,26q 80,0 136-56t 56-135.5t-56.5-136t-136-56.5z"  />
<glyph unicode="&#xf35e;" d="M 896.5,448q-52.5,0 -110,16t-121.5,32t-132.5,16t-202-33t-190.5-31q-197,6 -117,128q 30,46 64.5,89.5t 90.5,99.5t 114.5,96.5t 136.5,69t 157,28.5q 101,0 184.5-30t 138.5-82t 85-122t 30-149q0-62 -37.5-95t-90-33zM 533,448q 49,0 100-9q-35-177 7-407
q 8-40 -1.5-68t-36.5-28l-207,0 q-29,0 -51.5,26.5t-23.5,62.5q-6,213 58,401q 93,22 155,22z"  />
<glyph unicode="&#xf35f;" d="M 928,128q-72,0 -84-12t-12-84q0-40 -28-68t-68-28t-68,28t-28,68q 1,6 1,16.5t-1.5,40t-7,56t-20,58t-36.5,53.5l-128,128l-128,128q-31,31 -74.5,47t-72.5,18.5t-57,0.5q-10-2 -20-2q-40,0 -68,28t-28,68t 28,68t 68,28q 72,0 84,12t 12,84q0,40 28,68t 68,28t 68-28
t 28-68q0-10 -2-19q-2-28 0.5-57t 18.5-73t 47-75q 27-26 80-79.5t 96.5-97l 79.5-79.5q 21-21 50.5-35.5t 55-20.5t 53.5-8t 41-1.5t 22,1.5l 1.5,0 l 0.5,0 q 40,0 68-28t 28-68t-28-68t-68-28z"  />
<glyph unicode="&#xf360;" d="M 962-16q-39-40 -106.5-47.5t-150.5,22t-161,92.5q-39,32 -89,49t-95.5,21.5t-89.5,8t-82.5,15t-61.5,35.5q-80,81 -110.5,205.5t-3.5,249t 107,205.5t 202.5,108.5t 245-3.5t 202.5-113q 49-49 98.5-135t 87-188t 57.5-202t 8.5-187.5t-58.5-135.5zM 736,769
q-56,57 -131.5,91t-156.5,37q-78,2 -153-26t-127-80q-111-113 -104-278q 2-68 25-140.5t 53-126.5q 15-26 53-38t 87.5-15t 101.5-6t 105-17t 87-42q 71-58 132.5-88t 112.5-31.5t 85,33.5q 41,42 51,117t-8,160.5t-50.5,172.5t-76,160t-86.5,117zM 576,192
q-36,30 -99,45t-118.5,17.5t-104.5,10t-62,24.5q-59,74 -64,212q-6,142 89,240q 44,45 108.5,69.5t 131.5,22.5q 69-2 134-32t 113-79q 71-72 131.5-226t 60.5-272q0-49 -5.5-77.5t-26.5-50.5q-76-77 -288,96zM 352,705q-40,0 -68-28.5t-28-68t 28-67.5t 68-28t 68,28
t 28,67.5t-28,68t-68,28.5z"  />
<glyph unicode="&#xf361;" d="M 768,0q-5-26 -21.5-45t-42.5-19l-384,0 q-26,0 -42,18.5t-22,45.5l-64,384l0,128 q0,29 19.5,48t 57.5,37.5t 47,24.5q 40,28 72,66t 47,80l-19,0 q-13,0 -22.5,9.5t-9.5,22.5l0,128 q0,13 9.5,22.5t 22.5,9.5l 192,0 q 13,0 22.5-9.5t 9.5-22.5l0-128 q0-13 -9.5-22.5t-22.5-9.5l-19,0 
q 30-81 111-140q 11-9 50-28t 60.5-39t 21.5-49l0-128 z"  />
<glyph unicode="&#xf362;" d="M 832,64l-64,0 l0-19 q0-53 -29.5-84.5t-71.5-22.5l-502,99q-42,8 -71.5,51t-29.5,96l0,8 l0,628 l0,12 q0,53 37.5,90.5t 90.5,37.5l 640,0 q 53,0 90.5-37.5t 37.5-90.5l0-640 q0-53 -37.5-90.5t-90.5-37.5zM 192,543q0-46 30-84q 4-6 21.5-19t 31-27.5t 13.5-28.5l0-32 l0-96 
q0-15 31.5-27.5t 96.5-28.5q 39-10 67.5-7.5t 44.5,11.5t 16,20l0,64 l0,64 q0,14 13.5,26.5t 32,22.5t 21.5,13q 5,4 14.5,9t 12,10.5t 2.5,19.5q0,45 -29,83t-69,46q-25,5 -47-5q-30,51 -79.5,61t-78.5-29q-23,18 -47,23q-41,8 -69.5-18t-28.5-71zM 896,786q0,46 -32.5,78
t-77.5,32l-465,0 l 346-68q 42-9 71.5-52t 29.5-95l0-553 l 18,0 q 45,0 77.5,32.5t 32.5,77.5l0,548 z"  />
<glyph unicode="&#xf363;" d="M 1024,576q0-42 -9-76t-22-59.5t-40-44.5t-48.5-32t-63.5-21.5t-69.5-13t-81.5-6.5t-85-2.5t-93-0.5t-93,0.5t-85,2.5t-81.5,6.5t-69.5,13t-63.5,21.5t-48.5,32t-40,44.5t-22,59.5t-9,76q0,70 39,138.5t 108,123.5l-19,58l 184,31q 96,33 200,33q 180,0 325-94
l 59,30l 96-192l-1-1q 33-64 33-127zM 941,670l-45-30l-192,160l 68,34q-119,62 -260,62q-79,0 -156-21l 28-43l-192-128l-25,74q-49-41 -76-90t-27-99q0-83 46-130l 18,53l 192-64l-37-56q 69-8 229-8q 92,0 136,1l 24,95l 160,32l 46-81q 82,47 82,158q0,40 -19,81z
M 384,608l 64,160l 192-64l-32-128zM 220-19q-92,36 -92,83l-64,256q 53-27 132-42zM 384-57q-52,7 -98,18l-26,306q 56-7 124-9l0-315 zM 576,256l0-318 q-34-2 -64-2t-64,2l0,318 l 64,0 l 64,0 zM 738-39q-46-11 -98-18l0,315 q 68,2 124,9zM 960,320l-64-256q0-47 -92-83l 24,297
q 79,15 132,42z"  />
<glyph unicode="&#xf364;" d="M 943.5,16.5q-49.5-49.5 -47.5-80.5q-6,0 -11.5,6t-11.5,14.5t-9,11.5q-4,4 -9,16.5t-12,32t-13,33.5q-85-58 -190-48.5t-180,84.5l-310,310q-75,75 -84.5,180t 48.5,190q-14,6 -33.5,13t-32,12t-16.5,9q-3,3 -11.5,9t-14.5,11.5t-6,11.5q 32-2 81,47q 49,50 47,81
q 6,0 11.5-6t 11.5-14.5t 9-11.5q 4-4 9-16.5t 12-32t 13-33.5q 85,58 190,48.5t 180-84.5l 310-310q 75-75 84.5-180t-48.5-190q 14-6 33.5-13t 32-12t 16.5-9q 3-3 11.5-8.5t 14.5-11.5t 6-12q-31,2 -80.5-47.5z"  />
<glyph unicode="&#xf365;" d="M 896,277q0-160 -31.5-250.5t-96.5-90.5q-45,0 -91.5,10t-84,25.5t-80.5,33t-80.5,32.5t-84,25.5t-91.5,10.5q-63,0 -114,37t-81,97.5t-45.5,131t-15.5,143.5q0,30 19.5,66t 41.5,62t 55,61.5t 44,49.5q 17,22 40.5,67t 41.5,80.5t 47.5,63.5t 62.5,28q 53,0 137-20.5t 176-58
t 173-83t 133.5-103t 52.5-110.5q0-48 -13-91t-32-72.5t-38-55t-32-48t-13-41.5zM 384,896q-29,0 -57-24.5t-45.5-55t-40-71t-37.5-58.5q-10-12 -39-43.5t-48-54t-36-54t-17-57.5q0-64 13.5-124.5t 40-112t 70.5-82.5t 100-31q 46,0 94-13t 89-32l 82-38
t 89-32t 94-13q 28,0 47.5,24t 30,70t 14.5,99.5t 4,126.5q0,16 13,33.5t 32,36.5t 38,42t 32,58.5t 13,76.5q0,47 -47.5,97.5t-119,90.5t-151,72.5t-149.5,50.5t-109,18zM 448,256q-80,0 -136,56t-56,136t 56,136t 136,56t 136-56t 56-136t-56-136t-136-56z"  />
<glyph unicode="&#xf366;" d="M 927,52q-9,45 -111,171t-252.5,276.5t-276.5,252.5t-171,111q 84,78 209.5,94t 260.5-34.5t 242.5-158t 158-242.5t 34.5-260.5t-94-209.5zM 460.5,396.5q 150.5-150.5 276.5-252.5t 171-111q-84-78 -209.5-94t-260.5,34.5t-242.5,158t-158,242.5t-34.5,260.5
t 94,209.5q 9-45 111-171t 252.5-276.5z"  />
<glyph unicode="&#xf367;" d="M 960,128l-374,0 q 36-18 48-38.5t 3-39t-22.5-34.5t-23.5-31t-6-23q-15-26 -31-26q-7,0 -35.5,25.5t-67,58t-62.5,44.5l-325,0 q-26,0 -45,19t-19,45l0,64 l0,448 l0,64 q0,27 18.5,45.5t 45.5,18.5l 256,0 q 44,0 86.5,20t 68,44t 46,44t 24.5,20q 8,0 13.5-1t 11.5-8.5t 6-22.5
q-31-54 -31-128q0-13 2-32l 413,0 q 26,0 45-18.5t 19-45.5l0-448 q0-27 -18.5-45.5t-45.5-18.5zM 435,704l-371,0 l0-576 l 371,0 q-6,5 -14.5,13.5t-22.5,33.5t-14,49q0,25 9.5,44t 41.5,52q 14,15 14,37t-10,46.5t-22.5,48.5t-22.5,49.5t-10,42.5q0,37 12.5,77t 25.5,61zM 672,640
l-128,0 q-13,0 -22.5-9.5t-9.5-22.5l0-128 q0-13 9.5-22.5t 22.5-9.5t 22.5,9.5t 9.5,22.5l0,96 l 96,0 q 13,0 22.5,9.5t 9.5,22.5t-9.5,22.5t-22.5,9.5zM 672,384l-128,0 q-13,0 -22.5-9.5t-9.5-22.5l0-128 q0-13 9.5-22.5t 22.5-9.5t 22.5,9.5t 9.5,22.5l0,96 l 96,0 q 13,0 22.5,9.5t 9.5,22.5
t-9.5,22.5t-22.5,9.5zM 928,640l-128,0 q-13,0 -22.5-9.5t-9.5-22.5l0-128 q0-13 9.5-22.5t 22.5-9.5t 22.5,9.5t 9.5,22.5l0,96 l 96,0 q 13,0 22.5,9.5t 9.5,22.5t-9.5,22.5t-22.5,9.5zM 928,384l-128,0 q-13,0 -22.5-9.5t-9.5-22.5l0-128 q0-13 9.5-22.5t 22.5-9.5t 22.5,9.5t 9.5,22.5l0,96 
l 96,0 q 13,0 22.5,9.5t 9.5,22.5t-9.5,22.5t-22.5,9.5z"  />
<glyph unicode="&#xf368;" d="M 1024,512q0-48 -31.5-84t-78.5-42q 46-39 46-98q0-53 -37.5-90.5t-90.5-37.5l-2.5,0 l-2.5,0 q 5-17 5-32q0-53 -37.5-90.5t-90.5-37.5q-39,0 -72,22q-13-38 -46-62t-74-24t-74,24t-46,62q-33-22 -72-22q-53,0 -90.5,37.5t-37.5,90.5q0,15 5,32l-2.5,0 l-2.5,0 
q-53,0 -90.5,37.5t-37.5,90.5q0,59 46,98q-47,6 -78.5,42t-31.5,84q0,53 37.5,90.5t 90.5,37.5q 6,0 19-2q-19,31 -19,66q0,53 37.5,90.5t 90.5,37.5q 16,0 32-5q 8,3 17,4q-49,43 -49,110q 29,19 63,19.5t 65-18.5q 28-18 45-50q0,1 1.5,3.5t 1.5,3.5q 18,31 50.5,46.5
t 70.5,14.5q 26-39 22-82q 9-5 11-7q 17,47 54,70q 31,20 65,19.5t 63-19.5q0-68 -50-111q 29-4 50-16q 31,18 64,18q 53,0 90.5-37.5t 37.5-90.5q0-39 -22-72q 38-13 62-46t 24-74zM 832.5,256q 26.5,0 45,18.5t 18.5,45t-18.5,45.5t-45,19t-45.5-19t-19-45.5t 19-45
t 45.5-18.5zM 704.5,64q 26.5,0 45,18.5t 18.5,45t-18.5,45.5t-45,19t-45.5-19t-19-45.5t 19-45t 45.5-18.5zM 640,319.5q0,26.5 -18.5,45.5t-45.5,19t-45.5-19t-18.5-45.5t 19-45t 45.5-18.5t 45,18.5t 18.5,45zM 512.5,0q 26.5,0 45,18.5t 18.5,45t-18.5,45.5t-45,19
t-45.5-19t-19-45.5t 19-45t 45.5-18.5zM 448,319.5q0,26.5 -18.5,45.5t-45,19t-45.5-19t-19-45.5t 19-45t 45.5-18.5t 45,18.5t 18.5,45zM 320.5,64q 26.5,0 45,18.5t 18.5,45t-18.5,45.5t-45,19t-45.5-19t-19-45.5t 19-45t 45.5-18.5zM 192.5,256q 26.5,0 45,18.5t 18.5,45
t-18.5,45.5t-45,19t-45.5-19t-19-45.5t 19-45t 45.5-18.5zM 128.5,576q-26.5,0 -45.5-19t-19-45.5t 19-45t 45.5-18.5t 45,18.5t 18.5,45t-18.5,45.5t-45,19zM 256.5,768q-26.5,0 -45.5-19t-19-45.5t 19-45t 45.5-18.5t 45,18.5t 18.5,45t-18.5,45.5t-45,19zM 320.5,576
q-26.5,0 -45.5-19t-19-45.5t 19-45t 45.5-18.5t 45,18.5t 18.5,45t-18.5,45.5t-45,19zM 448.5,768q-26.5,0 -45.5-19t-19-45.5t 19-45t 45.5-18.5t 45,18.5t 18.5,45t-18.5,45.5t-45,19zM 512.5,576q-26.5,0 -45.5-19t-19-45.5t 19-45t 45.5-18.5t 45,18.5t 18.5,45
t-18.5,45.5t-45,19zM 640.5,704q-26.5,0 -45.5-19t-19-45.5t 19-45t 45.5-18.5t 45,18.5t 18.5,45t-18.5,45.5t-45,19zM 704.5,512q-26.5,0 -45.5-19t-19-45.5t 19-45t 45.5-18.5t 45,18.5t 18.5,45t-18.5,45.5t-45,19zM 832.5,768q-26.5,0 -45.5-19t-19-45.5t 19-45
t 45.5-18.5t 45,18.5t 18.5,45t-18.5,45.5t-45,19zM 896,576q-27,0 -45.5-19t-18.5-45.5t 18.5-45t 45.5-18.5t 45.5,18.5t 18.5,45t-18.5,45.5t-45.5,19z"  />
<glyph unicode="&#xf369;" d="M 896,352q0-44 -17.5-80.5t-46.5-57.5q 3-83 -64-149q-60-60 -137-64q-16-28 -57.5-46.5t-93.5-18.5t-93.5,18.5t-57.5,46.5q-77,4 -137,64q-67,66 -64,149q-29,21 -46.5,57.5t-17.5,80.5q0,45 19,83t 50,58q-11,37 2,80t 47,77q 30,29 69,44q-48,25 -81.5,73.5
t-41.5,101.5q 28,42 74.5,66.5t 101.5,24.5t 101.5-24.5t 74.5-66.5q 28,42 74.5,66.5t 101.5,24.5t 101.5-24.5t 74.5-66.5q-8-53 -41.5-101.5t-82.5-73.5q 40-15 70-44q 34-34 47-77t 2-80q 31-20 50-58t 19-83zM 634,68q 49,10 86,45q 31,29 41.5,54t 4.5,44t-26,38
q-15,13 -33,23l-1-1t-2-1q-13-7 -32-11l0-1 l0-2 q0-80 -57-136q 13-31 19-52zM 684,446q-23,38 -66.5,56.5t-74,2.5t-31.5-64.5t 27-72.5q 41-36 79.5-45.5t 57.5,9.5q 26,24 28,50t-20,64zM 480,0q 40,0 68,18.5t 28,45.5q0,11 -7,23q-43-23 -89-23t-89,23
q-7-12 -7-23q0-27 28-45.5t 68-18.5zM 480,128q 51,0 89.5,31t 38.5,65q0,16 -6,38q-77,20 -122,89q-45-69 -122-89q-6-21 -6-38q0-34 38.5-65t 89.5-31zM 416.5,505q-30.5,16 -74-2.5t-66.5-56.5q-22-38 -20-64t 28-50q 19-19 57.5-9.5t 79.5,45.5q 28,24 27,72.5
t-31.5,64.5zM 240,113q 37-35 86-45q 6,21 19,52q-57,56 -57,136l0,2 l0,1 q-18,4 -32,11q-1,0 -2,1l-1,1q-18-10 -33-23q-20-19 -26-38t 4.5-44t 41.5-54zM 128,352q0-41 18-74q 7,10 13,16q 18,18 49,23q-32,59 -2,130q-10,1 -14,1q-29,0 -46.5-23t-17.5-73zM 234,598
q-38-38 -42-86q 24,0 47-12q 44,54 107,70q-25,31 -26,69q-48-4 -86-41zM 310,896q-32,0 -69-10t-49-22q 8-45 48-86.5t 89-41.5q 19,0 37,4q-8,15 -19.5,30.5t-26,30.5t-23.5,24.5t-24,23t-17,15.5q 51-7 97-32t 77-62q 12,10 18,18l0,1 q0,45 -40.5,76t-97.5,31zM 480,704
q-40,0 -68-28t-28-68q0-16 6-32q 32,0 58-14q 17-8 32-25q 15,17 32,25q 26,14 58,14q 6,17 6,32q0,40 -28,68t-68,28zM 768,864q-12,12 -49,22t-68,10q-58,0 -98.5-31t-40.5-76l0-1 q 6-8 18-18q 31,37 77,62t 97,32q-2-2 -17-15.5t-24-23t-23.5-24.5t-26-30.5
t-19.5-30.5q 18-4 37-4q 49,0 89,41.5t 48,86.5zM 726,598q-38,37 -86,41q0-38 -26-69q 63-16 107-70q 23,12 47,12q-4,48 -42,86zM 768,448q-4,0 -14-1q 30-71 -2-130q 31-5 49-23q 6-5 13-16q 18,33 18,74q0,96 -64,96z"  />
<glyph unicode="&#xf36a;" d="M 1023,498l-104-512q-3-21 -25-35.5t-49-14.5l-658,0 q-27,0 -49,14.5t-26,35.5l-111,512q-5,26 6.5,47t 34.5,31q 62-27 190.5-45.5t 280.5-18.5q 151,0 278.5,18t 189.5,46q 23-10 34.5-31t 7.5-47zM 832,864l 128,32l0-264 q-49-18 -128-31l0,263 zM 641,959l 127-64l0-304 
q-61-7 -127-11l0,379 zM 449,577l0,350 l 128,32l0-382 q-38-1 -64.5-1t-63.5,1zM 257,927l 128,32l0-379 q-67,3 -128,11l0,336 zM 65,832l 128,64l0-295 q-79,13 -128,30l0,201 z"  />
<glyph unicode="&#xf36b;" d="M 992-64l-960,0 q-13,0 -22.5,9.5t-9.5,22.5t 9.5,22.5t 22.5,9.5l 32,0 l0,384 q0,53 37.5,90.5t 90.5,37.5l 640,0 q 53,0 90.5-37.5t 37.5-90.5l0-384 l 32,0 q 13,0 22.5-9.5t 9.5-22.5t-9.5-22.5t-22.5-9.5zM 800,768q 13,0 22.5-9.5t 9.5-22.5l0-160 l-128,0 l0,160 q0,13 9.5,22.5t 22.5,9.5l 64,0 z
M 779,800q 21,19 21,40q0,7 -7.5,19.5t-14.5,21.5l-7,9q-7-37 -30-50q-7-6 -4.5-17.5t 10.5-22.5q-9,0 -30,18q-13,12 -13,27q0,22 22,40q 10,9 13,27.5t0,33.5l-3,14q 52-20 77-54q 20-28 19-56q-1-31 -5-35q-7-6 -22.5-10.5t-25.5-4.5zM 544,768q 13,0 22.5-9.5
t 9.5-22.5l0-160 l-128,0 l0,160 q0,13 9.5,22.5t 22.5,9.5l 64,0 zM 523,800q 21,19 21,40q0,7 -7.5,19.5t-14.5,21.5l-7,9q-7-37 -30-50q-7-6 -4.5-17.5t 10.5-22.5q-9,0 -30,18q-13,12 -13,27q0,22 22,40q 10,9 13,27.5t0,33.5l-3,14q 52-20 77-54q 20-28 19-56q-1-31 -5-35
q-7-6 -22.5-10.5t-25.5-4.5zM 288,768q 13,0 22.5-9.5t 9.5-22.5l0-160 l-128,0 l0,160 q0,13 9.5,22.5t 22.5,9.5l 64,0 zM 267,800q 21,19 21,40q0,7 -7.5,19.5t-14.5,21.5l-7,9q-7-37 -30-50q-7-6 -4.5-17.5t 10.5-22.5q-9,0 -30,18q-13,12 -13,27q0,22 22,40q 10,9 12.5,27.5
t 0.5,33.5l-3,14q 52-20 77-54q 20-28 19-56q-1-31 -5-35q-7-6 -22.5-10.5t-25.5-4.5z"  />
<glyph unicode="&#xf36c;" d="M 810,214q-123-122 -296-145l0-69 l 96,0 q 13,0 22.5-9.5t 9.5-22.5t-9.5-22.5t-22.5-9.5l-320,0 q-13,0 -22.5,9.5t-9.5,22.5t 9.5,22.5t 22.5,9.5l 96,0 l0,69 q-175,21 -299,145l-23,23l 92,92q-89,107 -89,246q0,104 51,192.5t 139.5,140t 192.5,51.5q 139,0 246-90l 91,91l 23-23
q 98-98 133-229.5t0-263t-133-230.5zM 786,869q-13-14 -45-45q 92-108 92-249q0-104 -51-192.5t-139.5-139.5t-192.5-51q-141,0 -249,92q-8-8 -45-46q 86-75 196.5-99.5t 220,7t 192,114t 114,192t 7,220t-99.5,197.5z"  />
<glyph unicode="&#xf36d;" d="M 832,32q-3-36 -32.5-66t-63.5-30l-448,0 q-34,0 -63.5,30t-32.5,66l-64,416q0,49 28,88.5t 68,39.5l 57,0 q-25,47 -25,64q0,14 37,33t 91,36q 2,40 18.5,97.5t 47,105.5t 62.5,48t 62.5-48t 47-105.5t 18.5-97.5q 54-17 91-36t 37-33q0-17 -25-64l 57,0 q 40,0 68-39.5t 28-88.5z
"  />
<glyph unicode="&#xf36e;" d="M 512-64q-104,0 -199,40.5t-163.5,109t-109,163.5t-40.5,199t 40.5,199t 109,163.5t 163.5,109t 199,40.5t 199-40.5t 163.5-109t 109-163.5t 40.5-199t-40.5-199t-109-163.5t-163.5-109t-199-40.5zM 416,832q-119,0 -203.5-84.5t-84.5-203.5t 84.5-203.5t 203.5-84.5
t 203.5,84.5t 84.5,203.5t-84.5,203.5t-203.5,84.5zM 510,529q 7-48 -19.5-88t-73.5-53q-51-13 -97,13.5t-60,77.5q-11,43 6.5,83t 55.5,61q-7,48 19.5,88t 73.5,53q 51,13 97-13.5t 60-77.5q 11-43 -6.5-83t-55.5-61zM 367,574q-25-7 -38.5-30t-6.5-48.5t 30-39
t 48.5-6.5t 39,30t 6.5,49q-2,7 -6.5,9t-11.5,2.5t-12,3.5t-14.5,12.5t-18,14.5t-16.5,3zM 510,657q-7,25 -30,38.5t-49,6.5q-22-6 -35-24.5t-12-41.5q 23-4 64-28q 23-13 34-22q 17,11 25,30.5t 3,40.5z"  />
<glyph unicode="&#xf36f;" d="M 512-64q-139,0 -257,68.5t-186.5,186.5t-68.5,257q0,104 40.5,199t 109,163.5t 163.5,109t 199,40.5t 199-40.5t 163.5-109t 109-163.5t 40.5-199t-40.5-199t-109-163.5t-163.5-109t-199-40.5zM 606,142q 69,21 124,72q-51,63 -84,83q-29,16 -62,26q-8-33 -8-67
q0-38 30-114zM 418,142q 30,76 30,114q0,33 -8,67q-34-10 -62-26q-33-19 -84-83q 55-51 124-72zM 192,448q0-32 9-72q 80,12 113,31q 30,18 54,40q-25,25 -54,42q-33,19 -113,31q-9-40 -9-72zM 418,754q-69-21 -124-72q 51-63 84-83q 30-17 62-27q 8,33 8,68
q0,38 -30,114zM 512,512q-27,0 -45.5-19t-18.5-45.5t 18.5-45t 45.5-18.5t 45.5,18.5t 18.5,45t-18.5,45.5t-45.5,19zM 606,754q-30-76 -30-114q0-33 9-67q 31,9 61,26q 33,20 84,83q-55,51 -124,72zM 823,520q-80-12 -113-31q-28-17 -54-42q 25-22 54-40
q 33-19 113-31q 9,40 9,72t-9,72z"  />
<glyph unicode="&#xf370;" d="M0,64l0,448 q0,27 18.5,45.5t 45.5,18.5l 64,0 l 256,0 l 256,0 l 256,0 l 64,0 q 26,0 45-18.5t 19-45.5l0-448 l-1024,0 zM 640,640l0,64 q0,26 18.5,45t 45.5,19l 128,0 q 26,0 45-19t 19-45l0-64 l-256,0 zM 128,640l0,64 q0,26 18.5,45t 45.5,19l 128,0 q 27,0 45.5-19t 18.5-45l0-64 l-256,0 z"  />
<glyph unicode="&#xf371;" d="M 960-64l-896,0 q-26,0 -45,19t-19,45l0,896 q0,26 19,45t 45,19l 896,0 q 26,0 45-18.5t 19-45.5l0-896 q0-27 -19-45.5t-45-18.5zM 288,832q-66,0 -113-47t-47-113t 47-113t 113-47t 113,47t 47,113t-47,113t-113,47zM 288,384q-66,0 -113-47t-47-113t 47-113t 113-47t 113,47
t 47,113t-47,113t-113,47zM 736,832q-66,0 -113-47t-47-113t 47-113t 113-47t 113,47t 47,113t-47,113t-113,47zM 736,384q-66,0 -113-47t-47-113t 47-113t 113-47t 113,47t 47,113t-47,113t-113,47zM 736,128q-40,0 -68,28t-28,68t 28,68t 68,28t 68-28t 28-68t-28-68t-68-28z
M 736,576q-40,0 -68,28t-28,68t 28,68t 68,28t 68-28t 28-68t-28-68t-68-28zM 288,128q-40,0 -68,28t-28,68t 28,68t 68,28t 68-28t 28-68t-28-68t-68-28zM 288,576q-40,0 -68,28t-28,68t 28,68t 68,28t 68-28t 28-68t-28-68t-68-28z"  />
<glyph unicode="&#xf372;" d="M 832-64l-640,0 q-26,0 -45,19t-19,45l0,896 q0,26 18.5,45t 45.5,19l 640,0 q 27,0 45.5-18.5t 18.5-45.5l0-896 q0-27 -19-45.5t-45-18.5zM 512,896q-53,0 -90.5-37.5t-37.5-90.5t 37.5-90.5t 90.5-37.5t 90.5,37.5t 37.5,90.5t-37.5,90.5t-90.5,37.5zM 512,512q-106,0 -181-75
t-75-181t 75-181t 181-75t 181,75t 75,181t-75,181t-181,75zM 512,128q-53,0 -90.5,37.5t-37.5,90.5t 37.5,90.5t 90.5,37.5t 90.5-37.5t 37.5-90.5t-37.5-90.5t-90.5-37.5zM 512,704q-26,0 -45,18.5t-19,45t 19,45.5t 45.5,19t 45-19t 18.5-45.5t-19-45t-45-18.5z"  />
<glyph unicode="&#xf373;" d="M 1024,281q0-11 -9-18t-23-7t-26.5,7t-18.5,18l-41,29q-43-16 -124.5-75t-97.5-69l-30-80q-4-9 -16-15.5t-26-6.5l-264,0 q-14,0 -26,6.5t-16,15.5l-16,42l-34,0 q-106,0 -181,75t-75,181q0,91 56.5,160.5t 143.5,89.5l 42,112q 4,9 16,15.5t 26,6.5l 36,0 l0,32 q0,13 -9.5,22.5
t-22.5,9.5l-32,0 l0,64 l 64,0 q 26,0 45-19t 19-45l0-64 l 36,0 q 14,0 26-6.5t 16-15.5l 40-106l 74,0 q 36,0 80-22.5t 80-51t 82.5-60.5t 81.5-45l 47,90q 6,11 18.5,18t 26.5,7t 23-7t 9-18l0-101 l0-1 l0-0.5 l0-0.5 l0-167 zM 192.5,448q-26.5,0 -45.5-19t-19-45.5t 19-45t 45.5-18.5t 45,18.5t 18.5,45
t-18.5,45.5t-45,19zM 384.5,448q-26.5,0 -45.5-19t-19-45.5t 19-45t 45.5-18.5t 45,18.5t 18.5,45t-18.5,45.5t-45,19zM 576.5,448q-26.5,0 -45.5-19t-19-45.5t 19-45t 45.5-18.5t 45,18.5t 18.5,45t-18.5,45.5t-45,19z"  />
<glyph unicode="&#xf374;" d="M 192-64l 79,550l-138,232q-8,12 -4,25.5t 16.5,20.5t 26,3.5t 20.5-15.5l 94-158l 34,238l 224,128l 224-128l 128-896l-704,0 zM 288,128l 195,0 l-156,263zM 704,768l-160,128l-160-128l-41-271l 169-283l0,586 q0,13 9.5,22.5t 22.5,9.5t 22.5-9.5t 9.5-22.5l0-672 l 224,0 z"  />
<glyph unicode="&#xf375;" d="M 896-64q-73,89 -148,176q-16-33 -37-54q-58-58 -139-58t-139,58l-119,118q-57,58 -57,139t 57,139q 17,17 43,32q-143,90 -292,90l-56,12q-9,10 -9,23t 9,23l 317,317q 10,9 23,9t 23-9l 13-56q0-103 46.5-212.5t 146.5-209.5l 152-152q 40-40 113.5-104.5t 127-108.5
l 53.5-44zM 393,375q-24-25 -24-60t 24-59l 119-119q 25-25 60-25t 59,25q 33,33 22,79q-9,10 -14,14l-152,152q-3,3 -8.5,8t-7.5,7q-45,10 -78-22z"  />
<glyph unicode="&#xf376;" d="M 128,64l-128,192l 768,704l 192-64l 64-192l-704-768zM 631,512l 265,265l-55,55l-265-265zM0,448q0,104 40.5,199t 109,163.5t 163.5,109t 199,40.5q 80,0 157-25l-659-588q-10,51 -10,101zM 1024,448q0-104 -40.5-199t-109-163.5t-163.5-109t-199-40.5q-51,0 -101,10
l 588,659q 25-77 25-157z"  />
<glyph unicode="&#xf377;" d="M 960,64l-896,0 q-26,0 -45,19t-19,45l0,640 q0,26 19,45t 45,19l 896,0 q 27,0 45.5-19t 18.5-45l0-640 q0-26 -18.5-45t-45.5-19zM 608,128q 13,0 22.5,9.5t 9.5,22.5t-9.5,22.5t-22.5,9.5t-22.5-9.5t-9.5-22.5t 9.5-22.5t 22.5-9.5zM 96,128q 13,0 22.5,9.5t 9.5,22.5t-9.5,22.5
t-22.5,9.5t-22.5-9.5t-9.5-22.5t 9.5-22.5t 22.5-9.5zM 96,768q-13,0 -22.5-9.5t-9.5-22.5t 9.5-22.5t 22.5-9.5t 22.5,9.5t 9.5,22.5t-9.5,22.5t-22.5,9.5zM 256.5,640q-79.5,0 -136-56t-56.5-136t 56.5-136t 136-56t 135.5,56t 56,136t-56,136t-135.5,56zM 416,192
q-13,0 -22.5-9.5t-9.5-22.5t 9.5-22.5t 22.5-9.5t 22.5,9.5t 9.5,22.5t-9.5,22.5t-22.5,9.5zM 928,768q-13,0 -22.5-9.5t-9.5-22.5t 9.5-22.5t 22.5-9.5t 22.5,9.5t 9.5,22.5t-9.5,22.5t-22.5,9.5zM 768,640q-80,0 -136-56t-56-136t 56-136t 136-56t 136,56t 56,136t-56,136
t-136,56zM 928,192q-13,0 -22.5-9.5t-9.5-22.5t 9.5-22.5t 22.5-9.5t 22.5,9.5t 9.5,22.5t-9.5,22.5t-22.5,9.5zM 768.5,384q-26.5,0 -45.5,18.5t-19,45.5t 19,45.5t 45.5,18.5t 45-18.5t 18.5-45.5t-18.5-45.5t-45-18.5zM 256.5,384q-26.5,0 -45.5,18.5t-19,45.5t 19,45.5
t 45.5,18.5t 45-18.5t 18.5-45.5t-18.5-45.5t-45-18.5z"  />
<glyph unicode="&#xf378;" d="M 1019,106l-165-165q-12-12 -23,0l-219,218l-25-25q-6-6 -14.5-6t-14.5,6l-58,58q-99,5 -168.5,75t-74.5,168l-59,59q-6,6 -6,14.5t 6,14.5l 25,25l-218,219q-12,11 0,23l 165,165q 12,12 23,0l 219-218l 25,25q 6,6 14.5,6t 14.5-6l 59-59q 98-5 168-74.5t 75-168.5
l 58-58q 6-6 6-14.5t-6-14.5l-25-25l 218-219q 12-11 0-23zM 512.5,640q-79.5,0 -136-56.5t-56.5-136t 56.5-135.5t 136-56t 135.5,56t 56,135.5t-56,136t-135.5,56.5zM 535,362q-9-10 -23-10t-24,10l-94,93q-10,10 -10,23.5t 9.5,23.5t 23.5,10t 24-10l 71-70l 71,70
q 9,10 23,10t 24-10t 10-23.5t-10-23.5z"  />
<glyph unicode="&#xf379;" d="M 888,397q 8-38 8-77q0-1 -0.5-2.5l-0.5-1.5q 18,4 31,4q 34,0 34-97q0-39 -59.5-76t-164-60t-224.5-23t-224.5,23t-164,60t-59.5,76q0,97 37,97q 11,0 28-4q-1,1 -1,2l0,2 q0,39 8,77q-136,86 -136,275q0,26 1,40.5t 6.5,38t 19.5,43.5t 37,38q0-188 142-281
q 53,71 133.5,112t 172.5,41t 172.5-41t 133.5-112q 142,93 142,281q 23-18 37-38t 19.5-43.5t 6.5-38t 1-40.5q0-189 -136-275zM 512,576q-16,0 -40-10t-24-22l0-347 q 33-5 64-5t 64,5l0,347 q0,12 -24,22t-40,10z"  />
<glyph unicode="&#xf37a;" d="M 869,460q 27-68 27-140q0-104 -51.5-192.5t-140-140t-192.5-51.5t-192.5,51.5t-140,140t-51.5,192.5q0,72 27,140q-69,22 -112,80.5t-43,131.5q0,93 65.5,158.5t 158.5,65.5q 86,0 149-57t 72-141q 36,6 67,6t 67-6q 9,84 72,141t 149,57q 93,0 158.5-65.5t 65.5-158.5
q0-73 -43-131.5t-112-80.5z"  />
<glyph unicode="&#xf37c;" d="M 945,644l-184-109q 7-29 7-55q0-69 -39-127q 47-53 75-123.5t 28-138.5q0-38 -8.5-65.5t-29.5-44t-39.5-26.5t-57-13.5t-62.5-4.5t-74-1l-16.5,0 l-17.5,0 q-49,0 -73.5,1t-62.5,4.5t-57,13.5t-40,26.5t-29.5,44t-8.5,65.5q0,68 28,138.5t 76,123.5q-40,58 -40,127
q0,26 7,55l-183,109q-12,7 -15,20t 3.5,24t 18.5,14.5t 24-2.5l 177-106q 33,55 89,85q-57,48 -57,121q0,66 47,113t 113.5,47t 113-47t 46.5-113q0-73 -56-121q 56-30 89-85l 177,106q 11,6 23.5,2.5t 19-14.5t 3-24t-14.5-20zM 544.5,320q 13.5,0 22.5,9.5t 9,22.5t-9,22.5
t-22.5,9.5t-23-9.5t-9.5-22.5t 9.5-22.5t 23-9.5zM 544.5,448q 13.5,0 22.5,9.5t 9,22.5t-9,22.5t-22.5,9.5t-23-9.5t-9.5-22.5t 9.5-22.5t 23-9.5zM 480.5,832q-13.5,0 -23-9.5t-9.5-22.5t 9.5-22.5t 23-9.5t 22.5,9.5t 9,22.5t-9,22.5t-22.5,9.5zM 544.5,640
q-13.5,0 -23-9.5t-9.5-22.5t 9.5-22.5t 23-9.5t 22.5,9.5t 9,22.5t-9,22.5t-22.5,9.5zM 608,832q-13,0 -22.5-9.5t-9.5-22.5t 9.5-22.5t 22.5-9.5t 22.5,9.5t 9.5,22.5t-9.5,22.5t-22.5,9.5z"  />
<glyph unicode="&#xf37f;" d="M 1024,267q0-26 -13-46t-41-28t-72,15q-7,8 -20.5,21t-50.5,44t-71,51q-32,18 -73,38q 21,41 21,86q0,82 -59,138q 32,25 62,43q 37,21 85,36t 77,19l 29,5q 44,22 72,13.5t 41-28.5t 13-46q-7-10 -17.5-28t-28.5-66.5t-18-89.5q0-40 16-84t 32-69zM 512,320
q-53,0 -90.5,37.5t-37.5,90.5t 37.5,90.5t 90.5,37.5t 90.5-37.5t 37.5-90.5t-37.5-90.5t-90.5-37.5zM 341,362q-41-20 -73-38q-34-20 -69.5-49t-53.5-48l-19-19q-44-23 -72-15t-41,28t-13,46q 7,10 17.5,27t 28.5,64t 18,86q0,41 -16,87t-32,71l-16,26q0,26 13,46
t 41,28.5t 72-13.5q 12-2 32-5t 71-18.5t 88-36.5q 30-17 62-42q-59-57 -59-139q0-45 21-86z"  />
<glyph unicode="&#xf380;" d="M 864-64l-64,0 q-13,0 -22.5,9.5t-9.5,22.5l0,512 q0,45 -36.5,70.5t-91.5,25.5q-41,0 -64-14l0-594 q0-13 -9.5-22.5t-22.5-9.5l-64,0 q-13,0 -22.5,9.5t-9.5,22.5l0,960 q0,13 9.5,22.5t 22.5,9.5l 64,0 q 13,0 22.5-9.5t 9.5-22.5l0-237 q 24,13 64,13q 107,0 181.5-64.5t 74.5-159.5l0-512 
q0-13 -9.5-22.5t-22.5-9.5zM 352-64l-128,0 q-13,0 -22.5,9.5t-9.5,22.5l0,960 q0,13 9.5,22.5t 22.5,9.5l 128,0 q 13,0 22.5-9.5t 9.5-22.5l0-960 q0-13 -9.5-22.5t-22.5-9.5z"  />
<glyph unicode="&#xf381;" d="M 896-64l-768,0 q-26,0 -45,18.5t-19,45.5l0,895 q0,27 19,45.5t 45,18.5l 448,0 l0-352 q0-13 9.5-22.5t 22.5-9.5l 352,0 l0-1 l0-574 q0-27 -18.5-45.5t-45.5-18.5zM 461,340l-77,172l-77-172l-179-24l 132-130l-34-186l 158,91l 158-91l-34,186l 132,130zM 640,960q 26,0 44-18
l 257-257q 19-19 19-46l-320,0 l0,321 z"  />
<glyph unicode="&#xf382;" d="M 896,64l0-128 l-96,0 l-128,64l-128-64l-96,0 l0,128 l-320,0 q-53,0 -90.5,37.5t-37.5,90.5l0,384 l0,64 l0,64 q0,26 19,45t 45,19l 64,0 l 704,0 l 64,0 l 128,0 l0-128 l0-448 q0-53 -37.5-90.5t-90.5-37.5zM 749,340l-77,172l-77-172l-179-24l 132-130l-34-186l 158,92l 158-92l-34,186l 132,130zM 590,852
q 7,19 28,31.5t 44,12.5l 240,0 q 24,0 45-12.5t 29-31.5l 48-84l-480,0 zM 46,916q 7,19 28,31.5t 44,12.5l 240,0 q 24,0 45-12.5t 29-31.5l 48-84l-480,0 z"  />
<glyph unicode="&#xf383;" d="M 965-60l-124,71q-18-12 -39.5-10t-37.5,18l-746,746q-18,18 -18,44t 18,44l 89,88q 18,19 44,19t 44-19l 746-746q 15-15 17-36.5t-9-39.5l 71-124q 11-33 -5.5-49.5t-49.5-5.5zM 276,766l-83-82l 44-43l 82,82zM 372,670l-83-82l 235-235l 82,83zM 659,383l-82-82
l 43-44l 82,83z"  />
<glyph unicode="&#xf384;" d="M 896,0q-73,0 -100.5,34t-27.5,94l0,672 q 6-8 19.5-29.5t 19.5-28t 19-18t 29.5-14.5t 40.5-3q 70,0 128,35l0-709 q-55-33 -128-33zM 352-64q-96,0 -177,17t-128,47t-47,64l0,672 q 55-42 148.5-67.5t 203.5-25.5t 203.5,25.5t 148.5,67.5l0-672 q0-34 -47-64t-128-47t-177-17
zM 352,704q-96,0 -177,17t-128,46.5t-47,64.5t 47,64.5t 128,46.5t 177,17t 177-17t 128-46.5t 47-64.5t-47-64.5t-128-46.5t-177-17zM 352,896q-66,0 -113-19t-47-45.5t 47-45t 113-18.5t 113,18.5t 47,45t-47,45.5t-113,19z"  />
<glyph unicode="&#xf385;" d="M 999-39.5q-25-24.5 -60-24.5t-59,25l-868,863q-12,12 -12,29.5t 12.5,30t 30,12.5t 29.5-12l 29-29q 4,7 7,10l 83,83q 11,11 27,11t 27.5-11.5t 11.5-27.5t-12-27l-82-83q-3-3 -10-7l 12-12q 4,7 7,10l 83,83q 11,11 27,11t 27.5-11.5t 11.5-27.5t-12-27l-82-83
q-3-3 -10-6l 12-13q 4,7 7,10l 83,83q 11,11 27,11t 27.5-11.5t 11.5-27.5t-12-27l-82-83q-3-3 -10-6l 60-60q 56-56 106.5-97.5t 86.5-64t 76.5-47.5t 76.5-47.5t 86.5-64t 106.5-96.5l 119-119q 25-25 25-60t-25-59.5z"  />
<glyph unicode="&#xf386;" d="M 1024,347q0-12 -7-21q-13-14 -33,0l-136,93q-16,9 -16,26.5t 16.5,30t 50.5,35.5t 59,40l 26,17q 21,14 33,0q 7-9 7-21l0-200 zM 848,610l-249-163l 279-182q 18-18 18-43.5t-18-43.5q-13-14 -35-17l-347-203q-19-21 -46-22q-29-2 -48,17t-17,48l0,307 l-152-99
q-18-18 -43.5-18t-43.5,18t-18,43.5t 18,43.5l 232,151l-232,151q-18,18 -18,43.5t 18,43.5t 43.5,18t 43.5-18l 152-98l0,307 q-2,28 17,47t 48,17q 27-1 46-21l 382-225q 18-18 18-43.5t-18-43.5q-11-11 -30-15zM 512,105l 205,121l-205,133l0-254 zM 512,789l0-254 l 205,133z
M 176,419l-136-93q-20-14 -33,0q-7,9 -7,21l0,200 q0,13 7,21q 12,14 33,0q 99-65 135-93q 17-12 17-29.5t-16-26.5z"  />
<glyph unicode="&#xf387;" d="M 896.5,320q-26.5,0 -45.5,18.5t-19,45.5l0,32 q0,13 -9,22.5t-22.5,9.5t-23-9.5t-9.5-22.5l0-32 l0-384 q0-27 -18.5-45.5t-45-18.5t-45.5,18.5t-19,45.5l0,416 q0,13 -9.5,22.5t-22.5,9.5t-22.5-9.5t-9.5-22.5l0-32 l0-128 q0-27 -18.5-45.5t-45-18.5t-45.5,18.5t-19,45.5
l0,160 q0,13 -9.5,22.5t-22.5,9.5t-22.5-9.5t-9.5-22.5l0-32 l0-128 q0-27 -18.5-45.5t-45-18.5t-45.5,18.5t-19,45.5l0,160 q0,13 -9.5,22.5t-22.5,9.5t-22.5-9.5t-9.5-22.5l0-32 l0-64 q0-27 -18.5-45.5t-45-18.5t-45.5,18.5t-19,45.5l0,256 q0,12 5,20l 59,236q0,53 37.5,90.5
t 90.5,37.5l 448,0 q 53,0 90.5-37.5t 37.5-90.5l 6-25l 106-253q 16-18 16-42l0-3 q 1-3 0-8l0-117 q0-26 -18.5-45t-45-19z"  />
<glyph unicode="&#xf388;" d="M 960,576l-384,0 l-32,0 q-13,0 -22.5-9.5t-9.5-22.5t 9.5-22.5t 22.5-9.5l 32,0 l 128,0 q 26,0 45-18.5t 19-45t-19-45.5t-45-19l-160,0 q-13,0 -22.5-9.5t-9.5-22.5t 9.5-22.5t 22.5-9.5l 32,0 l 128,0 q 26,0 45-18.5t 19-45t-19-45.5t-45-19l-160,0 q-13,0 -22.5-9.5t-9.5-22.5
t 9.5-22.5t 22.5-9.5l 32,0 l 64,0 q 27,0 45.5-19t 18.5-45.5t-18.5-45t-45.5-18.5l-256,0 q-12,0 -20,5l-236,59q-53,0 -90.5,37.5t-37.5,90.5l0,448 q0,53 37.5,90.5t 90.5,37.5l 25,6l 253,106q 18,16 42,16l 2,0 q 4,1 9,0l 117,0 q 26,0 45-18.5t 19-45t-19-45.5t-45-19l-32,0 q-13,0 -22.5-9.5
t-9.5-22.5t 9.5-22.5t 22.5-9.5l 32,0 l 384,0 q 27,0 45.5-18.5t 18.5-45t-19-45.5t-45-19z"  />
</font>
</defs>
</svg>
